<?xml version="1.0" encoding="UTF-8"?>
<svg width="52px" height="49px" viewBox="0 0 52 49" version="1.1" xmlns="http://www.w3.org/2000/svg" xmlns:xlink="http://www.w3.org/1999/xlink">
    <title>Group-15</title>
    <defs>
        <polygon id="path-1" points="0 0 3.44163529 0 3.44163529 18.871125 0 18.871125"></polygon>
        <polygon id="path-3" points="0 -3.33066907e-16 1.52941176 -3.33066907e-16 1.52941176 13.3920063 0 13.3920063"></polygon>
    </defs>
    <g id="Test" stroke="none" stroke-width="1" fill="none" fill-rule="evenodd">
        <g id="Franchise---1" transform="translate(-694.000000, -507.000000)">
            <g id="Block-1" transform="translate(0.000000, 47.000000)">
                <g id="Group-15" transform="translate(694.000692, 460.000612)">
                    <path d="M37.0159666,19.1104594 C39.7245549,19.0951469 41.4482019,18.5040844 42.4713784,17.3832094 C44.089496,15.6084906 44.817496,13.4800531 44.757849,11.0974281 C44.7104372,9.06699062 43.9931431,7.28461562 42.5753784,5.81461562 C42.0905549,5.31389688 41.6424372,4.69833437 41.047496,4.40586562 C39.5287902,3.66320937 37.8556137,3.45036562 36.2099666,3.79489687 C30.6582019,4.95864687 28.2050254,11.2949594 31.471849,15.9178031 C32.9905549,18.0661469 35.1424372,18.9787719 37.0159666,19.1104594 M37.2239666,2.85317812 C37.8969078,2.95883437 38.6662019,3.04305312 39.4171431,3.20842813 C40.6926725,3.48711562 41.7143196,4.23130313 42.6533784,5.10411563 C44.627849,6.93855313 45.6586725,9.20786562 45.5837313,11.9043969 C45.5225549,14.0435531 44.8893784,16.0326469 43.5343196,17.7323344 C42.1242019,19.4978656 40.1956137,20.2053031 38.0116137,20.2466469 C34.877849,20.3094281 32.511849,18.9573344 30.4976137,16.5165219 C27.2843196,12.6179594 29.1991431,4.29714687 35.9713784,2.97720937 C36.3476137,2.90370937 36.7391431,2.89911562 37.2239666,2.85317812" id="Fill-1" fill="#DBC0BD" fill-rule="nonzero"></path>
                    <path d="M44.401649,44.3641406 C44.401649,45.3563906 44.4169431,46.0745469 44.3878843,46.7911719 C44.3817666,46.9458281 44.245649,47.1785781 44.1187078,47.2199219 C43.9841196,47.2643281 43.725649,47.1739844 43.6338843,47.0545469 C43.517649,46.9029531 43.4824725,46.6656094 43.4702372,46.4619531 C43.3295313,44.4284531 43.2163549,42.3934219 43.0603549,40.3629844 C42.9961196,39.5422344 42.8462372,38.7276094 42.7300019,37.9129844 C42.7009431,37.7032031 42.6091784,37.4980156 42.6198843,37.2943594 C42.6321196,37.0876406 42.7330607,36.8870469 42.7942372,36.6833906 C42.9502372,36.8257969 43.1903549,36.9406406 43.2469431,37.1167344 C43.4885902,37.8655156 43.7608254,38.6188906 43.8663549,39.3937031 C44.1034137,41.1332031 44.2471784,42.8834219 44.401649,44.3641406" id="Fill-3" fill="#DBC0BD" fill-rule="nonzero"></path>
                    <g id="Group-7" transform="translate(48.493438, 27.454088)">
                        <g id="Fill-5-Clipped" transform="translate(-0.000000, 0.000000)">
                            <mask id="mask-2" fill="white">
                                <use xlink:href="#path-1"></use>
                            </mask>
                            <g id="path-51"></g>
                            <path d="M2.83094117,11.374125 C2.50823529,7.723625 2.16717647,4.07925 0.72952941,0.65078125 C0.67141176,0.5114375 0.65152941,0.392 0.66835294,0.2786875 C0.58882353,0.1929375 0.51847058,0.1010625 0.46035294,0 C0.28905882,0.03828125 0.13,0.0949375 0,0.19140625 C0.052,0.36596875 0.08105882,0.5481875 0.08105882,0.73040625 C0.14682353,0.6890625 0.21411764,0.65384375 0.27835294,0.61403125 C0.57505882,1.9079375 0.98341176,3.1268125 1.11188235,4.37478125 C1.37341176,6.91053125 1.48352941,9.4615938 1.65329411,12.005 C1.76341176,13.622 1.82305882,15.2420625 2.002,16.8514062 C2.0677647,17.4332813 2.38435294,18.001375 2.65658823,18.540375 C2.74070588,18.7088125 3.05729411,18.7624062 3.26682353,18.871125 C3.328,18.63225 3.45952941,18.3887813 3.43964705,18.1590938 C3.25,15.8959062 3.03129411,13.6357813 2.83094117,11.374125" id="Fill-5" fill="#DBC0BD" fill-rule="nonzero" mask="url(#mask-2)"></path>
                        </g>
                    </g>
                    <path d="M48.7808137,28.1184969 C48.8588137,28.0266219 48.9551666,27.9515906 49.0591666,27.8811531 C49.0943431,27.8367469 49.1325784,27.7984656 49.1738725,27.7601844 C49.1891666,27.6300281 49.2381078,27.5044656 49.3482254,27.3697156 C50.1175196,26.4218719 50.3729313,25.3132469 50.0762254,24.1418406 C49.6479902,22.4620594 48.3036372,21.6857156 46.3857549,21.8005594 C44.1604607,21.9337781 41.929049,22.0486219 39.700696,22.0639344 C36.4491666,22.0869031 33.193049,22.1159969 29.9491666,21.9521531 C26.4437549,21.7729969 22.9459902,21.3886531 19.4482254,21.0716844 C16.5285784,20.8083094 13.6135196,20.7531844 10.7305784,21.3503719 C6.673049,22.1894969 3.64940194,24.3516219 2.18422547,28.3696219 C1.93951958,29.0433719 1.82634311,29.7630594 1.63822547,30.4582469 C0.7848137,33.6156844 0.416225465,36.8496844 0.114931347,40.0898094 C-0.013539241,41.4709969 0.0308137002,42.8690281 0.00481370013,44.2578719 C-0.00283335869,44.8029969 -0.00436277046,45.3465906 0.0231666413,45.8886531 C0.0308137002,46.0249344 0.166931347,46.1550906 0.243401936,46.2867781 C0.388696053,46.1275281 0.408578406,46.0279969 0.413166642,45.9284656 C0.4988137,44.2073406 0.488107818,42.4739656 0.683872524,40.7650906 C1.06469606,37.4468719 1.47916664,34.1332469 2.30810782,30.8824031 C2.7348137,29.2148719 3.14316664,27.5519344 4.20457841,26.1722781 C5.85328429,24.0239344 8.04034311,22.7085906 10.6984607,22.1527469 C14.2283431,21.4131531 17.775049,21.5877156 21.3003431,22.0440281 C25.2661078,22.5569969 29.241049,22.8586531 33.2328137,22.9229656 C36.1876372,22.9719656 39.1409313,22.9321531 42.0972843,22.9244969 C42.4459902,22.9229656 42.7977549,22.8816219 43.1479902,22.8571219 C44.3929313,22.7759656 45.6378725,22.6289656 46.8828137,22.6243719 C49.2075196,22.6151844 49.8422254,24.7329031 48.9796372,26.3422469 C48.5651666,27.1155281 47.9274019,27.6729031 47.1152843,27.9852781 C46.2802254,28.3053094 45.4329313,28.6084969 44.5672843,28.8305281 C40.3185784,29.9177156 35.9582254,30.1183094 31.6085784,30.4245594 C30.2504607,30.5194969 28.9061078,30.8334031 27.558696,31.0753406 C27.083049,31.1580281 26.7465784,31.4183406 26.6364607,31.9542781 C26.4101078,33.0552469 26.1317549,34.1439656 25.8839902,35.2388094 C25.1361078,38.5493719 25.0581078,41.9043406 25.2844607,45.2700281 C25.3318725,45.9774656 25.5765784,46.6787781 25.7876372,47.3647781 C25.9008137,47.7322781 26.2005784,47.9451219 26.6196372,47.7996531 C26.9545784,47.6802156 27.0601078,47.2575906 26.8964607,46.8456844 C26.7817549,46.5547469 26.6379902,46.2607469 26.5997549,45.9544969 C26.4682254,44.9285594 26.3734019,43.8964969 26.2694019,42.8644344 C25.9161078,39.2859031 26.3091666,35.7686219 27.1763431,32.2972781 C27.2237549,32.1043406 27.4485784,31.8470906 27.6259902,31.8149344 C28.8021078,31.6066844 29.9812843,31.3984344 31.1696372,31.2912469 C34.3385784,31.0094969 37.5228137,30.8854656 40.6764607,30.4965281 C43.4599902,30.1535281 46.2511666,29.6819031 48.7716372,28.0863406 C48.774696,28.0970594 48.7777549,28.1077781 48.7808137,28.1184969" id="Fill-8" fill="#A4C1CF" fill-rule="nonzero"></path>
                    <path d="M16.8528137,16.2572812 C19.5583431,16.2419687 21.2819902,15.649375 22.306696,14.5315625 C23.892696,12.8058437 24.6176372,10.724875 24.6038725,8.40503125 C24.5916372,6.321 23.8789313,4.477375 22.4152843,2.96296875 C21.9304607,2.46378125 21.4838725,1.84515625 20.8889313,1.5526875 C19.3702254,0.81003125 17.697049,0.5971875 16.0529313,0.9401875 C10.5011666,2.09934375 8.04187253,8.44025 11.3071666,13.0600312 C12.8258725,15.2099062 14.9762254,16.121 16.8528137,16.2572812 M17.0623431,9.8337137e-16 C17.7337549,0.10565625 18.503049,0.189875 19.2555196,0.35371875 C20.531049,0.6339375 21.552696,1.378125 22.4917549,2.2509375 C24.4662254,4.085375 25.497049,6.35315625 25.4205784,9.05121875 C25.3594019,11.190375 24.7277549,13.1779375 23.372696,14.877625 C21.961049,16.6431563 20.0339902,17.3505938 17.8499902,17.3934688 C14.714696,17.4547188 12.3502254,16.102625 10.3359902,13.6633438 C7.12116664,9.76478125 9.03599017,1.44396875 15.8097549,0.1225 C16.1859902,0.049 16.5775196,0.04440625 17.0623431,9.8337137e-16" id="Fill-10" fill="#A4C1CF" fill-rule="nonzero"></path>
                    <g id="Fill-12-Clipped" transform="translate(7.547404, 34.733956)">
                        <mask id="mask-4" fill="white">
                            <use xlink:href="#path-3"></use>
                        </mask>
                        <g id="path-53"></g>
                        <path d="M1.07289229,-3.33066907e-16 C1.13559817,0.8973125 1.23500993,1.764 1.25030405,2.63375 C1.29771582,5.6748125 1.32065699,8.715875 1.34665699,11.7584688 C1.34971582,12.0218438 1.30995111,12.2836875 1.29312758,12.5455313 C1.25336287,13.1166875 0.95359817,13.3984375 0.29900993,13.3925049 C0.25924523,13.1672188 0.1781864,12.9344688 0.18277464,12.7047813 C0.26689229,9.261 0.36171582,5.81721875 0.45500993,2.3734375 C0.46877464,1.81146875 0.46265699,1.2464375 0.50853935,0.68753125 C0.53148052,0.39659375 0.5544217,0.04134375 1.07289229,-3.33066907e-16" id="Fill-12" fill="#A4C1CF" fill-rule="nonzero" mask="url(#mask-4)"></path>
                    </g>
                </g>
            </g>
        </g>
    </g>
</svg>