<?xml version="1.0" encoding="UTF-8"?>
<svg width="196px" height="69px" viewBox="0 0 196 69" version="1.1" xmlns="http://www.w3.org/2000/svg" xmlns:xlink="http://www.w3.org/1999/xlink">
    <title>Group-38</title>
    <defs>
        <polygon id="path-1" points="0 3.88578059e-16 13.0761648 3.88578059e-16 13.0761648 12.7513353 0 12.7513353"></polygon>
    </defs>
    <g id="Test" stroke="none" stroke-width="1" fill="none" fill-rule="evenodd">
        <g id="Franchise---1" transform="translate(-622.000000, -553.000000)">
            <g id="Block-1" transform="translate(0.000000, 47.000000)">
                <g id="Group-38" transform="translate(622.000000, 506.010427)">
                    <polygon id="Fill-1" fill="#A5C2D0" fill-rule="nonzero" points="88 50.9895733 98.000806 68.9895733 108 50.9895733"></polygon>
                    <g id="Group-37">
                        <g id="Fill-2-Clipped" transform="translate(0.000000, 1.817537)">
                            <mask id="mask-2" fill="white">
                                <use xlink:href="#path-1"></use>
                            </mask>
                            <g id="path-55"></g>
                            <path d="M0.238494118,8.91603656 C0.694729412,7.89603656 1.34531765,7.00103656 1.99590588,6.1043699 C2.81284706,4.99603656 5.61614118,1.68770323 6.23378824,1.1043699 C7.39825882,-0.062296767 8.20531765,-0.2706301 9.3352,0.3193699 C11.3215529,1.2293699 13.4742588,2.25103656 13.0130824,3.52270323 C12.6029647,4.99603656 10.5507294,3.91270323 9.04202353,2.89603656 C8.50508235,2.57770323 8.13778824,2.51770323 7.72108235,3.0493699 C7.3752,3.50603656 7.02437647,3.88770323 6.69167059,4.3143699 C6.41167059,4.62103656 6.45449412,5.00103656 6.84484706,5.25270323 C8.06531765,5.95603656 8.97943529,6.23103656 8.62861176,7.3343699 C8.05708235,8.77103656 6.72461176,7.83770323 5.17472941,7.30770323 C4.56696471,7.06603656 4.29355294,7.12103656 3.90484706,7.59270323 C3.65284706,7.91103656 3.40578824,8.30603656 3.17190588,8.6693699 C2.92814118,9.13603656 3.04508235,9.51270323 3.57708235,9.75770323 C5.44484706,10.6143699 6.89590588,10.4093699 6.54508235,11.9127032 C6.44625882,12.3727032 6.00814118,12.7143699 5.45472941,12.7510365 C4.87167059,12.7727032 1.46225882,11.6093699 1.07849412,11.4343699 C0.0210823529,10.8410365 -0.258917647,10.0260365 0.238494118,8.91603656" id="Fill-2" fill="#F3EEE7" fill-rule="nonzero" mask="url(#mask-2)"></path>
                        </g>
                        <path d="M17.9491529,19.68374 C18.6853882,18.54874 19.4413882,17.4554066 21.2795059,14.82874 C21.7851529,14.0654066 22.1310353,13.5604066 21.8988,13.23374 C21.6682118,12.90874 21.1493882,13.2120733 20.6602118,13.52874 L18.7578588,14.9470733 C17.7086824,15.6920733 17.1404471,15.8404066 16.5376235,15.5920733 C15.5444471,15.1720733 15.7173882,13.9770733 15.9199765,12.68874 C15.9990353,12.15874 16.1060941,11.84874 15.7388,11.71874 C15.4308,11.60874 15.1606824,11.8970733 14.8543294,12.27874 C13.8282118,13.55374 12.8745647,14.8204066 11.9192706,16.1904066 C11.2868,17.2220733 10.5917412,17.5354066 9.9708,17.1420733 C9.44044706,16.7804066 9.23456471,16.07874 9.55244706,15.45874 C10.2310353,13.9904066 14.2943294,9.01040667 16.0517412,7.12040667 C16.7418588,6.31707334 17.5060941,5.99707334 18.1204471,6.21374001 C19.4413882,6.68040667 19.1531529,8.81207334 18.9044471,10.4304066 C18.8369176,10.8270733 18.8665647,11.04374 19.1498588,11.2154066 C19.4479765,11.3554066 19.6538588,11.25374 20.2369176,10.8670733 C21.6797412,9.98374001 24.1865647,8.70707334 25.2308,9.07707334 C25.8748,9.30374001 26.2256235,9.98707334 26.1317412,10.85874 C26.0016235,12.03374 24.9623294,13.54874 24.2260941,14.68374 C22.5625647,17.30374 20.2402118,20.7370733 19.6868,21.2404066 C19.1976235,21.6604066 18.5700941,21.6804066 18.0924471,21.2670733 C17.5917412,20.9170733 17.5406824,20.2720733 17.9491529,19.68374" id="Fill-5" fill="#F3EEE7" fill-rule="nonzero"></path>
                        <path d="M32.8772706,14.40874 C32.8179765,13.7454066 32.3123294,13.74374 31.6765647,14.11374 C30.0509176,15.2754066 28.6739765,16.77374 28.1156235,18.8720733 C27.8800941,19.7620733 27.9146824,20.3854066 28.4005647,20.5870733 C29.5979765,21.1520733 32.9250353,16.1254066 32.8772706,14.40874 M25.7438588,21.3270733 C24.7358588,18.15374 27.5671529,13.8454066 30.6982118,11.8354066 C31.2648,11.47874 31.8692706,11.2354066 32.4391529,11.1170733 C33.3417412,11.0220733 33.8095059,11.2870733 34.1751529,12.06874 C34.3431529,12.45374 34.5193882,12.67374 34.7664471,12.8770733 C35.5965647,13.68374 35.4071529,15.5420733 34.7829176,16.8720733 C33.5673882,19.40374 31.8165647,21.92874 29.5815059,22.9870733 C27.8768,23.81874 26.3417412,23.1270733 25.7438588,21.3270733" id="Fill-7" fill="#F3EEE7" fill-rule="nonzero"></path>
                        <path d="M38.1175529,23.9334066 C39.3561412,21.97674 42.1462588,16.71674 42.3686118,15.6534066 C42.4295529,15.36174 42.3554353,15.0784066 42.0046118,15.0034066 C40.2867294,14.63674 38.4041412,14.57174 37.6399059,14.4084066 C37.2577882,14.32674 36.9926118,14.00174 36.9481412,13.4200733 C36.8575529,12.72674 37.5872,12.1084066 38.4403765,12.1584066 C40.7627294,12.1800733 42.4328471,12.4700733 48.6356706,13.82674 C49.8775529,14.09174 50.4013176,14.60674 50.2399059,15.3800733 C50.1279059,15.92674 49.6074353,16.3550733 48.9881412,16.2900733 C48.2107294,16.19174 47.1516706,16.0000733 46.5159059,15.8634066 C45.2740235,15.6000733 45.1570824,15.6750733 44.5921412,16.8000733 C43.1690824,19.7950733 41.5154353,23.1100733 40.1269647,25.3034066 C39.5504941,26.15674 38.7302588,26.4200733 38.1356706,25.92174 C37.5394353,25.42674 37.5344941,24.8184066 38.1175529,23.9334066" id="Fill-9" fill="#F3EEE7" fill-rule="nonzero"></path>
                        <path d="M52.8043765,16.2234066 C53.1963765,15.65674 53.7959059,15.4250733 54.2867294,15.6434066 C55.0312,15.93674 55.1349647,16.6900733 54.6276706,17.9384066 C53.7744941,20.0950733 52.5984941,21.99674 51.4966118,24.0434066 C50.2086118,26.42674 49.5843765,27.9900733 48.4363765,27.3600733 C47.1170824,26.7650733 48.1580235,25.0750733 48.9222588,23.6700733 C50.5264941,20.9750733 52.4337882,16.86174 52.8043765,16.2234066" id="Fill-11" fill="#F3EEE7" fill-rule="nonzero"></path>
                        <path d="M61.8213647,19.99624 C61.6780706,19.34624 61.1773647,19.4095733 60.5926588,19.8629066 C59.1300706,21.2245733 57.9557176,22.89124 57.6691294,25.0445733 C57.5456,25.9579066 57.6625412,26.57124 58.1698353,26.7079066 C59.4281882,27.1129066 62.0881882,21.6945733 61.8213647,19.99624 M55.6284235,27.7895733 C54.2251294,24.7745733 56.4848941,20.1329066 59.3326588,17.73124 C59.8498353,17.3029066 60.4180706,16.98124 60.9681882,16.79124 C61.8510118,16.5779066 62.3484235,16.7795733 62.8096,17.5079066 C63.0237176,17.8695733 63.2279529,18.0629066 63.5013647,18.2329066 C64.4270118,18.9229066 64.4731294,20.79124 64.0251294,22.19124 C63.1439529,24.86124 61.7274824,27.5929066 59.6472471,28.9345733 C58.0611294,29.98124 56.4519529,29.49624 55.6284235,27.7895733" id="Fill-13" fill="#F3EEE7" fill-rule="nonzero"></path>
                        <path d="M64.9996941,28.72024 C65.0408706,28.2619066 66.0109882,25.77024 66.8476941,24.0619066 C68.3465176,20.7619066 69.6295765,17.3419066 70.9554588,17.4619066 C71.3804,17.4669066 71.7526353,17.6985733 72.0128706,18.08524 C72.4147529,18.68524 72.8331059,21.00024 72.9945176,22.5035733 L73.1773412,23.7419066 C73.2959294,24.2469066 73.3733412,24.4869066 73.7307529,24.5185733 C74.1524,24.5569066 74.3698118,23.91524 74.9726353,22.6469066 C75.7796941,20.90524 76.6509882,19.16524 77.3131059,18.69524 C77.5535765,18.5519066 77.7907529,18.47524 78.1135765,18.5035733 C78.5994588,18.5469066 79.2055765,19.06524 79.1067529,19.8169066 C79.0869882,20.0469066 78.9667529,20.2985733 78.8119294,20.5819066 C77.3674588,22.8985733 76.9112235,23.98024 75.3284,27.50524 C75.0022824,28.23524 74.6333412,29.09524 74.1556941,30.0735733 C73.9168706,30.55024 73.5018118,30.8085733 73.0488706,30.7685733 C72.5942824,30.7269066 72.1611059,30.4569066 71.8481647,29.9335733 C71.3375765,29.06024 71.3655765,28.00524 70.7034588,23.65024 C70.5815765,23.21024 70.0644,23.13024 69.8354588,23.5069066 C68.9164,25.0419066 67.9578118,27.40024 67.3632235,28.96524 C67.0239294,29.8619066 66.4639294,30.2735733 65.7968706,30.0469066 C65.2912235,29.8685733 64.9453412,29.3419066 64.9996941,28.72024" id="Fill-15" fill="#F3EEE7" fill-rule="nonzero"></path>
                        <path d="M85.1005647,25.9320733 C85.4085647,24.3004066 85.4200941,24.0370733 85.1351529,23.92374 C84.4977412,23.5954066 82.9659765,25.6270733 83.2624471,26.2370733 C83.3777412,26.53874 83.6346824,26.5854066 84.1880941,26.6120733 C84.6426824,26.6354066 85.0116235,26.4220733 85.1005647,25.9320733 M84.3840941,29.91874 C84.4384471,29.4920733 84.1946824,29.1170733 83.7746824,29.06374 L81.7010353,28.8604066 C81.3419765,28.8420733 81.1064471,28.9954066 80.8264471,29.3770733 C80.1610353,30.33374 79.3226824,31.5120733 79.0509176,31.72874 C78.6144471,32.00374 78.0626824,31.9754066 77.6542118,31.65874 C77.0563294,31.23374 77.0596235,30.5070733 77.7579765,29.5204066 L80.7144471,25.05374 C81.9464471,23.1704066 84.9243294,19.5620733 86.1283294,18.8970733 C87.1989176,18.3254066 88.2168,18.8704066 88.3222118,20.02874 C88.4193882,21.38374 86.9650353,30.44374 86.5433882,31.7404066 C86.3523294,32.32374 85.8170353,32.6270733 85.2356235,32.49874 C84.1386824,32.2804066 84.3149176,31.3320733 84.3840941,29.91874" id="Fill-17" fill="#F3EEE7" fill-rule="nonzero"></path>
                        <path d="M89.8793412,30.5040733 C89.7920471,29.7774066 90.9054588,26.8324066 92.0896941,23.59074 C92.5936941,22.2140733 93.1026353,20.8390733 93.5769882,19.43074 C93.9525176,18.25074 94.4433412,17.8640733 95.2224,18.0724066 C96.0327529,18.28074 96.2485176,19.0090733 95.8104,20.2524066 C94.9967529,22.61074 94.1831059,24.93574 93.6774588,26.3440733 C93.1026353,27.9490733 92.7995765,28.63574 93.2525176,28.8724066 C93.4781647,29.0090733 94.0002824,28.9490733 95.1400471,28.7340733 C96.1529882,28.55074 96.9962824,28.59574 97.1148706,29.5540733 C97.2021647,30.14574 96.8694588,30.70074 96.3144,30.8590733 C94.8106353,31.33074 91.8113412,31.9140733 91.2266353,31.8724066 C90.4459294,31.8290733 89.9979294,31.3624066 89.8793412,30.5040733" id="Fill-19" fill="#F3EEE7" fill-rule="nonzero"></path>
                        <path d="M107.990565,29.2735733 C108.456682,27.1685733 109.158329,21.2269066 109.364212,19.6985733 C109.502565,18.7019066 109.929153,18.1819066 110.545153,18.14524 C111.390094,18.1285733 111.925388,18.9219066 111.754094,19.9219066 C111.625624,21.0819066 111.230329,23.81024 111.268212,24.50024 C111.287976,24.8269066 111.689859,25.03524 111.969859,24.7885733 C112.340447,24.4369066 113.068447,23.5035733 113.539506,23.2119066 C114.325153,22.67024 115.179976,22.85024 115.687271,23.7119066 C116.151741,24.4435733 116.158329,26.25524 116.780918,26.3185733 C117.339271,26.38524 117.991506,24.6969066 119.014329,22.0985733 C120.213388,19.1269066 120.720682,17.18524 122.119035,17.6969066 C122.621388,17.93024 122.949153,18.5385733 122.784447,19.1069066 C122.552212,20.1435733 118.250094,30.3519066 117.802094,31.0385733 C117.083976,32.1685733 115.743271,32.0835733 115.186565,30.89524 C114.776447,29.9969066 114.557388,29.02024 114.338329,28.01024 C114.076447,26.8735733 113.649859,26.80024 112.887271,27.7019066 C110.551741,30.7385733 110.340918,31.0469066 110.156447,31.25524 C109.695271,31.7119066 109.181388,31.8419066 108.647741,31.6419066 C107.947741,31.3535733 107.705624,30.5435733 107.990565,29.2735733" id="Fill-21" fill="#F3EEE7" fill-rule="nonzero"></path>
                        <path d="M124.570518,28.91724 C124.456871,27.8039066 124.570518,26.6989066 124.685812,25.5939066 C124.837341,24.2205733 125.604871,19.93224 125.846988,19.11224 C126.268635,17.5105733 126.864871,16.9189066 128.131459,16.8505733 C130.300635,16.6189066 132.667459,16.40224 132.904635,17.7339066 C133.286753,19.21724 130.975929,19.3305733 129.164165,19.2239066 C128.541576,19.2239066 128.195694,19.3605733 128.103459,20.03224 C128.030988,20.60224 127.918988,21.1105733 127.843224,21.6489066 C127.755929,22.0555733 127.983224,22.36224 128.4444,22.3805733 C129.849341,22.36224 130.774988,22.1339066 131.022047,23.2655733 C131.246047,24.79724 129.630282,24.67224 128.029341,25.00724 C127.385341,25.1089066 127.174518,25.2955733 127.074047,25.90224 C127.0164,26.30724 126.999929,26.77224 126.980165,27.2055733 C127.003224,27.73224 127.291459,27.9989066 127.874518,27.93724 C129.913576,27.7205733 131.061576,26.8039066 131.509576,28.2805733 C131.654518,28.7289066 131.445341,29.24724 130.987459,29.56224 C130.496635,29.87724 126.973576,30.61724 126.551929,30.6605733 C125.344635,30.6889066 124.695694,30.1305733 124.570518,28.91724" id="Fill-23" fill="#F3EEE7" fill-rule="nonzero"></path>
                        <path d="M134.4336,28.3735733 C134.239247,27.6685733 134.896424,24.58524 135.578306,21.1969066 C135.874776,19.76024 136.167953,18.3235733 136.424894,16.8569066 C136.6176,15.6319066 137.047482,15.1735733 137.846306,15.26024 C138.679718,15.3419066 139.004188,16.0285733 138.757129,17.32524 C138.307482,19.7819066 137.852894,22.2069066 137.563012,23.6769066 C137.235247,25.3519066 137.040894,26.0769066 137.523482,26.2419066 C137.7656,26.34024 138.274541,26.2019066 139.369835,25.81524 C140.3416,25.4785733 141.183247,25.3919066 141.443482,26.32024 C141.619718,26.8919066 141.375953,27.4935733 140.850541,27.7319066 C139.435718,28.43024 136.556659,29.4685733 135.971953,29.5185733 C135.194541,29.59524 134.680659,29.2019066 134.4336,28.3735733" id="Fill-25" fill="#F3EEE7" fill-rule="nonzero"></path>
                        <path d="M143.318659,27.10074 C143.0996,26.4040733 143.649718,23.2974066 144.213012,19.8890733 C144.456776,18.44074 144.702188,16.9940733 144.908071,15.52074 C145.0596,14.2890733 145.471365,13.8140733 146.275129,13.8724066 C147.110188,13.92574 147.459365,14.5990733 147.256776,15.9040733 C146.891129,18.3774066 146.522188,20.81574 146.283365,22.2940733 C146.014894,23.98074 145.8436,24.7124066 146.332776,24.8590733 C146.578188,24.9490733 147.080541,24.7924066 148.162659,24.3674066 C149.121247,23.99574 149.961247,23.8790733 150.252776,24.7974066 C150.450424,25.3640733 150.224776,25.9724066 149.709247,26.2324066 C148.319129,26.98074 145.477953,28.1190733 144.894894,28.1890733 C144.120776,28.2940733 143.593718,27.92074 143.318659,27.10074" id="Fill-27" fill="#F3EEE7" fill-rule="nonzero"></path>
                        <path d="M152.239129,25.45524 C152.137012,25.00524 152.303365,22.33524 152.580071,20.4485733 C153.005012,16.84024 153.184541,13.1885733 154.484071,12.8885733 C154.889247,12.7619066 155.312541,12.86524 155.678188,13.1535733 C156.244776,13.5969066 157.345012,15.6735733 157.956071,17.0519066 L158.507835,18.1735733 C158.774659,18.6169066 158.921247,18.8219066 159.268776,18.7419066 C159.680541,18.64524 159.695365,17.9685733 159.883129,16.57524 C160.120306,14.6619066 160.421718,12.7369066 160.909247,12.08524 C161.095365,11.8735733 161.294659,11.7269066 161.610894,11.6535733 C162.086894,11.5435733 162.823129,11.8469066 162.958188,12.5919066 C163.0076,12.8169066 162.971365,13.09524 162.908776,13.4135733 C162.236776,16.06524 162.133012,17.2369066 161.696541,21.08524 C161.609247,21.88024 161.518659,22.8135733 161.362188,23.89524 C161.278188,24.4219066 160.9636,24.7969066 160.518894,24.90024 C160.075835,25.0035733 159.580071,24.8785733 159.123835,24.4785733 C158.372776,23.8085733 158.077953,22.79524 156.124541,18.8569066 C155.874188,18.4769066 155.360306,18.56024 155.254894,18.9885733 C154.848071,20.7369066 154.652071,23.28024 154.561482,24.95524 C154.508776,25.9119066 154.101953,26.4769066 153.400306,26.4703557 C152.863365,26.46024 152.374188,26.06524 152.239129,25.45524" id="Fill-29" fill="#F3EEE7" fill-rule="nonzero"></path>
                        <path d="M166.284259,21.6874066 C165.976259,20.6124066 165.895553,19.50574 165.814847,18.3974066 C165.722612,17.0190733 165.727553,12.66574 165.821435,11.8140733 C165.958141,10.1640733 166.437435,9.47574001 167.674376,9.17907334 C169.766141,8.56407334 172.055553,7.92574001 172.521671,9.19407334 C173.159082,10.5840733 170.904259,11.1090733 169.104024,11.33074 C168.491318,11.4424066 168.175082,11.6374066 168.201435,12.31574 C168.231082,12.89074 168.211318,13.4090733 168.231082,13.95074 C168.214612,14.3674066 168.492965,14.6290733 168.947553,14.5640733 C170.327788,14.29574 171.195788,13.9024066 171.640494,14.9724066 C172.129671,16.44074 170.515553,16.60574 168.998612,17.2224066 C168.384259,17.4374066 168.211318,17.66074 168.217906,18.2740733 C168.234376,18.68074 168.298612,19.1440733 168.352965,19.57074 C168.466612,20.0874066 168.797671,20.2974066 169.359318,20.1324066 C171.3292,19.5540733 172.297671,18.4474066 172.996024,19.8190733 C173.216729,20.2340733 173.104729,20.78074 172.707788,21.17074 C172.2812,21.5724066 168.944259,22.9290733 168.537435,23.0474066 C167.354847,23.2940733 166.618612,22.8574066 166.284259,21.6874066" id="Fill-31" fill="#F3EEE7" fill-rule="nonzero"></path>
                        <path d="M176.861341,18.9805733 C176.457812,18.42724 176.472635,17.6889066 176.922282,17.2089066 C177.343929,16.7405733 177.849576,16.69724 178.432635,17.0789066 C179.122753,17.56224 179.875459,17.63724 180.679224,17.2755733 C182.309812,16.5089066 181.837106,14.4055733 179.923224,13.49224 C179.028871,13.11724 177.009576,12.4889066 176.442988,12.06724 C175.500871,11.3605733 175.235694,10.51224 175.538753,9.42224001 C176.144871,7.62724001 178.190518,5.69390667 180.351459,4.87224001 C181.178282,4.57057334 181.748165,4.71224001 182.059459,5.30057334 C182.423459,5.93724001 182.169812,6.48390667 181.186518,7.12224001 C180.374518,7.55724001 179.560871,7.99390667 178.877341,8.69724001 C177.790282,9.82724001 177.902282,10.1355733 179.280871,10.61224 C181.613106,11.3389066 182.935694,12.43224 183.821812,14.2439066 C184.643694,15.97224 183.882753,18.2089066 182.146753,19.2605733 C180.4124,20.31224 177.702988,20.1789066 176.861341,18.9805733" id="Fill-33" fill="#F3EEE7" fill-rule="nonzero"></path>
                        <path d="M188.609647,14.5829066 C188.16,14.0679066 188.110588,13.3295733 188.519059,12.8129066 C188.899529,12.3095733 189.398588,12.2229066 190.012941,12.5529066 C190.742588,12.9745733 191.498588,12.9845733 192.271059,12.5529066 C193.827529,11.64624 193.180235,9.59290667 191.193882,8.85124001 C190.273176,8.55457334 188.206118,8.10290667 187.606588,7.73124001 C186.606824,7.10957334 186.269176,6.28624001 186.48,5.17457334 C186.931294,3.33290667 188.805647,1.22957334 190.890824,0.222906673 C191.688,-0.148759993 192.267765,-0.0554266596 192.626824,0.501240007 C193.045176,1.10457334 192.836,1.67124001 191.912,2.39290667 C191.137882,2.89624001 190.365412,3.40290667 189.744471,4.16290667 C188.757882,5.38124001 188.894588,5.68124001 190.309412,6.03624001 C192.694353,6.55790667 194.104235,7.53290667 195.140235,9.25957334 C196.107059,10.91124 195.538824,13.20624 193.898353,14.4045733 C192.259529,15.60124 189.548471,15.7045733 188.609647,14.5829066" id="Fill-35" fill="#F3EEE7" fill-rule="nonzero"></path>
                    </g>
                </g>
            </g>
        </g>
    </g>
</svg>