<svg width="20" height="20" viewBox="0 0 20 20">
    <g fill="#FFF" fill-rule="evenodd" opacity="0.45">
        <path
            d="M18.227 9.997V5.664c-.002-.457-.046-.908-.2-1.343-.566-1.59-1.935-2.546-3.665-2.549-2.908-.003-5.818-.008-8.726.009-.436.002-.89.062-1.301.2-1.6.536-2.556 1.922-2.558 3.648-.005 2.908-.002 5.816 0 8.723 0 .451.05.895.203 1.324.564 1.574 1.92 2.534 3.63 2.538 2.929.008 5.857.006 8.785 0 1.312-.002 2.369-.527 3.142-1.591.492-.676.691-1.445.69-2.274-.002-1.45 0-2.901 0-4.352M5.119 0h9.765c.203.032.41.054.612.099 2.266.509 3.718 1.88 4.34 4.118.081.292.11.597.164.897v9.76c-.013.07-.02.14-.038.208-.135.52-.2 1.074-.421 1.554-.996 2.156-2.709 3.309-5.086 3.342-2.968.042-5.937.012-8.905.01-1.15-.002-2.215-.312-3.154-.98C.806 17.874.01 16.314.005 14.363-.003 11.45-.001 8.535.007 5.62c.001-.375.021-.76.1-1.124.5-2.264 1.88-3.71 4.113-4.332.292-.081.6-.111.9-.164">
        </path>
        <path
            d="M8.318 12.957c0-.916-.003-1.832.003-2.748.001-.182-.067-.25-.267-.242-.277.011-.557-.003-.835.002-.145.002-.22-.037-.219-.185.005-.568.004-1.136 0-1.703-.001-.148.067-.21.223-.209.266.002.53 0 .796-.002.288-.002.296-.008.3-.282.005-.409.001-.818.015-1.227.015-.435.074-.865.297-1.26.338-.595.903-.934 1.595-1.002.86-.085 1.732-.07 2.598-.099.13-.004.175.057.175.17-.001.604-.002 1.209.001 1.813 0 .139-.092.159-.209.159-.339 0-.676 0-1.014.003a3.333 3.333 0 00-.377.02c-.225.028-.344.124-.357.33-.025.414-.026.829-.04 1.244-.002.129.092.126.189.127.49.008.98.01 1.47.027.299.01.327.031.307.301-.04.518-.1 1.033-.145 1.55-.013.149-.094.193-.245.194-.431.005-.861.018-1.292.03-.27.007-.283.016-.283.26l-.001 5.002c0 .171-.008.342-.002.513.005.181-.09.253-.277.253-.511 0-1.021.002-1.531.003L8.636 16c-.277 0-.318-.03-.32-.277-.003-.587-.003-1.172-.003-1.759v-1.007h.005z">
        </path>
    </g>
</svg>