<?xml version="1.0" encoding="UTF-8"?>
<svg width="75px" height="130px" viewBox="0 0 75 130" version="1.1" xmlns="http://www.w3.org/2000/svg" xmlns:xlink="http://www.w3.org/1999/xlink">
    <title>Group-12</title>
    <defs>
        <polygon id="path-1" points="0 -6.27276009e-15 74.8085506 -6.27276009e-15 74.8085506 129.407778 0 129.407778"></polygon>
    </defs>
    <g id="Test" stroke="none" stroke-width="1" fill="none" fill-rule="evenodd">
        <g id="Franchise---1" transform="translate(-967.000000, -2403.000000)">
            <g id="How-It-Works" transform="translate(324.490287, 2318.000000)">
                <g id="Group-12" transform="translate(642.509712, 85.179524)">
                    <path d="M16.533583,66.2757534 C16.533583,54.2971647 16.5164477,42.3181624 16.5462304,30.3395738 C16.5531661,27.5895079 16.7179908,24.8398557 16.8154985,22.0902035 C16.8412014,21.379108 16.9158621,20.9550981 17.8619723,20.6671851 C21.8699872,19.4464504 25.9999888,19.2251379 30.1095912,18.8383582 C39.8399614,17.9229106 49.5984823,18.0933419 59.3512914,18.1934496 C61.0615519,18.2112373 62.7709964,18.5558229 64.4747291,18.7965777 C65.1944093,18.8983401 65.8059743,19.2065229 65.8749232,20.0954957 C66.2359873,24.7252697 66.8414325,29.3492522 66.9246609,33.9835765 C67.1062128,44.1337519 67.0666386,54.2888914 67.0393038,64.4419625 C67.012785,74.2992608 66.7928827,84.1573865 66.854488,94.0138575 C66.8777429,97.7927161 67.4215829,101.571161 67.7769352,105.345055 C67.9315604,106.996832 67.7993742,107.220627 66.2221159,107.161472 C58.5275758,106.873145 50.8342597,106.538488 43.1380877,106.299388 C36.4108729,106.090072 29.7375117,106.77221 23.0837336,107.723647 C21.784311,107.909384 20.4506179,107.832028 19.1348761,107.913521 C18.637954,107.944132 18.1336883,108.033898 17.6571653,108.179509 C16.8718,108.419437 16.442603,108.139797 16.3393836,107.347209 C16.2871619,106.94471 16.3087849,106.530628 16.3087849,106.12151 C16.307561,92.8394537 16.3079689,79.5573967 16.3079689,66.2753397 C16.3830376,66.2757534 16.4581063,66.2757534 16.533583,66.2757534" id="Fill-1" fill="#E7E1D9" fill-rule="nonzero"></path>
                    <g id="Fill-3-Clipped">
                        <mask id="mask-2" fill="white">
                            <use xlink:href="#path-1"></use>
                        </mask>
                        <g id="path-32"></g>
                        <path d="M14.2092213,126.212914 C14.2006148,126.252946 14.1911885,126.292565 14.182582,126.332597 C14.4879098,126.430406 14.7862705,126.578565 15.0989754,126.618184 C18.6313525,127.070914 22.1555328,127.693263 25.7026639,127.897136 C29.5555328,128.118343 33.4329918,127.862882 37.2961066,127.963581 C47.0260246,128.216978 56.7293033,127.744025 66.4260246,127.029232 C66.8932377,126.994565 67.4563525,126.944216 67.7915984,126.67266 C69.4616803,125.318597 70.9317623,123.822152 71.689959,121.684374 C72.5264344,119.324978 72.6821721,116.895422 72.7219262,114.453898 C72.785041,110.594755 72.6981557,106.733962 72.7194672,102.874406 C72.7920082,89.7365651 72.8866803,76.5995492 72.9648093,63.4621206 C72.969877,62.5356127 72.9047131,61.6086921 72.8768443,60.6821841 C72.7190574,55.4173905 72.4096311,50.1521841 72.4411885,44.8890413 C72.4870902,37.2491683 72.8256148,29.6117714 72.9456967,21.9714857 C73.0010246,18.451581 72.9120902,14.9238349 72.7432377,11.4068191 C72.605123,8.53113651 71.2821721,6.46062857 69.1969262,5.50316825 C69.3493852,5.8812 69.460041,6.18412063 69.5920082,6.47713651 C71.0625,9.74859682 71.5956967,13.1719302 71.4788934,16.7591048 C71.2067623,25.1026286 70.9243852,33.4482159 70.8428279,41.7946286 C70.7309426,53.2234857 70.885041,64.6548191 70.7702869,76.0832635 C70.6465164,88.3639302 70.3665984,100.643771 70.0903689,112.921962 C70.0530738,114.57647 69.7797131,116.258628 69.3694672,117.864438 C68.4768443,121.359581 66.7317623,124.089168 62.7030738,124.39993 C60.8063525,124.546438 58.9096311,124.697073 57.0153689,124.871644 C53.3170082,125.212533 49.6243852,125.644628 45.9202869,125.902152 C42.2477459,126.156787 38.5538934,126.126247 34.8870902,126.43247 C30.0305328,126.837739 25.1834016,127.045327 20.3202869,126.681739 C18.282582,126.529454 16.2461066,126.369327 14.2092213,126.212914 M3.03504098,90.351073 C3.03504098,92.9304381 2.96536885,97.9410095 3.0567623,102.948692 C3.13258197,107.095073 3.3329918,111.241866 3.60184426,115.379993 C3.7920082,118.310565 5.20471311,120.680692 7.76946721,122.060343 C9.53053279,123.007898 11.4817623,123.860533 13.4329918,124.131676 C17.2518443,124.662819 21.1284836,124.947993 24.9838115,124.979359 C28.7665984,125.009898 32.5506148,124.5712 36.3362705,124.387962 C42.9153689,124.068946 49.4961066,123.792438 56.0752049,123.487866 C59.2338115,123.341771 62.2592213,122.687644 65.0670082,121.137549 C66.0653689,120.586597 66.7977459,119.88047 67.0108607,118.737708 C67.3231557,117.064216 67.7596311,115.393613 67.8592213,113.704851 C68.0620902,110.263771 68.0973361,106.811962 68.1620902,103.363866 C68.3297131,94.3517714 68.5272541,85.3400889 68.6178279,76.327581 C68.7317623,64.9371048 68.7407787,53.5462159 68.8215164,42.155327 C68.8391393,39.6708825 68.9907787,37.1868508 69.0452869,34.7019937 C69.2125,27.0291048 69.4411885,19.3566286 69.4917125,11.6829143 C69.5239754,6.59764444 66.5018443,3.0480254 61.5178279,2.11243809 C59.6088115,1.75462857 57.6436475,1.5383746 55.7043033,1.53684361 C48.5215164,1.53300952 41.3375,1.61348571 34.155123,1.7220254 C26.207582,1.84212063 18.2481557,1.5912 10.3231557,2.50780317 C8.16536885,2.75707302 5.95758197,2.85735873 4.67520492,4.92827936 C3.97069672,6.06608889 3.27520492,7.37310476 3.12602459,8.66815238 C2.56618852,13.521073 1.8522541,18.4041206 1.88790984,23.2706603 C1.98995902,37.1781841 1.73872951,51.091073 2.55758197,64.9952952 C3.00635246,72.619073 2.8682377,80.2771048 3.03504098,90.351073 M1.07438525,89.145581 C0.925204918,80.9324699 1.02315574,74.1312 0.632172131,67.3584064 C-0.160040984,53.6403111 0.018647541,39.9168508 0.0141393443,26.1938032 C0.0125,20.5179619 0.231352459,14.8474857 1.35881148,9.25666032 C1.93913934,6.38056508 3.06905738,3.88539048 5.91864754,2.5779619 C6.82602459,2.16154921 7.69651639,1.7476127 8.75840164,2.18631111 C9.15553279,2.34973968 9.70102459,2.17929524 10.1739754,2.12193016 C13.6739754,1.70139048 17.1641393,1.01589841 20.6735656,0.8896127 C32.1202869,0.47815238 43.5735656,0.242914285 55.0260246,0.008088888 C57.0411885,-0.032768254 59.0956967,0.073295238 61.0752049,0.431930158 C65.1370902,1.16859682 68.7215164,3.05339048 71.8489754,5.74253333 C73.4411885,7.11186667 74.1604508,9.08085079 74.2313525,11.0997714 C74.4637295,17.7305968 74.6002049,24.3672 74.6346311,31.0021524 C74.657582,35.3400254 74.3178279,39.6795492 74.3571721,44.0170095 C74.4268443,51.6944381 74.7534836,59.3693905 74.8010246,67.0472318 C74.8477459,74.5405968 74.6637295,82.0352 74.6120902,89.5293905 C74.5571721,97.5444064 74.5625,105.559835 74.4920082,113.574851 C74.4645492,116.686597 74.530123,119.859009 73.1502049,122.743359 C72.4133197,124.284787 71.4354508,125.748628 70.3567623,127.074628 C69.3362705,128.328819 67.7170082,128.479041 66.2034836,128.5752 C61.3915984,128.880597 56.5793033,129.265232 51.7616803,129.373359 C46.792418,129.4852 41.8165984,129.291644 36.8440574,129.263993 C32.9030738,129.241708 28.9625,129.287105 25.0219262,129.268946 C20.9452869,129.250374 16.9456967,128.663105 13.0842213,127.330089 C9.10184426,125.95539 5.91741803,123.309993 3.29651639,120.148311 C2.21413934,118.842946 1.82561475,116.75139 1.61618852,114.958628 C1.23954918,111.728851 1.13790984,108.455739 1.09569672,105.198311 C1.02028689,99.3738984 1.07438525,93.5482476 1.07438525,89.145581" id="Fill-3" fill="#02374E" fill-rule="nonzero" mask="url(#mask-2)"></path>
                    </g>
                    <path d="M13.4399585,16.3314571 L13.4399585,102.419419 C29.4238949,98.8631185 45.2572857,99.367793 61.1535057,100.298545 C61.1265789,99.9899492 61.1135235,99.6978998 61.0735412,99.4099871 C60.2991905,93.7994127 60.0768401,88.1594679 60.1719,82.5013217 C60.3950664,69.2271403 60.705133,55.9541999 60.8054967,42.6791911 C60.8581265,35.7320565 60.5537716,28.7824399 60.3860908,21.8348916 C60.3379488,19.8405999 60.2037226,17.8492038 60.0951993,15.5690676 C44.4005225,14.180799 28.7886662,14.2416081 13.4399585,16.3314571 M11.9683658,61.7029393 C11.9683658,49.7239513 11.9512306,37.745377 11.9810133,25.7668027 C11.987541,23.0163265 12.1527739,20.2670912 12.2502817,17.5170286 C12.2755766,16.8059339 12.3506454,16.3823383 13.2963487,16.0944256 C17.3047763,14.8736923 21.4347826,14.6519665 25.5443898,14.2656009 C35.2747711,13.3501543 45.0333033,13.5205854 54.7861237,13.6202793 C56.4959781,13.638067 58.2062405,13.9826522 59.9091593,14.2234068 C60.6292483,14.3247553 61.240406,14.6337651 61.309763,15.5227369 C61.6712355,20.1520916 62.2758655,24.7764823 62.3590939,29.4103874 C62.5410541,39.5605507 62.5014798,49.7160916 62.4741449,59.8691506 C62.4472181,69.7264371 62.2277235,79.5841374 62.2889209,89.4405966 C62.3129919,93.2198643 62.8564245,96.9983047 63.2113692,100.772194 C63.3668105,102.423969 63.2342162,102.647764 61.6569561,102.588609 C53.9619991,102.299869 46.2690821,101.965626 38.5729012,101.726112 C31.8452707,101.51721 25.1723098,102.199348 18.5181161,103.150784 C17.2190999,103.336107 15.8849973,103.259164 14.5696619,103.340243 C14.0727393,103.371268 13.568065,103.461034 13.0919495,103.606645 C12.3065833,103.846573 11.8773858,103.566933 11.7741662,102.774346 C11.7219444,102.37102 11.7435675,101.957352 11.7435675,101.548235 C11.7423436,88.2661941 11.7427516,74.9845667 11.7427516,61.7025256 C11.8178203,61.7025256 11.8928891,61.7029393 11.9683658,61.7029393" id="Fill-6" fill="#02374E" fill-rule="nonzero"></path>
                    <path d="M31.9414723,113.145221 C31.9877407,113.383004 32.0091253,113.728565 32.122269,114.034286 C32.6631039,115.49621 34.2303975,116.557217 35.601342,116.418825 C37.2957765,116.248141 38.8490729,114.972417 39.1706189,113.421167 C39.2584899,112.997184 39.2981486,112.485552 39.1585657,112.098054 C38.783364,111.056758 38.3972755,109.991138 37.8350561,109.063492 C37.024387,107.725701 35.9240544,107.452691 34.5639966,108.129554 C32.6308327,109.092009 32.1494858,110.986723 31.9414723,113.145221 M36.1180706,106.956154 C37.8128939,107.099162 39.2635445,108.967456 40.4851859,111.063887 C41.4688755,112.752271 41.1698805,114.515723 40.143033,116.054812 C38.8708463,117.96043 37.0558806,118.897303 34.8793216,118.685521 C32.7148157,118.475416 31.1829038,117.163626 30.3407411,115.011419 C28.9892371,111.558744 31.8100545,106.95364 36.1180706,106.956154" id="Fill-8" fill="#02374E" fill-rule="nonzero"></path>
                    <path d="M30.2707766,7.2951068 C32.7116979,9.43402291 42.1675372,9.2268995 43.927638,6.98972209 C43.5227056,6.85272709 43.1671256,6.66598984 42.7937463,6.61706305 C40.069251,6.2582666 37.3483965,5.81711006 34.6109563,5.62996509 C33.0146893,5.52069527 31.5535346,6.22320241 30.2707766,7.2951068 M38.0712878,4.39334051 C40.0275847,4.6966866 41.9907585,4.9633376 43.9369421,5.32091088 C44.7807873,5.47584571 45.7014928,5.93331118 45.6501177,6.87433642 C45.6129012,7.55360333 45.0914647,8.36741892 44.5429249,8.82569984 C43.078534,10.0484618 41.2221555,10.3550697 39.4090615,10.2551775 C36.9224286,10.1185902 34.4507633,9.70923609 31.973839,9.40629773 C31.7246498,9.37571849 31.4762697,9.29376611 31.241239,9.20080522 C30.4046754,8.8689185 29.4083232,8.64100121 29.3504757,7.50426882 C29.2906056,6.33736491 30.2566182,6.04788141 31.1057222,5.71354836 C33.3342663,4.83612795 35.6433115,4.49078637 38.0340713,4.69709432 C38.0466116,4.59597896 38.0587475,4.4948636 38.0712878,4.39334051" id="Fill-10" fill="#02374E" fill-rule="nonzero"></path>
                </g>
            </g>
        </g>
    </g>
</svg>