<?xml version="1.0" encoding="UTF-8"?>
<svg width="114px" height="130px" viewBox="0 0 114 130" version="1.1" xmlns="http://www.w3.org/2000/svg" xmlns:xlink="http://www.w3.org/1999/xlink">
    <title>Group-14</title>
    <defs>
        <polygon id="path-1" points="-1.83593036e-15 -2.55351296e-15 113.953538 -2.55351296e-15 113.953538 129.363651 -1.83593036e-15 129.363651"></polygon>
    </defs>
    <g id="Test" stroke="none" stroke-width="1" fill="none" fill-rule="evenodd">
        <g id="Franchise---1" transform="translate(-367.000000, -2403.000000)">
            <g id="How-It-Works" transform="translate(324.490287, 2318.000000)">
                <g id="Group-14" transform="translate(42.509721, 85.443686)">
                    <path d="M10.7792214,45.3351266 C10.8459424,46.3218843 10.9316633,47.3166283 11.1291749,48.2829764 C12.7645005,56.2861846 16.1001052,63.4242051 22.1650819,69.0119867 C31.4768493,77.5919867 42.0408493,82.5612699 55.1101982,80.3659116 C66.4076865,78.4682665 74.8282214,72.7225327 79.9546865,62.3340686 C80.6634307,60.8987443 81.3452214,59.4443416 81.9351052,57.9575498 C85.7841517,48.2661163 86.742547,38.4726351 82.4154075,28.6875839 C74.8445703,11.5661846 60.6034075,4.96236205 43.4715935,4.21120164 C37.1035005,3.93167946 31.2241052,6.34400028 26.2540586,10.29813 C15.8778493,18.5520208 11.7650121,29.9693928 10.7677331,42.7901437 C10.7677331,43.638915 10.7226633,44.4903484 10.7792214,45.3351266 Z" id="Fill-1" fill="#E0E9EF" fill-rule="nonzero"></path>
                    <g id="Fill-3-Clipped" transform="translate(0.000000, 0.000000)">
                        <mask id="mask-2" fill="white">
                            <use xlink:href="#path-1"></use>
                        </mask>
                        <g id="path-30"></g>
                        <path d="M67.3250331,72.1106451 C65.2451959,73.5588362 63.2630098,74.9103038 61.3298703,76.3287679 C61.1283819,76.4769591 61.0435447,77.1961741 61.2034982,77.3638874 C62.3753121,78.5946724 63.6235679,79.7535802 64.7944982,80.8836485 C66.8809633,79.2038533 68.7690331,77.6842287 70.6350098,76.1814642 C69.4349168,74.7057645 68.3541261,73.3769249 67.3250331,72.1106451 M2.85228891,36.9618396 C2.73475403,48.1755598 5.19812612,54.971942 9.2968238,61.0721809 C14.7348005,69.1659011 22.5186145,74.3650137 31.6112191,77.5391434 C36.8304749,79.3618055 42.2317772,79.1896553 47.6754982,78.4371638 C54.8292191,77.4481877 60.8601726,74.264297 66.0904749,69.4396553 C70.0535214,65.78457 72.4802191,61.0730683 74.4005447,56.1290751 C77.2037075,48.9116348 78.6671493,41.5650819 77.2470098,33.6905427 C75.1521493,22.0752867 64.9738935,9.12542321 53.6591726,5.47743686 C50.9488005,4.60381911 48.2026377,3.84289761 45.4940331,2.96306826 C42.3170563,1.93149829 39.0185679,1.80016723 35.7483586,1.7535802 C30.6037772,1.67948464 25.8904517,3.45156655 21.4590331,5.90914334 C16.3029633,8.76914334 12.4605447,13.0174369 9.55310287,18.105628 C5.56487031,25.0843652 2.93314938,32.4952526 2.85228891,36.9618396 M75.4274284,74.2168226 C71.3260796,77.6309864 67.356847,80.949314 63.36994,84.2459011 C62.1490796,85.254843 62.055847,85.4030342 63.0906842,86.5925563 C64.7529633,88.5017372 66.5270331,90.3124198 68.1990331,92.2145017 C75.7349633,100.790065 83.2298005,109.40201 90.78694,117.959382 C93.4703586,120.998187 96.2947307,123.910986 99.0364749,126.898324 C99.6846842,127.605559 100.360731,127.733341 101.287754,127.470235 C104.249103,126.62945 107.00101,125.338324 109.4878,123.553819 C110.280056,122.985457 111.010893,122.043955 111.29987,121.124194 C111.700196,119.851259 111.784149,118.433682 111.753661,117.084433 C111.735986,116.313751 111.395312,115.408187 110.900428,114.814979 C108.63501,112.100065 106.263103,109.474331 103.930079,106.816208 C96.3451028,98.1745359 88.7557075,89.5359693 81.1778005,80.8880854 C79.2486377,78.6869591 77.3543819,76.4547748 75.4274284,74.2168226 M63.7234284,82.0993481 C62.5034517,80.5695188 61.346661,79.0836144 60.133754,77.6447406 C59.9839633,77.4672662 59.4603586,77.4024881 59.2363354,77.522727 C51.8793586,81.4662082 43.980661,82.3105427 35.8561726,81.4586656 C33.4171028,81.2031024 30.9453354,80.5517714 28.6604749,79.6444335 C20.6535214,76.4654232 13.6040796,71.8218055 8.33180054,64.8670273 C3.09707961,57.9606109 -0.156780853,50.1969932 0.0058237982,41.3986997 C0.259451705,27.6812594 5.35852147,16.0495871 15.8893819,7.13948464 C20.8130331,2.97416041 26.7529633,1.03303413 33.1749633,0.592010239 C34.0463121,0.532112628 34.8999865,0.165627986 35.7686842,0.137232082 C37.7999168,0.071122867 39.8850563,-0.162699659 41.8566377,0.190030717 C45.6005214,0.859552903 49.3156842,1.76467235 52.9791493,2.80023549 C60.8535447,5.02709556 66.9441493,9.82289757 71.8576377,16.2962765 C77.5125679,23.7466519 80.4522656,32.1332048 80.22294,41.4790069 C80.0859633,47.0698942 78.6150098,52.4606792 76.4414982,57.6269591 C74.3537075,62.5891434 71.8602889,67.3015325 67.9860563,71.1744676 C69.1494749,72.3724198 70.2059633,73.5255598 71.3508238,74.5824198 C71.5660098,74.7811912 72.2380796,74.7456963 72.5195447,74.5531365 C73.2419865,74.057983 73.8194982,73.3511912 74.5370796,72.8453891 C75.3341959,72.2836826 75.83394,72.5490069 76.1167307,73.4740922 C76.2258703,73.8294847 76.438847,74.1862082 76.6938005,74.4577441 C85.2495447,83.5821468 93.8295912,92.6843652 102.375172,101.818972 C105.671893,105.342727 108.889521,108.94102 112.152661,112.49672 C114.227638,114.758631 114.461382,118.336959 113.101777,121.113102 C111.114731,125.169723 107.491917,126.88457 103.63801,128.381566 C102.96594,128.642897 102.263382,128.824809 101.589544,129.081259 C100.061149,129.662931 98.7501493,129.343034 97.6543354,128.149075 C94.0142889,124.182078 90.2805679,120.29672 86.768661,116.218358 C80.1018703,108.476925 73.5658703,100.621464 66.9711028,92.8170273 C65.6212191,91.219314 64.2470331,89.642454 62.8967075,88.045628 C62.6117075,87.7088703 62.3624982,87.3383925 62.125661,86.9648089 C60.8897772,85.0170273 60.9246842,84.8284608 62.6148005,83.2875393 C62.9948005,82.9414642 63.3204517,82.5346041 63.7234284,82.0993481" id="Fill-3" fill="#02374E" fill-rule="nonzero" mask="url(#mask-2)"></path>
                    </g>
                    <path d="M74.5048238,82.2829457 C76.2766842,84.1411027 78.0684284,85.9801812 79.8164284,87.8609662 C86.9887075,95.5802153 94.1773354,103.284379 101.293498,111.056427 C103.381289,113.336085 105.256544,115.813184 107.203824,118.220625 C107.536986,118.632809 107.740242,119.15059 108.003591,119.619567 C107.894893,119.754003 107.786196,119.88844 107.67794,120.023321 C107.194986,119.748679 106.608638,119.57298 106.246312,119.185642 C103.829335,116.602502 101.465382,113.969225 99.0749168,111.360795 C95.3522424,107.29885 91.5274982,103.326085 87.9192656,99.1638672 C83.3879865,93.9363587 79.0312424,88.5566658 74.6029168,83.239089 C74.4314749,83.0327751 74.2958238,82.7962904 74.1438238,82.5740037 L74.5048238,82.2829457 Z" id="Fill-6" fill="#02374E" fill-rule="nonzero"></path>
                    <path d="M69.2538424,86.0048945 C69.5940749,86.3616181 69.9449121,86.7085805 70.2723307,87.0768399 C76.8984703,94.5352017 83.4786563,102.034382 90.1657726,109.437283 C92.9393307,112.508034 95.9528191,115.360491 98.828447,118.340287 C99.7749121,119.321276 100.678958,120.35329 101.499051,121.440765 C101.738098,121.757556 101.617028,122.347659 101.661656,122.812642 C101.252051,122.668444 100.734633,122.637386 100.449191,122.363188 C91.3769121,113.665167 83.0420982,104.290526 75.2140982,94.4580003 C73.311447,92.0678638 71.5117493,89.5943143 69.6727261,87.1527102 C69.4425168,86.8470105 69.2604703,86.5049286 69.0558889,86.1797068 C69.1217261,86.1215839 69.1880052,86.0630174 69.2538424,86.0048945" id="Fill-8" fill="#02374E" fill-rule="nonzero"></path>
                    <path d="M8.2689238,40.9369559 C8.2689238,41.6619389 8.23004008,42.3891402 8.27864473,43.1110174 C8.33520287,43.9540208 8.40855171,44.8036795 8.5773424,45.6289355 C9.97450519,52.4661368 12.8245052,58.5641573 18.0053191,63.3373314 C25.9601331,70.6670242 34.9846912,74.9122119 46.1491796,73.0371948 C55.8002959,71.4159662 62.9942261,66.5074679 67.373947,57.6328604 C67.978854,56.4065123 68.5612261,55.1641914 69.0658307,53.8939184 C72.3537145,45.6147375 73.1724819,37.2485942 69.4758772,28.8891061 C63.0079238,14.2629969 50.8421796,8.62152929 36.2068772,7.97995932 C30.7666912,7.74125625 25.7440633,9.80217777 21.4982261,13.1795157 C12.6345052,20.2305737 9.12083077,29.9841232 8.2689238,40.9369559 M40.3758307,76.0280822 C35.9002261,75.9948058 31.6884121,75.0226897 27.6873656,73.0367512 C22.7186447,70.569857 18.0972261,67.6415293 14.4465749,63.3586283 C5.90585403,53.3397546 3.54145868,42.0776727 7.83590054,29.5572972 C9.54545868,24.5724849 11.9633191,19.9364099 15.5185284,15.9809491 C20.4859238,10.4543962 26.6693191,7.44265557 34.0691563,6.92931086 C34.820761,6.87651222 35.561761,6.6551129 36.3054121,6.50425966 C39.1470168,5.9261368 41.8905284,6.5761368 44.624761,7.20883304 C49.2793191,8.28610267 53.9617145,9.33408901 58.0202028,12.04856 C66.4217377,17.6678433 71.775761,25.4265805 73.4296447,35.4445669 C75.2293424,46.3463757 71.8270168,56.0772972 65.3793889,64.6466488 C60.6735749,70.9012904 54.0134121,74.339857 46.2278307,75.396717 C44.2845284,75.6602665 42.3270865,75.8204372 40.3758307,76.0280822" id="Fill-10" fill="#02374E" fill-rule="nonzero"></path>
                    <path d="M21.0733772,56.5006181 C20.3001214,53.8464884 19.3881214,51.162188 18.7500749,48.4131095 C17.939261,44.9177512 17.5574935,41.3673757 18.3616796,37.786386 C18.6780517,36.3772392 18.9599586,34.9552256 19.1605633,33.5256692 C19.3381912,32.2589457 18.4580052,30.8950549 17.4426098,30.6647819 C16.4369354,30.4362836 15.4608656,31.1271027 14.9496331,32.4475123 C14.8343075,32.7447819 14.7379819,33.0558058 14.6858424,33.3690481 C13.6682377,39.5180925 14.386261,45.464816 16.8460982,51.1799355 C17.7824005,53.3557716 19.291354,55.1189798 21.0733772,56.5006181 M12.5224935,37.4309935 C12.8287028,35.7130413 13.0620052,33.665874 13.5798656,31.6936897 C14.1335168,29.5844065 16.0193772,28.4365908 17.8164238,28.839014 C19.7610517,29.2751573 21.2037261,31.4647477 20.8838191,33.5607204 C20.7570052,34.3935191 20.6200284,35.2431778 20.3354703,36.0293894 C19.0589354,39.5606863 18.8799819,43.1341334 19.4729586,46.8402426 C19.9324935,49.7135532 20.4428424,52.5393894 21.6349819,55.2099355 C22.3127959,56.7291163 23.0175633,58.2021539 24.5216563,59.1188092 C24.7938424,59.2851914 24.893261,59.7373075 25.0722145,60.0576488 C24.7103307,60.1503791 24.3228191,60.3731095 23.9931912,60.3065566 C23.4156796,60.1903109 22.8319819,59.9671368 22.3229586,59.6663177 C18.4792145,57.3915396 15.7516098,54.2138604 14.4096796,49.8728365 C13.4274238,46.695601 12.8808424,43.4664542 12.8238424,40.1428024 C12.8105865,39.346386 12.6519586,38.5526317 12.5224935,37.4309935" id="Fill-12" fill="#02374E" fill-rule="nonzero"></path>
                </g>
            </g>
        </g>
    </g>
</svg>