<?xml version="1.0" encoding="UTF-8"?>
<svg width="127px" height="110px" viewBox="0 0 127 110" version="1.1" xmlns="http://www.w3.org/2000/svg" xmlns:xlink="http://www.w3.org/1999/xlink">
    <title>Group-13</title>
    <defs>
        <polygon id="path-1" points="-3.14596338e-15 6.38378239e-16 78.7898243 6.38378239e-16 78.7898243 76.8379219 -3.14596338e-15 76.8379219"></polygon>
        <polygon id="path-3" points="-2.22044605e-16 2.49800181e-16 63.499759 2.49800181e-16 63.499759 62.6654752 -2.22044605e-16 62.6654752"></polygon>
    </defs>
    <g id="Test" stroke="none" stroke-width="1" fill="none" fill-rule="evenodd">
        <g id="Franchise---1" transform="translate(-659.000000, -4188.000000)">
            <g id="Training-&amp;-Support" transform="translate(0.000000, 4156.000000)">
                <g id="Group-13" transform="translate(659.000007, 32.240481)">
                    <path d="M51.855983,84.4922135 C49.0431273,86.6316899 45.8653055,88.0381015 42.2650828,88.3231028 C36.9723482,88.7422013 29.8409701,85.7509393 26.9641362,80.386693 C24.0145999,74.8872768 23.6805324,69.4053825 26.5835391,63.8909473 C29.382945,58.5735457 34.0758847,55.9180632 39.8055607,55.1571062 C43.1178819,55.5508156 46.0826857,56.176245 48.6890666,57.9466859 C49.4484432,58.4623344 50.2732519,58.8882271 51.0119082,59.4292647 C52.3532674,60.4112139 53.3736456,61.6620728 54.159922,63.1271296 C55.5645323,65.7443497 57.0116736,68.378019 57.3315641,71.3503286 C57.9026414,76.6487778 56.2228526,81.1712512 51.855983,84.4922135 M79.8914816,68.3433325 C79.7460768,67.9535566 79.7529835,67.5115722 79.6508366,67.1024863 C79.1237443,64.9984116 78.6050126,62.8921913 78.02303,60.8027778 C77.9408762,60.5077639 77.5540995,60.1283582 77.2614723,60.082944 C74.7594193,59.6963864 72.247915,59.3674012 69.7364107,59.0427071 C67.8785009,58.8024049 67.8861347,58.8138479 67.3841246,57.0770207 C66.942094,55.5483124 66.2437875,54.1969701 64.80428,53.3019159 C64.5967147,53.1731825 64.4876611,52.5931674 64.5938066,52.3199666 C65.6396306,49.6247914 66.6890897,46.9285433 67.8563267,44.2837886 C68.2216562,43.4552466 68.2209292,43.0733377 67.351045,42.6510209 C64.5418244,41.287878 61.7544145,39.878248 58.995722,38.4196279 C58.2697886,38.035931 57.8502957,38.1095951 57.3013926,38.6878223 C56.0432776,40.0130604 54.7171859,41.2767926 53.4012725,42.5480342 C52.9076232,43.0254203 52.1853249,43.3619149 51.885791,43.9265536 C51.3430676,44.9485532 50.6840204,44.7250578 49.8355834,44.4922651 C47.7937366,43.9319175 45.8558542,42.8673644 43.606442,43.213514 C43.3774294,43.2489157 42.954665,42.914209 42.8350696,42.6556696 C41.7165432,40.2344102 40.6278248,37.8002775 39.572913,35.3521987 C39.3257248,34.7789778 39.0370963,34.6745608 38.4402096,34.8161674 C35.8458246,35.4330146 33.2488949,36.0473587 30.6308816,36.552637 C29.8064364,36.7117657 29.6450371,37.0425388 29.6617586,37.7709549 C29.7206476,40.3363241 29.7217381,42.9024085 29.7551812,45.4681352 C29.7631785,46.0588782 29.6424925,46.4729704 29.0081641,46.7837183 C26.9521403,47.7903414 24.9092029,48.8327238 22.9320612,49.9791656 C22.2631992,50.3671536 21.8124443,50.5069723 21.0730609,50.1636834 C18.6062686,49.0175992 16.102398,47.9480398 13.5883491,46.9056574 C13.29863,46.7855063 12.6588489,46.8920689 12.5174428,47.106982 C10.8732781,49.6086997 9.29672654,52.1526133 7.69509272,54.6818656 C7.27051072,55.3523517 7.54532578,55.6806217 8.1280355,56.1655172 C10.3625437,58.0249987 12.5108996,59.9856788 14.6843377,61.9159635 C15.1561763,62.335062 15.3139405,62.8278246 14.8915396,63.3781596 C13.4240417,65.2927102 13.025269,67.5033476 13.1372307,69.8198323 C13.1808522,70.7245415 12.9231222,71.1021593 11.9958031,71.3821543 C9.23602004,72.215345 6.52422061,73.2026581 3.99999337,74.0594499 C4.86078976,77.4276144 5.72194965,80.6452325 6.48059917,83.8864516 C6.65181332,84.6166557 6.8939123,84.8576731 7.62893354,84.8022462 C9.99503307,84.6223772 12.3669488,84.5161722 14.7308673,84.3152051 C15.5029667,84.2494081 15.9995241,84.4214101 16.2994215,85.1451775 C17.1838462,87.2832235 18.4695881,89.1341227 20.4634513,90.5426799 C20.120296,91.4777845 19.802223,92.3921487 19.4514339,93.2939972 C18.6869682,95.261114 17.9061445,97.2225093 17.1307734,99.185335 C16.8744975,99.8343657 17.0464386,100.287436 17.7014872,100.607123 C18.8181961,101.153167 19.9647129,101.66524 21.0061747,102.331077 C22.7644822,103.454275 24.4508143,104.68654 26.3472563,105.997474 C28.232066,104.146932 30.1634052,102.342878 31.975876,100.4294 C32.7981401,99.56188 33.5771463,99.4209885 34.6927646,99.7245846 C36.3053037,100.162993 37.9716427,100.700097 39.6089007,100.680787 C41.3966526,100.659689 41.5635046,100.804157 42.2363653,102.573525 C43.029912,104.660078 43.9201528,106.710871 44.7609561,108.759519 C48.1332568,108.143029 51.4844738,107.530116 54.9116648,106.902898 C54.8654988,106.218109 54.8575015,105.604122 54.7778924,104.999433 C54.4943531,102.84458 54.1962732,100.69223 53.8836529,98.5413107 C53.7404292,97.5532824 54.1501072,97.140263 55.1323166,96.8402428 C56.3366318,96.4722801 57.464246,95.8296862 58.5827724,95.2289307 C59.3017991,94.8427307 59.9659355,94.3453194 60.6169855,93.8493385 C61.4548806,93.2113933 62.3545728,93.1219952 63.3226052,93.4438285 C65.7879435,94.2641459 68.2627331,95.0608622 70.7077147,95.9362488 C71.4729075,96.2105223 71.8945814,96.0374475 72.2151989,95.3644583 C72.5372706,94.6896811 72.8557071,94.0113279 73.2108583,93.3533576 C74.3057564,91.3250925 75.4170125,89.3057672 76.5082755,87.3086126 C74.5529445,85.4898968 72.6808578,83.5585392 70.5895733,81.8935882 C69.6953338,81.1819789 69.6615272,80.6062549 69.8654574,79.7015457 C70.3471108,77.5592085 70.8865626,75.4197321 71.1766452,73.2498603 C71.3434972,72.0040078 71.8000682,71.2398324 73.0189239,70.9569767 C75.006244,70.4953247 76.9939275,70.0361758 78.9910624,69.6206532 C79.7548011,69.4618821 80.224095,69.2333805 79.8914816,68.3433325" id="Fill-1" fill="#E0E9EF" fill-rule="nonzero"></path>
                    <g id="Fill-3-Clipped" transform="translate(0.000000, 32.807311)">
                        <mask id="mask-2" fill="white">
                            <use xlink:href="#path-1"></use>
                        </mask>
                        <g id="path-42"></g>
                        <path d="M73.7649633,53.6980039 C71.7976439,51.8795674 69.9144448,49.9481267 67.8103383,48.283104 C66.9106161,47.5714641 66.8766022,46.9957153 67.081417,46.0906095 C67.5660235,43.9481802 68.1087828,41.8086117 68.4010096,39.6390041 C68.5685189,38.3927403 69.028255,37.6285321 70.2542179,37.3456641 C72.2533568,36.8843499 74.2539587,36.4251812 76.2633383,36.0092831 C77.0317596,35.8505052 77.5039309,35.6219937 77.1692781,34.7319075 C77.0222503,34.3421148 77.0299309,33.9001113 76.926792,33.4913654 C76.3961022,31.3872001 75.8749216,29.2805315 75.289005,27.1910281 C75.2063476,26.8963592 74.8175652,26.5165795 74.5227781,26.4715209 C72.0053846,26.0849467 69.4784818,25.7555897 66.951579,25.4308817 C65.0826439,25.1905691 65.0895929,25.2023702 64.584505,23.4654683 C64.1404957,21.9363366 63.4379078,20.584936 61.9892087,19.6898433 C61.7803707,19.5611044 61.6706485,18.9814219 61.7774448,18.7078518 C62.8296809,16.0129181 63.8852087,13.316554 65.0599679,10.6713278 C65.4279031,9.84275013 65.4268059,9.46082482 64.551954,9.03884741 C61.7255096,7.67564582 58.9210096,6.26595518 56.1446716,4.80691465 C55.4146531,4.4232013 54.992954,4.49686854 54.4403198,5.07512063 C53.1744911,6.40041578 51.8406346,7.66420236 50.5166531,8.93585631 C50.0196115,9.41290535 49.2928846,9.74941445 48.9915142,10.3140774 C48.4454633,11.336121 47.7827411,11.112616 46.9291022,10.8798132 C44.8747365,10.3194416 42.9246068,9.25520023 40.6614031,9.60100714 C40.4309865,9.63641033 40.00563,9.30204688 39.8853013,9.04313871 C38.7602828,6.62213273 37.6648892,4.18789525 36.6031439,1.73935346 C36.3544402,1.16646548 36.064042,1.06204396 35.4634957,1.20365671 C32.8535698,1.82017286 30.2403522,2.43490097 27.6062874,2.94020103 C26.7767874,3.09933658 26.6143985,3.42976635 26.6312226,4.1585714 C26.6908383,6.72369339 26.6915698,9.28988821 26.7255837,11.856083 C26.7328985,12.4464938 26.6114726,12.8609614 25.9736207,13.1713651 C23.9053568,14.1780316 21.8498939,15.2204588 19.8602642,16.3673076 C19.1873013,16.7553123 18.7337828,16.895137 17.9898661,16.5514757 C15.5083152,15.4053422 12.9883615,14.3360943 10.4592642,13.2933095 C10.1677689,13.1731532 9.52406513,13.280078 9.38179198,13.4950004 C7.72754661,15.9964681 6.14096328,18.5408489 4.52987531,21.0698525 C4.10269013,21.7403674 4.37882439,22.0686515 4.96547254,22.5535679 C7.21368087,24.413487 9.37520865,26.3742515 11.5623383,28.3046194 C12.0370698,28.7233783 12.1950698,29.2161621 11.7708105,29.7665208 C10.2943152,31.6815115 9.8927318,33.8918863 10.0057457,36.2084708 C10.0496346,37.1135766 9.79032439,37.490853 8.85695402,37.77086 C6.08025031,38.6040866 3.35219013,39.5914422 0.812120683,40.4486285 C1.67782902,43.8165804 2.54463457,47.034337 3.3079355,50.2756956 C3.47983365,51.0059311 3.72414846,51.2473165 4.46367624,51.1915297 C6.84391698,51.0116528 9.23074106,50.9058009 11.6091531,50.7044676 C12.3856207,50.6386677 12.8852226,50.8110348 13.1865929,51.5348333 C14.0768059,53.6726138 15.3707966,55.5235926 17.3761531,56.9322105 C17.0316253,57.8673553 16.7112365,58.7817589 16.3586624,59.6836462 C15.5891439,61.6508477 14.8038985,63.6123274 14.0234078,65.5755952 C13.7655605,66.2246536 13.9385559,66.6773853 14.5976207,66.9974445 C15.721542,67.5435119 16.8743568,68.0552489 17.9225698,68.7211149 C19.6916578,69.8443616 21.3886948,71.0770362 23.2967642,72.3876695 C25.1927642,70.5374058 27.1359448,68.732916 28.9595281,66.8197133 C29.7871994,65.9517988 30.5702503,65.8109012 31.6930744,66.1145104 C33.3151346,66.5532954 34.9920559,67.0904226 36.6393522,67.0711117 C38.4376994,67.0500128 38.6059402,67.1944865 39.283292,68.9639307 C40.0813383,71.0502156 40.9774031,73.1010974 41.8233615,75.1498334 C45.2159726,74.5333173 48.5873707,73.9203772 52.0359402,73.2934905 C51.9898568,72.6083136 51.981079,71.9943007 51.9013476,71.3895856 C51.6160698,69.2349976 51.3161624,67.0821976 51.0019911,64.9311856 C50.8571578,63.9431148 51.2697133,63.5304352 52.257579,63.2300445 C53.4700096,62.8620659 54.6041716,62.2194443 55.7291902,61.6186629 C56.4533568,61.2324463 57.1211994,60.7350136 57.7758753,60.239369 C58.6196392,59.6010388 59.5244818,59.5116368 60.4988152,59.8338416 C62.9792689,60.6538366 65.4688661,61.4505872 67.9288383,62.3260115 C68.6987226,62.6002968 69.1229818,62.4275722 69.4455652,61.7541964 C69.7692457,61.0793901 70.0900003,60.4013654 70.447329,59.7430091 C71.5485744,57.7146567 72.6673753,55.6956021 73.7649633,53.6980039 M52.3709587,65.1085592 C52.6474587,66.714219 53.0003985,68.625276 53.2962828,70.5442004 C53.4396531,71.472193 53.5175559,72.4148477 53.5475466,73.353211 C53.5742457,74.1875104 53.2395929,74.6820822 52.2513615,74.8515884 C48.9845652,75.4126753 45.7371531,76.0835479 42.4857179,76.7275998 C41.0765189,77.0068917 40.7641763,76.8127105 40.2839587,75.4884882 C39.4753059,73.2584449 38.6286161,71.0412754 37.7585189,68.8337614 C37.6700096,68.6084684 37.3316994,68.3774536 37.0749494,68.3309646 C35.0944633,67.9737142 33.1088568,67.6372051 31.1159355,67.3561253 C30.7333707,67.3021265 30.1843939,67.3897404 29.9269124,67.6311258 C27.9888522,69.4463439 26.0983383,71.3105542 24.2059957,73.1719037 C23.3274865,74.0365998 23.0326994,73.9300326 22.0393476,73.2495047 C19.8262503,71.7325317 17.5151346,70.3518073 15.2347411,68.9303156 C14.5102087,68.4782991 13.6613244,68.170041 13.053829,67.6060932 C12.7140559,67.2903254 12.5363059,66.528978 12.661755,66.0658757 C13.0077457,64.7870696 13.5157596,63.5447395 14.0281624,62.3159985 C14.5665328,61.0246761 15.2098707,59.7759091 15.7453152,58.4842291 C15.8455281,58.2432013 15.7628707,57.7650794 15.5767087,57.6016526 C13.9586716,56.1815913 12.8223152,54.4582785 11.9719679,52.5182552 C11.8556624,52.2532677 11.4036068,51.9686118 11.1051624,51.9668237 C9.34668087,51.9564531 7.58819939,52.0365573 5.82935217,52.0658812 C4.83709754,52.0823311 3.83972254,52.1102245 2.85478272,52.0215378 C2.60242161,51.9982932 2.24399568,51.583468 2.18108828,51.297024 C1.50775957,48.2251715 0.904287349,45.1390147 0.237541979,42.066447 C-0.180865428,40.1396552 -0.225485799,40.1214172 1.62296791,39.3636459 C3.76255124,38.4871488 5.91091235,37.6278168 8.08268087,36.8335695 C8.6521392,36.6257993 8.77905124,36.3422162 8.74357439,35.8354857 C8.61300494,33.9887981 8.93924568,32.2075528 9.6458568,30.5014051 C9.91284754,29.8555651 10.3082133,29.2605055 10.6421346,28.647923 C8.5120605,26.7697659 6.30883828,24.8508416 4.1374355,22.8990172 C3.51457902,22.3393608 3.39205587,21.5415374 3.71939383,20.8273942 C4.58400494,18.942085 5.49396791,17.0732257 6.48110217,15.2472794 C6.99021328,14.3060552 7.71181976,13.4764047 8.32004661,12.5848881 C8.80977346,11.8653808 9.43372717,11.5882346 10.278954,11.945485 C12.7363661,12.9839786 15.188292,14.0357036 17.6515559,15.0606081 C18.4788615,15.4046269 19.2176578,15.5548223 20.107505,14.9029029 C21.6081392,13.8029008 23.2890837,12.9417808 24.8599402,11.9293926 C25.1159587,11.7645354 25.33138,11.3375515 25.3339402,11.0300086 C25.3525929,8.65871013 25.3065096,6.28705406 25.2962689,3.91539798 C25.288954,2.2704013 25.4246439,2.30044037 27.0682828,2.02758548 C29.6138383,1.60453525 32.1301346,1.00411146 34.6464309,0.425859375 C37.4103337,-0.209609994 36.9820513,-0.463511655 38.2658013,2.09338535 C39.3472966,4.24654296 40.3037087,6.45977871 41.3738661,8.77421751 C43.6429216,8.29931412 45.7850652,9.12181246 47.981704,9.82630017 C49.652042,8.07902761 51.3435929,6.34713219 52.9901578,4.57554229 C54.5646716,2.88191093 55.091704,2.7817807 57.1991022,3.81491013 C59.3346624,4.86198628 61.4976531,5.85506362 63.6368707,6.89463 C64.5570744,7.34199758 65.452042,7.83907266 66.3495698,8.33042602 C67.0481346,8.71270894 67.2024772,9.32314575 66.913542,10.0026009 C65.6279633,13.0261763 64.316417,16.0386659 63.0765559,18.9113307 C63.900204,19.8364626 64.7823707,20.5981675 65.3591439,21.5393917 C65.9234818,22.4609475 66.1762087,23.5648833 66.5880328,24.6480778 C69.1237133,24.8354644 71.8221485,25.0754194 74.5264355,25.2141713 C75.5175929,25.264594 76.2384679,25.5649847 76.490829,26.5105002 C77.2680281,29.4214291 78.0452272,32.334146 78.7229448,35.2683194 C78.9716485,36.3468651 78.5331253,36.9050911 77.2998476,37.2365937 C75.9268568,37.6052875 74.5085142,37.8094817 73.1179679,38.1198854 C72.2456763,38.3147818 71.3905744,38.5822725 70.5230374,38.7996982 C69.9978337,38.9312979 69.7538846,39.2037952 69.7846068,39.7666701 C69.917005,42.202338 69.3003661,44.5178497 68.60363,46.8276396 C68.5235328,47.0929847 68.8106392,47.592563 69.0765328,47.8089158 C70.9323013,49.3237432 72.8239124,50.7967305 74.7118661,52.2732938 C75.7534957,53.0879247 75.7677596,53.4508968 75.1525837,54.569137 C73.7397272,57.1371198 72.3740513,59.7312081 71.0409263,62.3399582 C70.2085003,63.9688626 68.9722966,64.3847606 67.2467318,63.7432119 C64.7677411,62.8220138 62.2397411,62.0241904 59.7168615,61.2227909 C59.3920837,61.1194422 58.9363707,61.2320887 58.6024494,61.3783504 C58.1229633,61.5879087 57.7041902,61.9279938 57.2517689,62.1987031 C55.7134633,63.1202588 54.1715003,64.0357352 52.3709587,65.1085592" id="Fill-3" fill="#02374E" fill-rule="nonzero" mask="url(#mask-2)"></path>
                    </g>
                    <g id="Fill-6-Clipped" transform="translate(63.321034, -0.000000)">
                        <mask id="mask-4" fill="white">
                            <use xlink:href="#path-3"></use>
                        </mask>
                        <g id="path-44"></g>
                        <path d="M6.74931326,48.0461027 C8.56215897,49.9119827 10.2872333,51.6198227 11.9212447,53.4083027 C12.4581133,53.9954627 12.8263876,53.9627027 13.4060447,53.5674227 C14.8502504,52.5828227 16.3529704,51.6785027 17.7712104,50.6593427 C18.4353476,50.1819827 18.8796904,50.2993427 19.5441933,50.6661827 C20.8033476,51.3620627 22.119919,51.9956627 23.4825704,52.4532227 C24.1393933,52.6739027 24.4992561,52.8996227 24.6071419,53.5497827 C24.6711419,53.9342627 24.8166961,54.3068627 24.8741133,54.6917027 C25.1220676,56.3718227 25.3572219,58.0537427 25.5850619,59.7367427 C25.6750276,60.3998627 26.0114847,60.7015427 26.7147533,60.6536627 C27.6692676,60.5881427 28.6310961,60.5089427 29.5837819,60.5564627 C31.2280333,60.6385427 32.8671647,60.8127827 34.6679419,60.9618227 C35.2355304,58.9137827 35.8400561,56.9154227 36.3257247,54.8897027 C36.5316219,54.0329027 36.9726733,53.6351027 37.7969933,53.4011027 C39.1611076,53.0137427 40.5734961,52.6677827 41.811439,52.0190627 C42.717679,51.5445827 43.2647876,51.5769827 44.0068219,52.1904227 C45.4707761,53.4003827 47.0001933,54.5333027 48.4692676,55.6723427 C50.1837361,54.2330627 51.836399,52.8240227 53.513199,51.4437827 C54.6246047,50.5290227 54.8999876,50.7763427 53.7728561,49.3583027 C52.7506847,48.0720227 51.6831647,46.8149027 50.7593704,45.4631027 C50.4631419,45.0296627 50.2802847,44.0295827 50.5260447,43.8103427 C51.9728104,42.5197427 52.4822504,40.7222627 53.4305476,39.1681427 C53.7681019,38.6144627 54.4234619,38.0546627 55.0400561,37.8959027 C57.0247876,37.3836227 59.0537704,37.0297427 61.0772676,36.6751427 C61.725679,36.5613827 62.0167876,36.3176627 61.9827761,35.6599427 C61.8785476,33.6374627 61.7838276,31.6139027 61.7201933,29.5903427 C61.705199,29.1302627 61.6137704,28.8987827 61.0970161,28.7940227 C59.3123304,28.4318627 57.5576333,27.8684627 55.7579533,27.6564227 C54.6289933,27.5235827 54.363119,26.9137427 54.0826161,26.0882627 C53.4535876,24.2393027 52.8154161,22.3932227 52.1439647,20.5586627 C51.8897933,19.8638627 51.9826847,19.2619427 52.4811533,18.7500227 C53.2835304,17.9256227 54.1118733,17.1242627 54.9533819,16.3380227 C55.499759,15.8268227 56.088559,15.3595427 56.8060904,14.7464627 C55.2433933,13.1703827 53.7809019,11.6681027 52.2737933,10.2101027 C52.071919,10.0142627 51.5884447,9.89546273 51.3317133,9.99158273 C49.3191876,10.7436227 47.312879,11.5169027 45.3435076,12.3711827 C44.5945247,12.6962627 44.1172676,12.5735027 43.6147761,12.0000227 C42.7904561,11.0593427 41.7613361,10.3260227 40.5065704,10.2075827 C39.6606733,10.1276627 39.4218619,9.71546273 39.3165361,9.07286273 C38.977519,7.01114273 38.5891304,4.95230273 38.3773819,2.87690273 C38.2877819,1.99634273 38.0138619,1.77890273 37.177839,1.83038273 C34.7593704,1.97870273 32.3357819,2.04458273 29.9184104,2.20082273 C29.6137704,2.22062273 29.1555304,2.53418273 29.0695876,2.80454273 C28.458479,4.73270273 27.8239647,6.66446273 27.4143647,8.63906273 C27.229679,9.52826273 26.855919,9.79646273 26.0626847,9.97430273 C24.462319,10.3328627 22.7672333,10.4253827 21.3819076,11.4816227 C21.2253819,11.6007827 20.7539761,11.4845027 20.5338161,11.3315027 C18.8826161,10.1809427 17.245679,9.00986273 15.6317819,7.80926273 C15.1351419,7.43954273 14.7774733,7.34414273 14.2833933,7.82690273 C13.246959,8.83814273 12.158959,9.79826273 11.0844904,10.7713427 C9.2336104,12.4485827 9.23799897,12.4428227 10.5304333,14.5556627 C11.283439,15.7872227 12.0653361,17.0069027 12.7192333,18.2888627 C12.9119647,18.6654227 12.875759,19.3271027 12.6621819,19.7025827 C11.7745933,21.2606627 10.7399876,22.7373827 9.84581607,24.2922227 C9.5510504,24.8041427 9.28407897,25.0565027 8.66858183,25.1076227 C6.55694754,25.2840227 4.44860468,25.5119027 2.34647897,25.7786627 C2.03781611,25.8182627 1.53642183,26.1595427 1.52069611,26.3877827 C1.3692904,28.5679427 1.30163326,30.7538627 1.21422754,32.9383427 C1.19118754,33.5193827 1.51557611,33.6533027 2.06853611,33.7523027 C4.2492904,34.1436227 6.41358754,34.6235027 8.58666183,35.0576627 C9.37806754,35.2157027 9.79937037,35.7945827 9.72074187,36.4584227 C9.49070754,38.4053027 10.1936104,40.0368227 11.1876219,41.6273027 C11.5643076,42.2306627 11.5174961,42.7638227 10.9338161,43.3664627 C9.47351897,44.8748627 8.12695897,46.4905427 6.74931326,48.0461027 M21.0494733,9.85370273 C22.6505704,9.32054273 24.0267533,8.78630273 25.447919,8.42090273 C26.1482619,8.24054273 26.3684219,7.94354273 26.5033704,7.28186273 C26.868719,5.48978273 27.3419533,3.71894273 27.7738619,1.94018273 C27.9728104,1.11938273 28.471279,0.609622734 29.3500904,0.546982734 C31.932399,0.361582734 34.5143419,0.161422734 37.0992104,0.019222734 C39.1047876,-0.091297266 39.3677361,0.229462734 39.5769247,2.17994273 C39.789039,4.15994273 40.1105019,6.12914273 40.4330619,8.09546273 C40.4780447,8.36978273 40.7731761,8.78846273 40.999919,8.82086273 C42.6939076,9.06278273 43.8941819,10.0311827 44.9105019,11.2641827 C46.9087647,10.3091027 48.8503419,9.32594273 50.8478733,8.46878273 C51.2925819,8.27798273 52.1381133,8.32082273 52.450799,8.61530273 C54.2669361,10.3238627 56.0377247,12.0882227 57.701359,13.9407827 C58.5542047,14.8901027 58.372079,15.6414227 57.3568561,16.5943427 C56.252399,17.6307827 55.1168561,18.6351827 53.9783876,19.6352627 C53.4473704,20.1011027 53.461999,20.4899027 53.7732219,21.1483427 C54.4267533,22.5325427 54.9270504,23.9937827 55.3889476,25.4546627 C55.5575419,25.9878227 55.7875761,26.1905027 56.3142047,26.2635827 C58.0846276,26.5105427 59.849199,26.7978227 61.6170619,27.0638627 C62.7357819,27.2323427 63.1475761,27.6873827 63.1929247,28.8152627 C63.2916676,31.2607427 63.3882161,33.7058627 63.4961019,36.1506227 C63.5568104,37.5243827 62.8901133,38.2497827 61.5570847,38.4679427 C59.4962847,38.8045427 57.4431647,39.1994627 55.4090619,39.6642227 C55.010799,39.7553027 54.611439,40.2182627 54.3879876,40.6074227 C53.5775647,42.0161027 52.8421133,43.4661827 52.0188904,45.0134627 C53.0494733,46.3163027 54.2296333,47.8027427 55.4006504,49.2963827 C55.5820447,49.5275027 55.7360104,49.7834627 55.8742504,50.0430227 C56.3233476,50.8854227 56.3116447,51.5269427 55.4247876,52.2246227 C53.5084447,53.7312227 51.7080333,55.3811027 49.8783647,56.9924627 C48.9318961,57.8258627 48.6557819,57.8233427 47.694319,57.0133427 C46.2844904,55.8253427 44.8490619,54.6661427 43.3990047,53.5260227 C43.2190733,53.3841827 42.8478733,53.3355827 42.625519,53.4122627 C41.1619304,53.9173427 39.7009019,54.4357427 38.2716904,55.0268627 C37.9195076,55.1726627 37.5358733,55.5578627 37.4276219,55.9106627 C36.845039,57.8132627 36.3195076,59.7342227 35.8272561,61.6620227 C35.6081933,62.5199027 35.2534504,62.7467027 34.2861361,62.6415827 C32.1591419,62.4111827 30.0058161,62.4205427 27.8627304,62.3337827 C27.7643533,62.3301827 27.6645133,62.3510627 27.565039,62.3579027 C25.4921704,62.4968627 25.022959,62.2103027 24.6437133,60.2112227 C24.3339533,58.5764627 24.162799,56.9139827 23.9931076,55.2572627 C23.9302047,54.6438227 23.6859076,54.4274627 23.095279,54.1992227 C21.7812676,53.6905427 20.5129704,53.0457827 19.2838047,52.3560227 C18.8127647,52.0914227 18.5070276,52.0320227 18.0473247,52.3077827 C16.3756447,53.3085827 14.6637361,54.2445827 13.0077819,55.2695027 C12.3772904,55.6601027 12.0624104,55.5229427 11.6092904,55.0056227 C9.83521037,52.9802627 8.00810183,50.9991827 6.19379326,49.0076627 C5.6649704,48.4269827 5.5446504,47.8614227 6.07347326,47.1972227 C7.27996468,45.6809027 8.47767897,44.1559427 9.62565611,42.5971427 C9.81985037,42.3336227 9.87617037,41.8461827 9.78181607,41.5232627 C9.33564468,39.9979427 8.77061611,38.5053827 8.34748468,36.9743027 C8.21655897,36.5016227 8.09294754,36.2550227 7.58972468,36.1527827 C5.83612468,35.7967427 4.09971326,35.3525027 2.3395304,35.0335427 C1.32394183,34.8499427 0.757816107,34.3211027 0.469267538,33.3869027 C-0.205109604,31.2053027 0.005541824,28.9801427 0.142318967,26.7661427 C0.285678967,24.4481027 0.317130396,24.4196627 2.65806754,24.1284227 C4.32974754,23.9207027 6.01642183,23.8328627 7.69029611,23.6420627 C8.38515326,23.5628627 8.93774754,23.3177027 9.26030754,22.5329027 C9.77889037,21.2714627 10.5300676,20.1047027 11.1199647,18.8684627 C11.252719,18.5894627 11.2490619,18.1232627 11.099119,17.8579427 C10.2758961,16.4024627 9.37404468,14.9901827 8.52522183,13.5480227 C7.65006754,12.0605027 7.74405611,11.9481827 9.03795326,10.8444227 C10.6917133,9.43358273 12.2851304,7.94966273 13.8467304,6.43946273 C14.5006276,5.80694273 15.0232333,5.64818273 15.8128104,6.22094273 C17.6011533,7.51802273 19.4414276,8.74454273 21.0494733,9.85370273" id="Fill-6" fill="#02374E" fill-rule="nonzero" mask="url(#mask-4)"></path>
                    </g>
                    <path d="M38.9435819,83.7048065 C41.9994495,83.7030296 45.8629888,82.3483114 48.6692191,80.2049995 C52.625095,77.1838927 54.3152566,73.1531443 53.6327686,68.3586788 C53.3663428,66.4883006 52.4411517,64.6808251 51.6488087,62.9156402 C51.0962488,61.6856613 50.4349288,60.4197888 49.5174021,59.4424869 C46.4334321,56.1569755 42.6403313,54.1956194 37.9537917,54.1791863 C37.6578036,54.1782057 37.3523263,54.1959748 37.0665573,54.2656298 C34.733689,54.8360187 32.5800195,55.7593025 30.5869354,57.1083345 C25.8690086,60.3007356 23.2631452,66.3280231 24.4821345,71.7753263 C26.1927343,79.4196041 31.4139503,83.2140232 38.9435819,83.7048065 M37.2953915,52.7595187 C40.6209696,53.1507948 43.5980044,53.7723589 46.2148169,55.5318577 C46.9772327,56.0443193 47.8049776,56.4675799 48.5465902,57.0052736 C49.893683,57.981154 50.918145,59.224282 51.7075683,60.6806396 C53.1178003,63.2816842 54.5703685,65.898721 54.8919043,68.8526605 C55.4649023,74.1187186 53.7780254,78.6128858 49.3940433,81.9136786 C46.5699297,84.0395768 43.3793893,85.4372963 39.7651223,85.7208915 C34.4508397,86.1373998 27.2912846,83.1642697 24.4029367,77.833532 C21.4415955,72.3677489 21.105826,66.919735 24.0204514,61.4393812 C26.8310613,56.1551986 31.5431486,53.5157727 37.2953915,52.7595187" id="Fill-9" fill="#02374E" fill-rule="nonzero"></path>
                    <path d="M95.3285946,43.3791713 C100.573369,43.1811848 103.89401,41.1001026 106.385314,35.9958342 C108.156396,32.3679365 108.049113,28.6310351 105.423796,25.5770757 C102.913452,22.656961 99.8370355,20.4190468 95.640923,20.2047469 C92.26719,20.032343 89.3716527,20.7964817 87.1809598,23.3906973 C84.8423411,26.1606537 83.5824089,29.3225046 84.0016539,33.1357828 C84.6643907,39.1587973 90.521739,43.5723378 95.3285946,43.3791713 M95.2377887,18.7665645 C99.8747493,18.6034296 103.440346,21.2929308 106.214321,24.7780854 C109.674832,29.1260012 109.744401,33.9833427 107.34317,38.4773384 C104.314353,44.1466468 98.98097,46.5851427 92.9786251,45.5129016 C89.1091211,44.8210613 86.0938517,42.4518977 84.1832658,39.0883527 C81.6568106,34.6414437 81.1339443,29.9409342 83.6197564,25.1284547 C85.900523,20.7138019 89.4858924,18.675728 95.2377887,18.7665645" id="Fill-11" fill="#02374E" fill-rule="nonzero"></path>
                </g>
            </g>
        </g>
    </g>
</svg>