<?xml version="1.0" encoding="UTF-8"?>
<svg width="179px" height="145px" viewBox="0 0 179 145" version="1.1" xmlns="http://www.w3.org/2000/svg" xmlns:xlink="http://www.w3.org/1999/xlink">
    <title>Group-20</title>
    <defs>
        <polygon id="path-1" points="0 -8.32667268e-16 178.886634 -8.32667268e-16 178.886634 142.473671 0 142.473671"></polygon>
    </defs>
    <g id="Test" stroke="none" stroke-width="1" fill="none" fill-rule="evenodd">
        <g id="Franchise---1" transform="translate(-631.000000, -2388.000000)">
            <g id="How-It-Works" transform="translate(324.490287, 2318.000000)">
                <g id="Group-20" transform="translate(306.509713, 70.000044)">
                    <path d="M109.353989,114.934973 C102.021116,121.740335 93.6343748,123.983674 84.4734262,121.891906 C78.5563601,120.540909 73.0134873,118.170532 68.2049958,113.690864 C63.9396315,109.718039 59.93292,105.414474 56.7485582,100.110803 C56.5367342,99.7585982 56.3371645,99.395003 56.1445973,99.0274653 C56.1117733,98.9652598 56.1397831,98.8566193 56.1397831,98.5718761 C57.0645435,99.2175861 57.9083381,99.8221178 58.7639494,100.400365 C62.5203235,102.937646 66.3672917,105.306272 70.6523504,106.142103 C74.2047782,106.835562 77.8101621,107.312616 81.4046046,107.475139 C87.1378565,107.734912 92.8846756,107.65168 98.5605949,106.386106 C106.890878,104.529142 114.294651,100.443296 120.325069,93.0999879 C120.523326,92.8594894 120.722458,92.6207432 120.929905,92.3929486 C120.982424,92.336 121.071267,92.3281148 121.444585,92.1690967 C121.15836,94.1478429 121.245891,96.1690816 120.576282,97.7132659 C117.730663,104.271121 114.237319,110.402737 109.353989,114.934973" id="Fill-1" fill="#E8D0CD" fill-rule="nonzero"></path>
                    <g id="Fill-3-Clipped" transform="translate(0.000000, 2.389171)">
                        <mask id="mask-2" fill="white">
                            <use xlink:href="#path-1"></use>
                        </mask>
                        <g id="path-34"></g>
                        <path d="M161.905675,46.9983988 C160.144122,44.6608761 158.383008,42.3229154 156.566748,39.9122356 C159.919169,41.1427643 160.956844,44.0353172 161.905675,46.9983988 L161.905675,46.9983988 Z M149.387929,37.5383535 C153.334682,37.4643202 155.671311,39.8846374 157.621054,43.0996072 C154.804758,41.1970846 152.083433,39.3593957 149.387929,37.5383535 L149.387929,37.5383535 Z M147.059616,41.3267522 C142.838455,40.1755136 138.63655,39.0295317 134.41889,37.8791692 C134.989152,37.8371148 135.586548,37.6877341 136.150682,37.7687764 C139.987147,38.3189879 143.597783,39.5753625 147.059616,41.3267522 L147.059616,41.3267522 Z M120.606567,41.4165559 C120.468707,38.7014199 120.59869,36.1203323 123.045169,34.2016012 C125.74855,32.0822356 128.690453,30.4026888 131.789034,28.9299093 C127.867228,32.9014199 123.357215,36.3376133 120.606567,41.4165559 L120.606567,41.4165559 Z M119.304113,42.834139 C118.771052,42.7824471 118.237115,42.6803776 117.704492,42.6873867 C115.769191,42.7132326 113.834766,42.775438 111.899465,42.8240634 C111.470565,42.834139 110.963325,42.9988519 110.62502,42.828006 C108.47133,41.7407251 106.177592,41.4564199 103.549049,41.5786405 C105.500105,39.8395166 107.202575,38.3054078 108.926927,36.7967069 C109.412722,36.3713444 110.019746,36.5776737 111.292003,37.5466767 C110.051257,38.4013444 108.838521,39.2371752 107.625785,40.072568 C107.736949,40.2364048 107.847675,40.4006797 107.958839,40.5649547 C109.134374,39.8276888 110.324352,39.1114501 111.478005,38.3422054 C111.977367,38.0092749 112.400577,37.6890483 112.88856,38.4122961 C112.039951,39.1482477 111.190905,39.8837613 110.343171,40.6188368 C110.442956,40.7480664 110.544054,40.8772961 110.644277,41.0069637 C111.042103,40.7594562 111.459186,40.5377945 111.833817,40.2591843 C113.969125,38.6729456 113.965624,38.6681269 116.253673,40.330151 C115.896986,40.7774169 115.542487,41.2211782 115.187988,41.6653776 C115.255824,41.7350302 115.32366,41.8051208 115.391934,41.8743353 C115.840091,41.477009 116.289122,41.0792447 116.922406,40.5172054 C117.723748,41.1664199 118.578922,41.8585649 119.434096,42.551148 C119.390768,42.6448942 119.34744,42.7395166 119.304113,42.834139 L119.304113,42.834139 Z M118.284819,45.2299245 C118.30889,45.6701812 118.353968,46.11 118.353968,46.5498187 C118.348279,57.2557251 118.36491,67.9616314 118.30714,78.6675377 C118.294885,80.9292749 118.024854,83.1910121 117.826597,85.4483686 C117.795086,85.8088973 117.588076,86.2189275 117.335113,86.4852719 C111.632934,92.4758308 104.857631,96.6615559 96.7719954,98.5894864 C92.7775381,99.5418429 88.7117435,99.926465 84.6096237,100.041239 C78.6824917,100.205952 72.7321641,100.354894 66.9288878,99.0187915 C63.7064501,98.277145 60.614433,96.9353474 57.5040345,95.7565106 C56.0243303,95.1957855 54.6584159,94.3419939 53.2045333,93.7046072 C52.5296726,93.4080362 52.2395088,93.0001964 52.1817386,92.2857099 C51.897702,88.7583988 51.3733939,85.2367825 51.3208756,81.7072809 C51.1882667,72.7948187 51.2609171,63.8779758 51.2556653,54.9633232 C51.2552276,54.5822054 51.2959293,54.2019637 51.3169367,53.821284 C53.5467778,58.2711631 55.5057117,62.7319939 57.9990198,66.9168429 C58.1333792,66.8524471 58.2664257,66.7884894 58.4003474,66.7240936 C56.1551885,61.9701964 53.9100296,57.215861 51.581279,52.2845468 L54.0054379,52.2845468 C54.0273205,55.7176737 58.8095528,63.3934743 61.5798951,64.2980815 C58.7491567,60.7186405 56.0278315,57.0761178 54.3791934,52.3708459 C55.5135895,52.6113444 56.3425039,52.7629154 57.1534746,52.9801964 C57.3219709,53.0253172 57.5154134,53.3017371 57.5442985,53.4944864 C58.0283425,56.6814199 59.8074012,59.3304078 61.1439929,62.1576888 C61.9081347,63.773716 62.8035724,65.3288519 63.6793156,66.8888066 C63.8990174,67.2808761 64.268834,67.5879607 64.6990467,68.0825377 C64.7778242,67.6527945 64.8159,67.444713 64.8566017,67.2256797 C65.0482936,67.2782477 65.2303572,67.3277492 65.530587,67.4101057 C65.4220491,67.0885649 65.3572765,66.838867 65.2553034,66.6053776 C63.8920149,63.4718882 62.4959024,60.3524169 61.1737533,57.2022809 C60.8306335,56.3848489 60.7124672,55.4727945 60.4761347,54.5454078 C62.2705112,54.6746374 63.2228438,55.673429 63.6197949,57.0879456 C64.4132594,59.9161027 65.3708438,62.699577 66.2881641,65.4918127 C66.5735137,66.3591843 66.8667411,67.2423263 67.3008927,68.0391692 C68.3989636,70.0542749 69.5788756,72.0242598 70.8471934,73.9876737 C70.1465112,69.6403021 69.2335675,65.3257855 69.2388193,60.9017522 C70.7023303,60.8728399 71.4047631,61.6280664 71.2117582,62.9361329 C70.732966,66.1817674 71.1898756,69.3595015 71.8861812,72.5179607 C71.9719611,72.9082779 72.2262374,73.2617976 72.5724208,73.5925377 C72.1365186,70.0038973 71.5553156,66.4529305 71.6831103,62.7538973 C73.2398413,63.7071299 73.4437875,64.2433232 73.1698169,65.8164199 C72.5724208,69.2460423 72.986878,72.6463142 73.5777093,76.0321299 C73.6254134,76.3085498 73.8280467,76.5578096 73.9593425,76.8197734 C74.0560638,76.7978701 74.1527851,76.7764048 74.249944,76.7545015 C74.0998291,75.2466767 73.9987313,73.7322809 73.7842814,72.2340936 C73.6144721,71.0429909 73.8656848,70.1265559 75.1357533,69.5119486 C75.1821445,73.1356344 75.0613523,76.7260272 76.1419171,80.2301208 C75.9659807,78.5527643 76.8355968,77.3213595 77.7463523,75.8853776 C78.0925357,78.0967371 78.4128976,80.1429456 78.7332594,82.1891541 L79.2194917,82.1891541 C79.1354623,80.7093655 78.5529465,79.0574169 80.2195284,78.3551964 C81.2856506,79.6036858 81.4467068,81.4729154 82.9084672,82.4620695 C83.0275088,82.3972356 83.1452374,82.3319637 83.264279,82.2671299 C82.7710443,81.1058157 82.2778095,79.9449396 81.7850125,78.7840634 C82.780235,79.901571 83.0577068,81.4676586 84.4078658,82.2995468 C83.8279758,80.2147885 81.4436433,78.5461933 83.2467729,75.7482628 C84.3711029,77.5697432 85.4214697,79.2720695 86.4727117,80.9743957 L86.7029171,80.9546828 C86.7029171,80.6515408 86.8202081,80.2743655 86.684098,80.0570846 C85.6381078,78.3867371 86.3256604,76.6686405 86.4652716,74.9614954 C86.6749073,72.3887311 86.8582839,69.8137764 87.0416604,67.2388217 C87.0591665,66.9886858 86.9983328,66.7324169 86.7291763,66.4660725 C86.4123156,68.9867069 86.095455,71.5073414 85.7667778,74.121722 C84.127768,72.8977643 84.127768,72.8977643 84.5960565,71.4276133 C84.8004403,71.4806193 85.0061372,71.5340634 85.3650125,71.6273716 C84.3627875,70.5541087 84.4761396,69.5439275 85.1102985,68.5017674 C86.3379147,66.4844713 87.5541518,64.4610423 88.9121885,62.4844864 C89.3511543,67.2699245 88.750257,71.992719 88.5279293,76.7220846 C88.6404061,76.7702719 88.7528829,76.8184592 88.8653597,76.8670846 C89.0588022,76.5188217 89.3844159,76.1854532 89.42468,75.8205438 C89.9039098,71.432432 90.3862032,67.0408157 89.7065284,62.6281722 C89.4973303,61.2684139 90.2890443,59.7527039 91.9044208,58.7964048 C91.9941396,63.5533686 91.517098,68.1377341 91.0667533,72.7234139 C91.1836066,72.7654683 91.3004599,72.8079607 91.4168756,72.8504532 C91.6317631,72.2954229 91.940746,71.7570393 92.0400932,71.181858 C92.2497289,69.9697281 92.4707435,68.7396374 92.4707435,67.5165559 C92.4703059,64.663429 92.4672423,61.7993504 92.2173425,58.9615559 C92.0781689,57.3840785 93.235323,56.8951964 93.9745186,55.9791994 C94.3224526,60.3826435 93.6152056,64.6691238 92.8024844,68.9472809 C92.9359685,68.9967825 93.0694526,69.0454078 93.2029367,69.0944713 C93.4488976,68.6121601 93.8226531,68.1548187 93.9215626,67.6435951 C94.6506922,63.8950604 95.3259905,60.1399547 94.6992716,56.2915408 C94.4581249,54.8073716 95.0524575,54.1169788 96.9995748,53.6618278 C97.0512178,59.0399698 95.9767802,64.2166012 94.8813352,69.6915559 C95.2931665,69.3402266 95.5141812,69.2324622 95.6122154,69.0559214 C98.1418487,64.5328852 100.734942,60.037009 102.095167,54.9769033 C102.679871,52.7992749 103.199802,50.6045619 103.782318,48.4264954 C103.86591,48.1150302 104.071607,47.751435 104.331135,47.5875982 C105.196374,47.0417674 106.111506,46.5756646 107.31899,45.9062991 C107.187257,46.8336858 107.221394,47.5179456 106.987687,48.0922507 C105.309726,52.2091994 103.579247,56.3042447 101.858396,60.4032326 C101.694277,60.7939879 101.476325,61.1619637 101.141959,61.8186254 C101.700841,61.5505287 101.979626,61.4160423 102.30524,61.2600906 L102.30524,62.1384139 C102.381829,62.1835347 102.458418,62.2282175 102.535445,62.2729003 C102.899572,61.8405287 103.362609,61.4585347 103.612509,60.9670241 C105.840599,56.5732175 108.043744,52.1662689 110.220191,47.7461782 C110.513856,47.1499698 110.788264,46.4578248 110.777323,45.8147432 C110.755878,44.5723867 111.49945,44.3025377 112.457472,44.1487764 C113.034736,44.0559063 113.609812,43.948142 114.519692,43.7891238 C114.219025,44.73929 114.081164,45.5059063 113.747673,46.1757099 C111.86489,49.9627945 109.673125,53.5536254 106.849389,56.7274169 C106.526401,57.0901359 106.227484,57.4743202 105.917626,57.8493051 L106.181531,58.1480664 C106.710215,57.7932326 107.318553,57.5163746 107.754017,57.0699849 C110.614516,54.1388822 112.844795,50.7587613 114.51269,47.0308157 C114.946841,46.0596223 114.987981,44.9123263 115.242695,43.6839879 C115.869413,43.6445619 116.718898,43.5906797 117.928132,43.51358 C115.261951,49.5317371 112.45791,55.1915559 109.760218,60.8991238 C109.864379,60.972719 109.968103,61.0467522 110.071827,61.1203474 C110.443832,60.6205136 110.904242,60.1636103 111.172086,59.6125226 C113.399301,55.0395468 115.591504,50.4499245 117.791147,45.8638066 C117.890932,45.6566012 117.967521,45.4388822 118.284819,45.2299245 L118.284819,45.2299245 Z M119.697125,91.0941692 C121.533078,92.3842749 123.480196,92.7137009 125.677213,92.3873414 C126.173074,105.560876 124.533626,118.51713 123.446059,131.608746 C119.525127,130.204743 115.849719,128.621133 111.540152,129.234426 C115.85891,116.746903 117.449778,103.951858 119.697125,91.0941692 L119.697125,91.0941692 Z M105.535555,108.056541 C98.2731445,113.65503 89.9656188,115.500166 80.8926384,113.779441 C75.0315919,112.668066 69.5412374,110.717795 64.7782619,107.032779 C60.5540369,103.764804 56.5854012,100.22435 53.4312374,95.8616465 C53.2211641,95.5716465 53.0237826,95.2728852 52.8325284,94.9706193 C52.8001421,94.9193655 52.8281518,94.83 52.8281518,94.5956344 C53.7441592,95.126571 54.580076,95.6242145 55.4273719,96.0999547 C59.1478584,98.1873414 62.9585015,100.135423 67.2024208,100.823187 C70.7207117,101.39355 74.2923963,101.785619 77.8522643,101.919668 C83.5316848,102.133444 89.2237973,102.064668 94.84501,101.023822 C103.096078,99.496284 110.430264,96.135 116.402912,90.0945015 C116.598981,89.8964954 116.796362,89.6998036 117.001621,89.5127492 C117.05414,89.465438 117.142108,89.458867 117.511487,89.3283232 C117.228325,90.9561782 117.314543,92.6190785 116.651499,93.8890332 C113.833015,99.2838217 110.372932,104.327719 105.535555,108.056541 L105.535555,108.056541 Z M56.9622203,124.441541 C53.3520222,124.091526 50.2556286,125.32074 46.9150247,126.564849 C46.1412545,116.435438 44.8125406,106.445332 45.009922,96.3588519 C47.9124355,96.0526435 47.9124355,96.0526435 50.4770809,94.5715408 C52.2154379,104.624728 53.5669098,114.629728 56.9622203,124.441541 L56.9622203,124.441541 Z M50.2306824,51.4767522 C51.0731641,50.757009 51.7318315,50.1949698 52.4298878,49.5987613 C52.9064917,50.0298187 53.2684306,50.3583686 53.6308071,50.6864803 C53.6771983,50.6479305 53.7235895,50.6098187 53.7699807,50.5712689 C53.5428389,50.236148 53.3165724,49.9010272 53.0933694,49.5711631 C54.8610491,47.1214954 56.235279,49.2483081 57.7184844,50.0679305 C57.7941983,49.9553474 57.8699122,49.8427643 57.9460638,49.7301812 C57.2738291,49.1168882 56.6015944,48.5035951 55.9297973,47.8903021 C56.5245675,47.4373414 56.5149391,47.4509214 57.9421249,48.3993353 C58.5828487,48.825574 59.268213,49.1843504 59.9338829,49.5737915 C60.0161616,49.4423716 60.0984403,49.3113897 60.1802814,49.1799698 C59.1981885,48.5062235 58.2169709,47.8320393 57.2051176,47.1377039 C58.6463083,46.0539275 58.731213,46.0775831 59.8743621,47.1140483 C61.0695919,48.1969486 62.3072741,49.2329758 63.4731812,50.552432 C63.0626628,50.552432 62.646455,50.5081873 62.2429391,50.5611933 C61.1846946,50.7004985 60.0481103,50.6869184 59.099279,51.0969486 C57.9359978,51.5998489 56.8458046,51.5880211 55.6448853,51.5056646 C53.9581714,51.3900151 52.2574526,51.4767522 50.2306824,51.4767522 L50.2306824,51.4767522 Z M53.0675479,47.5639426 C52.1559171,48.2289275 51.4377289,48.7524169 50.6854037,49.3013142 C50.7186653,47.758006 50.769433,47.7198942 53.0675479,47.5639426 L53.0675479,47.5639426 Z M52.7716946,43.230151 C53.7559758,41.3271903 54.8759293,39.4947583 55.9140418,37.6193957 C56.2063939,37.0906495 56.5228169,36.9802568 57.1512863,37.0612991 C58.5228902,37.2382779 59.9176897,37.2391541 61.3037362,37.298293 C61.804411,37.3197583 62.3072741,37.3017976 62.8587166,37.3017976 C62.478834,38.2528399 62.4783963,38.2506495 59.898433,38.9427945 C58.7889831,39.2402417 57.6825968,39.5503927 56.6072839,40.0388368 C57.5346702,39.8811329 58.4624941,39.723429 59.5093597,39.5451359 C59.466032,39.8706193 59.4318951,40.1176888 59.3986335,40.3634441 C58.9211543,40.9303021 58.2869954,41.3394562 58.1364428,42.2098942 C58.0721078,42.5813746 57.3753645,42.9589879 56.8952594,43.1188822 C55.7442325,43.5021903 54.5507533,43.7580211 53.4255479,44.2990332 C54.6719831,44.0467069 55.9184183,43.7943806 57.1648535,43.5411782 L57.4130027,43.849139 C57.0532521,44.3577341 56.8042276,45.0914954 56.3131812,45.3333081 C54.7687044,46.0929154 53.1331958,46.6672205 51.5331372,47.3138066 C51.4232863,47.2007855 51.3129978,47.0882024 51.2027093,46.9751812 C51.7191396,45.7240634 52.1519782,44.4287009 52.7716946,43.230151 L52.7716946,43.230151 Z M57.3635479,44.8864803 C57.3228462,43.6301057 58.1381934,43.2227039 59.0813352,42.906858 C58.1592007,42.3329909 58.4200418,41.7569335 59.7977729,41.0017069 C59.6717289,40.778293 59.5474355,40.5575075 59.4231421,40.336284 C59.4196408,40.3402266 59.4165773,40.343293 59.4135137,40.3467976 C59.9829,39.4299245 60.7282227,38.827145 62.2363743,38.9901057 C60.3045748,40.850574 60.3763499,43.9757402 57.3635479,44.8864803 L57.3635479,44.8864803 Z M62.3764232,46.2361631 C63.4828095,47.3151208 64.6640345,48.3204834 65.8391323,49.3254078 C66.1468022,49.5886858 66.5555699,49.7336858 66.9170711,49.932568 L67.1043866,49.6811178 C65.4824452,48.2438217 63.8605039,46.8069637 62.2070516,45.3416314 C63.6714379,44.3787613 63.7987949,44.4405287 64.9261885,45.4472054 C66.6137778,46.9528399 68.3635137,48.390574 70.1009954,49.8388217 C70.3907215,50.0797583 70.755724,50.2287009 71.0865895,50.420574 C71.1522374,50.3364652 71.2174477,50.2527945 71.2835333,50.1691238 C69.1294061,48.3274924 66.975279,46.4862991 64.7546286,44.587719 C66.5069905,43.7615257 66.6925553,43.8706042 67.7976286,45.0919335 C69.4221958,46.8871299 71.145235,48.5933988 72.8231958,50.3399698 C73.0897264,50.6177039 73.3409391,50.9107704 73.7151323,51.3247432 C70.606922,51.0623414 67.7276042,50.8235951 64.848724,50.5699547 C64.6237704,50.5498036 64.3559269,50.4840936 64.195746,50.341284 C62.6595846,48.9727643 61.1431176,47.5827794 59.6113328,46.1906042 C60.9448609,45.141435 61.3116139,45.1975075 62.3764232,46.2361631 L62.3764232,46.2361631 Z M64.5349269,40.1251359 C64.5887582,40.1777039 64.6425895,40.2298338 64.6964208,40.2824018 C64.19312,40.9876888 63.690257,41.6929758 63.1869562,42.3978248 L61.4967411,43.368142 L61.266098,43.0728852 C62.3554159,42.0903021 63.4447337,41.107719 64.5349269,40.1251359 L64.5349269,40.1251359 Z M78.1319244,35.4246828 C76.8053988,36.5356193 75.6793181,37.8524471 74.2547582,38.5905891 C71.5701958,39.9810121 68.7131983,41.0385045 65.8934012,42.1481269 C67.1980443,40.4580664 75.1668267,36.1391692 78.1319244,35.4246828 L78.1319244,35.4246828 Z M75.7475919,39.545574 C76.8421616,38.7425982 77.9371689,37.9396223 79.031301,37.1366465 C78.3004208,39.4478852 78.0754672,39.6152266 75.7475919,39.545574 L75.7475919,39.545574 Z M83.4323377,34.9033837 C82.2055968,37.1059819 79.7639318,39.7405136 78.7949685,39.7413897 C80.0554086,37.8068882 80.5556457,35.3589728 83.4323377,34.9033837 L83.4323377,34.9033837 Z M84.5190296,34.7745921 C84.9531812,34.2379607 85.7737802,34.0154229 86.4184428,33.6491994 L86.7978878,34.042145 C86.5269807,34.6786556 86.3090296,35.3445166 85.9746628,35.9459819 C85.1860125,37.3622507 84.3207729,38.735151 83.5308095,40.1505438 C83.157054,40.8194713 82.7509122,41.1480211 81.9342521,40.883867 C81.4629,40.7309819 80.9197729,40.8023867 80.146878,40.758142 C80.5714012,40.2127492 80.9083939,39.8106042 81.2112496,39.3848036 C82.3084452,37.8432477 83.3303645,36.2412386 84.5190296,34.7745921 L84.5190296,34.7745921 Z M88.2123817,33.4682779 C88.8653597,33.3421148 89.5476604,33.3705891 90.3424379,33.3285347 C89.7748022,34.9953776 85.2752936,40.8321752 83.8126579,41.6522356 C84.1356457,41.0389426 84.306768,40.6827945 84.5050247,40.3419788 C85.6595528,38.3557855 87.0241543,36.47429 87.3729636,34.1039124 C87.4106017,33.8476435 87.8928951,33.5304834 88.2123817,33.4682779 L88.2123817,33.4682779 Z M108.294081,45.5611027 C108.859966,45.2487613 109.496751,45.0665257 110.105526,44.8321601 C110.214501,44.9210876 110.323477,45.0100151 110.43289,45.0989426 C109.182954,47.7921752 107.93258,50.4849698 106.682643,53.1782024 C106.579357,53.1138066 106.476946,53.0494109 106.373223,52.9850151 C106.659448,52.2153323 107.048083,51.4662386 107.208264,50.671148 C107.494052,49.2548791 107.624034,47.8083837 107.859929,46.3807251 C107.908509,46.0841541 108.064751,45.688142 108.294081,45.5611027 L108.294081,45.5611027 Z M100.489418,47.6620695 C99.9432276,47.9726586 99.3668389,48.3042749 98.7637533,48.4269335 C94.7207166,49.2469939 90.9542765,50.8113293 87.27668,52.6161631 C85.4595455,53.5076284 83.6393474,54.4039124 81.8922374,55.4219788 C80.8751323,56.0146828 80.042279,55.90429 78.9722178,55.1836707 C86.3541078,50.9186556 93.5675015,46.6181571 102.283795,45.7122356 C100.174308,44.8969939 97.4083425,45.503716 88.7594477,48.6262538 C88.5239905,48.3217976 88.2697142,47.9932477 87.8355626,47.4312084 C88.7021152,47.3370241 89.3253328,47.2695619 90.0689049,47.1889577 C90.1603743,47.0965257 90.3525039,46.7408157 90.6330394,46.6444411 C96.1439636,44.7533081 101.794061,43.5744713 107.635851,43.4215861 C107.817039,43.4167674 107.999978,43.4583837 108.496277,43.51358 C106.930355,44.2149245 105.615646,44.7300906 104.372274,45.3819335 C103.044873,46.0775831 101.794061,46.9204229 100.489418,47.6620695 L100.489418,47.6620695 Z M99.3410174,57.9097583 C99.8036164,55.666858 100.489856,53.4406042 99.9878682,51.0951964 C99.9375381,50.8590785 100.118289,50.4595619 100.320922,50.301858 C101.158152,49.6500151 102.045712,49.0612538 103.06413,48.5408308 C101.987504,53.3048036 100.181311,57.7853474 98.2945895,62.250997 C98.6464623,60.8049396 99.0399122,59.3667674 99.3410174,57.9097583 L99.3410174,57.9097583 Z M97.4341641,52.8531571 C97.4201592,52.654713 97.4928095,52.3695317 97.6324208,52.2547583 C98.1698584,51.8118731 98.7501861,51.422432 99.5861029,50.8165861 C99.551966,54.7346525 98.446455,58.1016314 97.361076,61.4248036 C97.5068144,60.0470846 97.761966,58.6706797 97.7680932,57.2929607 C97.7750956,55.8136103 97.5387631,54.3342598 97.4341641,52.8531571 L97.4341641,52.8531571 Z M81.5416775,59.5928096 C80.8567509,59.0653776 80.1586946,58.5278701 79.4689538,57.9969335 C81.4580858,56.3498036 95.3806971,49.3127039 97.7300174,49.2491843 C96.0240467,50.8402417 94.2331714,52.5145317 92.4344183,54.1804985 C92.2926188,54.3119184 92.1044281,54.3986556 91.9271787,54.4853927 C88.4412741,56.2021752 84.9531812,57.9158912 81.5416775,59.5928096 L81.5416775,59.5928096 Z M87.5550271,59.0509214 C85.8346139,59.7312386 84.2367435,60.748867 82.6458756,61.7200604 C81.9640125,62.1366616 81.5066653,62.1068731 80.8383694,61.3498942 C84.0853156,59.5306042 87.2679269,57.7481118 90.4509758,55.9651812 L90.6312888,56.2753323 C89.9170394,57.5435347 89.0049709,58.4774924 87.5550271,59.0509214 L87.5550271,59.0509214 Z M81.8287778,65.6420695 C81.3775577,65.3630211 80.9976751,65.1277794 80.3604526,64.7330815 C82.8944623,63.0478399 85.2337166,61.4913897 87.5729709,59.9349396 C87.68501,60.0816918 87.7970491,60.228006 87.9095259,60.3747583 C86.2573866,62.5063897 83.6603548,63.5849093 81.8287778,65.6420695 L81.8287778,65.6420695 Z M83.4489685,66.600997 C83.3693156,66.654003 83.0511421,66.3499849 82.7316555,66.1366465 C83.7750198,65.2193353 84.7238511,64.3843806 85.6735577,63.5485498 C85.3619489,64.9240785 84.5352227,65.8746828 83.4489685,66.600997 L83.4489685,66.600997 Z M83.8936237,73.857568 C85.6547386,75.1634441 85.7330785,75.3452417 85.2805455,76.9638973 C83.8310394,75.7833081 83.4472178,74.9601812 83.8936237,73.857568 L83.8936237,73.857568 Z M81.4375161,68.1443051 C81.1486653,68.1443051 80.9346531,67.9081873 80.9219611,67.6287009 C80.9097068,67.3496525 81.167922,67.1126586 81.4375161,67.1126586 L83.3452447,67.1126586 C83.6340956,67.1126586 83.8485455,67.3487764 83.8607998,67.6287009 C83.8734917,67.9073112 83.6148389,68.1443051 83.3452447,68.1443051 L81.4375161,68.1443051 Z M79.2886408,73.3905891 C80.2934917,75.1292749 80.1315601,77.3953927 78.9722178,78.5514501 C78.1406775,76.3799547 78.2242692,74.6500302 79.2886408,73.3905891 L79.2886408,73.3905891 Z M77.620746,67.2401359 C78.504367,66.3802115 78.9074452,67.2624773 79.6453279,67.5332024 C78.5752667,68.5941994 78.2632203,67.5200604 77.620746,67.2401359 L77.620746,67.2401359 Z M77.5839831,71.5209214 C78.0387044,73.3270695 77.2531176,74.7959063 76.2968462,76.2643051 C75.7808535,73.7940483 75.7173939,72.5871752 77.5839831,71.5209214 L77.5839831,71.5209214 Z M64.3182888,56.4001812 C65.090746,56.9446979 65.8693303,57.4813293 66.6295333,58.0429305 C66.7323817,58.1191541 66.8032814,58.3329305 66.783587,58.4669788 C66.3052325,61.6832628 67.4313132,64.6599245 68.1411861,67.6987915 C68.1543156,67.7553021 68.100922,67.8275831 67.9678756,68.2148338 C66.5651983,64.2017069 65.2509269,60.4430967 63.9370932,56.6840483 C64.0635748,56.589864 64.1909318,56.4948036 64.3182888,56.4001812 L64.3182888,56.4001812 Z M59.9281934,52.3195921 C65.7003963,52.1675831 71.1456726,53.4695166 76.502543,55.4338066 C76.2106286,56.2424773 75.7655357,56.2617522 75.0280907,56.0304532 C72.5356579,55.2480664 70.0239685,54.5173716 67.4921469,53.8734139 C66.7428853,53.682855 65.9039049,53.8440634 65.1016873,53.9408761 C68.3271885,54.3452115 71.3662496,55.330861 74.3077142,56.6327945 C74.7383645,56.8233535 75.0613523,57.2583535 75.2832423,57.7603776 L77.1563963,57.7603776 C75.9598535,59.0706344 75.9795479,59.0136858 74.702477,58.5721148 C72.4542545,57.7949849 70.1762716,57.1076586 67.9201714,56.3537462 C67.3240883,56.154426 66.7494501,55.8762538 66.1888169,55.5871299 C64.2570174,54.592719 62.3352839,53.5781571 60.4096115,52.5706042 C60.2494306,52.4864954 60.0883743,52.4032628 59.9281934,52.3195921 L59.9281934,52.3195921 Z M60.057301,55.3365559 C60.1969122,56.6222809 60.6411298,57.8755891 60.9698071,59.1385347 C61.0643401,59.5012538 61.2240834,59.8473263 61.3536286,60.2008459 C61.2665357,60.2372054 61.1794428,60.2731269 61.0919122,60.3094864 C60.0428584,58.0696525 58.9938046,55.8306948 57.8401518,53.3674471 C59.8704232,53.6521903 59.8918682,53.8112084 60.057301,55.3365559 L60.057301,55.3365559 Z M77.0439196,56.7725377 C77.9520491,55.792145 78.1244844,55.7794411 79.3814232,56.595997 C78.2378364,57.5873414 78.1240467,57.5956646 77.0439196,56.7725377 L77.0439196,56.7725377 Z M76.9625161,59.6510725 C77.987499,58.2019486 78.3875137,58.3679758 80.956098,60.1049093 C79.3612912,61.8365861 78.3144257,59.8508308 76.9625161,59.6510725 L76.9625161,59.6510725 Z M76.0206873,71.2331118 L76.0206873,68.4356193 C77.545032,69.5176435 77.5393425,69.8755438 76.0206873,71.2331118 L76.0206873,71.2331118 Z M76.6172081,64.8566163 C77.2154795,63.7391087 77.7958071,64.3059667 78.4273401,64.7050453 C77.8890271,65.6867522 77.2964452,65.3262235 76.6172081,64.8566163 L76.6172081,64.8566163 Z M80.9981127,66.1817674 C80.2746726,67.3908308 79.7783743,66.2352115 78.9498976,66.2238217 C79.8917264,65.0239577 80.3849611,65.8448942 80.9981127,66.1817674 L80.9981127,66.1817674 Z M78.2409,63.5205136 C79.2882032,62.1016163 79.9284892,61.9009819 81.0799538,62.6772356 C79.3928022,64.3147281 79.3928022,64.3147281 78.2409,63.5205136 L78.2409,63.5205136 Z M79.6733377,49.4888066 C79.5936848,49.5663444 79.5131567,49.6443202 79.4330663,49.7222961 C79.1761641,49.4796072 78.8912521,49.2601359 78.6680491,48.9898489 C78.0859709,48.2876284 77.5301518,47.5639426 76.9660174,46.8472658 C76.0163108,45.6403927 76.0171861,45.6395166 77.2535553,44.554864 C78.0575235,46.1941087 78.8654306,47.8412386 79.6733377,49.4888066 L79.6733377,49.4888066 Z M79.8081347,44.8987462 C79.9643768,45.128293 79.4269391,45.8318278 79.2037362,46.3202719 L78.7625822,46.2536858 L77.8973425,44.1842598 L78.2417753,43.8408157 C78.7857778,44.1785649 79.4790198,44.4146828 79.8081347,44.8987462 L79.8081347,44.8987462 Z M80.4230369,42.6519033 C79.9985137,42.485438 79.5766164,42.3110876 79.1074526,42.1214048 C79.8335186,41.4169939 80.663746,41.3333232 82.3167606,41.746858 C81.6799758,43.1438519 81.6795381,43.1451661 80.4230369,42.6519033 L80.4230369,42.6519033 Z M82.3548364,48.4251812 C81.7373083,48.6906495 81.2134379,48.9162538 80.5805919,49.187855 C80.1499416,48.4979003 79.7424868,47.843867 79.27201,47.0895166 C79.6838413,46.7574622 80.063724,46.4516918 80.5271983,46.0780211 C81.1254697,46.8459516 81.6913548,47.573142 82.3548364,48.4251812 L82.3548364,48.4251812 Z M81.1587313,45.1734139 C82.8730174,45.3170997 83.2787215,46.5826737 83.8752423,47.7290936 C82.9675504,48.0024471 81.6278951,46.7219788 81.1587313,45.1734139 L81.1587313,45.1734139 Z M74.0993914,50.6689577 C72.365411,48.8614954 70.5832888,47.1000302 68.8265504,45.3140332 C68.4484183,44.9294109 68.1057362,44.5097432 67.5394134,43.8732326 C68.912768,43.7663444 69.9885186,43.6822356 71.0559538,43.5985649 C71.4620956,46.492432 73.3313108,48.3384441 75.0110222,50.2865257 C75.1716408,50.473142 75.5996653,50.4280211 75.9524134,50.3645015 C74.4840883,48.1772356 72.4945186,46.4324169 71.7710785,43.86929 C73.1855724,43.1675075 74.133966,43.2910423 74.3698609,44.2863293 C74.587812,45.2058308 74.5239147,46.1927945 74.5930638,47.2989124 C74.9121127,47.1087915 75.2683621,46.8963293 75.6548095,46.6654683 C76.6062667,47.8061933 77.5616628,48.9517371 78.515746,50.0946525 C77.6014892,50.82929 76.0009929,51.0649698 75.5607142,52.667855 C78.5319391,51.3483988 81.4151958,50.0679305 84.2761323,48.7966616 C84.7413572,49.1019939 85.1164257,49.3477492 85.7418315,49.7577794 C85.5593303,49.1611329 85.4643597,48.8492296 85.370702,48.5430211 C86.3873694,47.7255891 86.8434037,48.5955891 87.600543,49.221148 C86.8066408,49.635997 86.1457851,49.95929 85.5046237,50.3193806 C83.1504892,51.6423414 80.7862888,52.9499698 78.4636653,54.3268127 C77.8575161,54.6860272 77.3612178,54.7718882 76.6933597,54.5454078 C73.1177362,53.3310876 69.5267949,52.114577 65.7319073,51.8447281 C63.6097289,51.6944713 61.4691689,51.818006 59.1767435,51.818006 C60.8884037,50.6715861 68.942966,50.9033232 75.0189,52.2346072 C74.6333279,51.5630513 74.450389,51.0351812 74.0993914,50.6689577 L74.0993914,50.6689577 Z M68.7429587,66.9921903 C68.0138291,65.5325528 66.9196971,59.9896979 67.1717851,58.6316918 C68.5600198,59.054426 68.7893499,59.4508761 68.7574012,60.7571903 C68.7044452,62.9225528 68.7429587,65.0901057 68.7429587,66.9921903 L68.7429587,66.9921903 Z M73.648609,68.960861 L73.648609,65.1619486 C75.8136775,66.4213897 75.8215553,67.4433988 73.648609,68.960861 L73.648609,68.960861 Z M71.5907655,59.6532628 C70.7277142,58.7013444 69.6432105,57.9504985 68.6576164,57.110287 C68.6952545,57.0301208 68.733768,56.9499547 68.7718438,56.8693504 C70.8292496,57.7086858 72.8870932,58.5480211 74.9628804,59.3952417 C74.7265479,59.9419486 74.5479856,60.3541692 74.3295968,60.8596979 C75.2828046,60.9700906 75.6898218,59.6059516 76.6754159,60.2779456 C77.3213914,60.7186405 78.0737166,61.0042598 78.7884037,61.3639124 C77.6325626,62.9041541 77.2417386,62.9637311 75.5856604,62.3267825 C74.0376824,61.7314501 72.7190345,60.8978096 71.5907655,59.6532628 L71.5907655,59.6532628 Z M82.0734257,69.8921903 C82.0458535,69.9570241 82.0069024,70.0170393 81.9613866,70.0621601 C81.8677289,70.1554683 81.7289929,70.213293 81.5963841,70.213293 L80.483433,70.213293 C80.3442594,70.213293 80.219966,70.1545921 80.1193059,70.0621601 C80.0177704,69.96929 79.9740051,69.830861 79.967878,69.6972507 C79.9626262,69.5684592 80.029587,69.422145 80.1193059,69.3319033 C80.2125259,69.2390332 80.3516995,69.1812084 80.483433,69.1812084 L80.7805993,69.1812084 C80.758279,69.1724471 80.7363963,69.1641238 80.714076,69.1558006 C80.6243572,69.1233837 80.5346384,69.0935951 80.4436066,69.065997 C80.2549782,69.0081722 80.0628487,68.9612991 79.8698438,68.9218731 C79.5866824,68.8644864 79.45101,68.5442598 79.5096555,68.2871148 C79.5744281,68.0023716 79.8803474,67.8727039 80.1442521,67.926148 C80.9679147,68.0939275 81.8287778,68.4132779 82.4384281,69.013867 C82.6436873,69.2166918 82.6261812,69.5391087 82.4384281,69.7441238 C82.3430198,69.8475075 82.2082227,69.8948187 82.0734257,69.8921903 L82.0734257,69.8921903 Z M80.8580638,72.7628399 C80.8396824,72.7624018 80.8208633,72.7597734 80.8016066,72.7597734 C80.6615577,72.7580211 80.5385773,72.7015106 80.4374795,72.6082024 C80.3355064,72.5153323 80.2921787,72.3769033 80.2860516,72.243293 C80.2799244,72.1145015 80.347323,71.9677492 80.4374795,71.8783837 C80.5298242,71.7855136 80.6703108,71.7259365 80.8016066,71.7267938 C81.2392594,71.7311933 81.6331469,71.9243806 82.0160932,72.1158157 C82.1351347,72.1758308 82.2125993,72.3011178 82.2528633,72.4242145 C82.2957533,72.5573867 82.2638046,72.7023867 82.2007826,72.8219788 C82.1416995,72.9336858 82.0121543,73.0261178 81.8926751,73.0589728 C81.7548144,73.0970846 81.6200174,73.0694864 81.495724,73.0072809 C81.3924379,72.9555891 81.2887142,72.9065257 81.1836775,72.8592145 C81.0777655,72.8175982 80.9696653,72.783867 80.8580638,72.7628399 L80.8580638,72.7628399 Z M81.2860883,74.4493957 C81.2707704,74.4200453 81.2545773,74.3902568 81.2357582,74.3626586 C81.2340076,74.3613444 81.2331323,74.3600302 81.232257,74.358716 C81.1337851,74.2588368 81.0869562,74.1313595 81.0808291,73.9938066 C81.0751396,73.8562538 81.1416628,73.7274622 81.232257,73.6288973 C81.3189122,73.5338368 81.4699024,73.4773263 81.5963841,73.4773263 C81.7281176,73.4773263 81.8690418,73.534713 81.9613866,73.6288973 C82.1163156,73.7861631 82.2353572,73.9872356 82.2944403,74.2010121 C82.316323,74.279864 82.3255137,74.365287 82.3333914,74.4458912 C82.3373303,74.4861933 82.3382056,74.5264954 82.3351421,74.5667976 C82.327702,74.648716 82.3185112,74.734139 82.2966286,74.8143051 C82.273433,74.8957855 82.2375455,74.9741994 82.2007826,75.0499849 C82.1425748,75.1700151 82.0147802,75.2471148 81.8926751,75.2869788 C81.7596286,75.3299093 81.6152032,75.2983686 81.495724,75.2348489 C81.3836848,75.1757099 81.2913401,75.0460423 81.2585161,74.9264501 C81.2370711,74.8581118 81.2340076,74.7888973 81.2493254,74.7205589 C81.251076,74.6719335 81.2655186,74.6263746 81.2847753,74.583006 C81.2917778,74.5637311 81.2957166,74.5444562 81.3005308,74.5247432 L81.3005308,74.5024018 C81.2961543,74.4844411 81.2917778,74.4669184 81.2860883,74.4493957 L81.2860883,74.4493957 Z M94.1329489,33.5852417 C93.7303083,34.4451661 93.4782203,35.3988368 92.9162741,36.1045619 C91.1634746,38.3049698 89.29601,40.4138217 87.4666213,42.5533383 C87.0499758,43.0409063 86.6083841,43.5078852 86.0490638,44.1273112 C88.6867973,44.1111027 94.3557142,37.014864 94.8082472,33.3653323 C96.1177044,33.4538217 97.4394159,33.5431873 98.761565,33.6329909 C98.8263377,33.7236707 98.8906726,33.8147885 98.9554452,33.9059063 C97.4127191,35.4597281 95.8568633,37.0008459 94.3316433,38.5713142 C92.8147386,40.1317069 91.3284697,41.7218882 89.8982203,43.4421752 C96.2192399,42.755287 102.465421,41.7096223 108.773748,42.5800604 C108.78469,42.682568 108.795631,42.7855136 108.806572,42.8880211 C108.685343,42.9243806 108.559299,43.0027945 108.442883,42.9909667 C102.101294,42.3413142 96.0555577,43.7247281 90.107856,45.707855 C89.1393303,46.0307099 88.3200443,46.0679456 87.391345,45.5856344 C86.2700785,45.002568 85.0669709,44.5776435 83.7478853,44.0199849 C84.557543,43.0299547 85.3291249,42.1104532 86.0731347,41.1690483 C87.2569856,39.6730513 88.4408364,38.1770544 89.5839856,36.6503927 C90.0098218,36.0822205 90.3673841,35.4505287 90.6741787,34.8083232 C91.5009049,33.0788368 92.0182105,32.8545468 94.1329489,33.5852417 L94.1329489,33.5852417 Z M100.208883,33.9002115 C100.866237,33.9615408 101.512651,34.1415861 102.16344,34.2747583 L102.304802,34.569139 C99.7112716,36.777432 97.1168658,38.9857251 94.5228976,41.1940181 C94.5872325,41.2917069 94.6515675,41.3889577 94.7159024,41.4862084 C95.1329856,41.2627945 95.6003988,41.1007099 95.9583988,40.8058912 C97.9829807,39.1408006 100.103409,37.5646374 101.942863,35.7116163 C103.054939,34.5919184 103.980575,34.4166918 105.484788,35.3107855 C103.455391,37.1033535 101.4737,38.853867 99.4924452,40.6043806 C99.5471518,40.7020695 99.6027337,40.8001964 99.657878,40.8978852 C100.10691,40.67929 100.625091,40.5412991 100.992719,40.2272054 C102.442663,38.9909819 103.952565,37.7963746 105.225259,36.3914954 C105.980211,35.558293 106.584609,35.3243655 107.534316,35.8206948 C107.808286,35.9643806 108.107641,36.0585649 108.656895,36.2819788 C107.005631,37.7297885 105.437521,38.9576888 104.054976,40.3673867 C103.118836,41.3232477 102.102169,41.6517976 100.829475,41.7389728 C97.8289269,41.9453021 94.8358193,42.2620241 91.6855944,42.5480815 C92.0794819,42.1270997 92.4212888,41.7626284 92.7617826,41.3968429 C94.9798071,39.0141994 97.1912667,36.6267371 99.424609,34.259426 C99.6119244,34.0609819 99.9572325,33.8769939 100.208883,33.9002115 L100.208883,33.9002115 Z M102.826047,29.4893202 C104.054976,30.5849245 105.284343,31.6805287 106.681768,32.9263897 C105.161362,32.8322054 103.868098,31.7011178 102.826047,29.4893202 L102.826047,29.4893202 Z M107.218768,30.8201661 C107.00957,30.4705891 106.862519,30.1573716 107.452912,30.0640634 C106.465567,29.6702417 105.926379,28.8988066 105.603829,27.9131571 C107.470856,27.8610272 108.119895,28.3293202 108.586871,30.1267069 C108.172851,30.0964803 107.795157,30.0688822 107.4179,30.0408459 C109.396528,31.0155438 109.396528,31.0155438 109.80267,32.1527643 C109.495438,32.2062084 109.200898,32.2574622 108.906357,32.308716 C109.997863,32.823006 111.037726,33.3859214 111.246487,34.8775377 C110.139663,34.5888519 109.145316,34.3010423 108.59256,33.1848489 C108.188169,32.3696072 107.685306,31.603429 107.218768,30.8201661 L107.218768,30.8201661 Z M104.434858,26.3404985 C104.486939,26.2077643 104.539457,26.0750302 104.591976,25.9431722 C105.566629,25.9431722 106.542594,25.9839124 107.514621,25.9326586 C108.898042,25.8603776 110.276648,25.7009214 111.660069,25.6233837 C111.954171,25.6071752 112.419396,25.6882175 112.534499,25.8835951 C114.704819,29.5747432 117.058078,33.1769637 118.310641,37.3320241 C118.321144,37.3670695 118.303638,37.410438 118.280443,37.6193957 C116.031345,37.1173716 113.841768,36.5106495 111.949795,35.1846223 C111.502951,34.8714048 111.374719,34.1030362 110.963763,33.2658912 C112.842607,33.6491994 114.439164,33.9751208 116.036159,34.3006042 C116.063731,34.2081722 116.090428,34.1161782 116.118,34.0237462 C115.564807,33.8498338 115.017303,33.6553323 114.457545,33.5063897 C113.499523,33.250997 112.543252,32.9640634 111.567724,32.8024169 C110.636399,32.6473414 110.226756,32.0892447 109.902455,31.0063444 C111.238609,31.2985347 112.401453,31.5521752 113.563858,31.8062538 L113.601497,31.6752719 C112.599709,31.3940332 111.608863,31.0575982 110.592196,30.845574 C109.371144,30.5906193 108.910296,29.7004683 108.339159,28.5220695 C109.912083,28.8256495 111.253927,29.0841087 112.595333,29.343006 C112.610651,29.2532024 112.625968,29.1638368 112.641724,29.0740332 C110.39,28.4567976 108.130836,27.8671601 105.893993,27.2021752 C105.367934,27.0457855 104.918902,26.6344411 104.434858,26.3404985 L104.434858,26.3404985 Z M119.115047,40.2079305 C118.135142,39.4951964 117.186311,38.8043655 116.179709,38.0714803 C118.713281,38.1301812 118.903223,38.2690483 119.115047,40.2079305 L119.115047,40.2079305 Z M49.2989196,50.2992296 C46.9911763,46.1573112 43.3315235,43.2980513 40.0504403,40.0966616 C40.115213,40.0432175 40.1852374,39.9569184 40.209746,39.9683081 C43.0921274,41.3306948 45.9259293,42.8337009 48.1400149,45.1510725 C49.4389685,46.5112689 49.5527582,48.4256193 49.2989196,50.2992296 L49.2989196,50.2992296 Z M27.5178144,50.1384592 C30.7065528,48.6354532 33.9180491,47.2226888 37.5606335,47.468006 C34.2125895,48.3581571 30.8654208,49.2483081 27.5178144,50.1384592 L27.5178144,50.1384592 Z M24.2214134,49.1953021 C23.5237949,49.5882477 22.8349293,49.9995921 22.1460638,50.4087462 C24.0397875,49.1786556 25.9326359,47.9446223 27.8381763,46.7338066 C28.0416848,46.604139 28.3541689,46.6461933 28.6535235,46.7399396 C27.1755699,47.5569335 25.6928022,48.3656042 24.2214134,49.1953021 L24.2214134,49.1953021 Z M18.5061054,51.501722 C19.2019733,49.0796525 22.0130174,47.1924622 25.076587,47.1061631 C22.8791323,48.5767522 20.6926188,50.0390181 18.5061054,51.501722 L18.5061054,51.501722 Z M14.4726971,55.1183988 C15.2320247,52.6761782 16.0438707,50.2720695 18.9328169,49.1510574 C17.3616433,51.2533383 15.917389,53.1856495 14.4726971,55.1183988 L14.4726971,55.1183988 Z M65.109565,26.8622356 C65.2631812,26.7251208 65.5485308,26.6427643 65.7542276,26.6721148 C67.3324037,26.8929003 68.9062032,27.1474169 70.4813156,27.3909819 C70.4996971,27.4396072 70.5176408,27.4873565 70.5364599,27.5351057 L63.4618022,28.9491843 C63.4022814,28.8401057 63.3427606,28.7310272 63.2832399,28.6219486 C63.8885137,28.031435 64.4810956,27.4260272 65.109565,26.8622356 L65.109565,26.8622356 Z M95.1124159,14.2814048 L95.1329856,14.1070544 C96.4857704,13.9975377 97.8381176,13.8884592 99.1913401,13.7780664 C99.3095064,13.768867 99.4285479,13.7609819 99.5454012,13.7403927 C100.270592,13.6137915 101.197978,13.142432 101.677208,13.4271752 C102.620788,13.9883383 103.314905,14.9696072 104.038345,16.0231571 L95.1124159,14.2814048 Z M177.884379,49.1545619 C175.148174,47.5144411 172.325751,45.9877794 169.138325,45.5208006 C167.435418,45.2711027 166.494027,44.1435196 165.353066,43.1429758 C169.612303,43.6103927 173.620766,44.9850453 177.677807,46.3377945 C177.429658,45.8914048 177.139056,45.5045921 176.753484,45.3385649 C173.01768,43.7312991 169.18778,42.399577 165.080409,42.2694713 C163.084274,42.2063897 162.045724,40.7445619 160.632105,39.783006 C165.736012,39.8070997 170.768144,40.1032326 175.838352,41.523006 C175.584076,40.4330967 174.866763,40.2302719 174.204594,40.0699396 C169.975118,39.044864 165.670365,38.4179909 161.340228,38.8661329 C159.105135,39.0969939 157.599171,38.0986405 155.981169,36.9228701 C161.754685,36.2381722 167.537829,36.4532628 173.359924,36.5115257 C172.871504,36.1286556 172.351572,35.8474169 171.818511,35.8198187 C169.083181,35.6778852 166.341724,35.4737462 163.608144,35.538142 C161.040435,35.5985951 158.433338,35.7462235 155.933465,36.2771601 C154.298394,36.6245468 153.205137,35.8570544 151.885176,35.4443957 C152.270311,35.2139728 152.64144,35.0764199 153.023511,34.9927492 C155.775034,34.3895317 158.510365,33.6868731 161.285959,33.2286556 C165.008196,32.6144864 168.70111,31.4855891 172.625105,32.1058912 C172.265792,31.7545619 171.858775,31.4216314 171.399678,31.3195619 C170.787839,31.1833232 170.132235,31.1631722 169.502015,31.2030362 C163.732438,31.5745166 158.0377,32.4848187 152.625247,34.5218278 C150.642242,35.268293 148.910012,35.0444411 147.014538,34.5901661 C152.899656,32.0432477 159.044301,30.3790332 165.319805,29.0775377 C164.7688,28.9491843 164.220858,28.8659516 163.705741,28.9614501 C157.833316,30.0504834 152.078181,31.5215106 146.726125,34.2817674 C146.415391,34.4416616 146.063081,34.6081269 145.726088,34.6151359 C144.1501,34.6506193 142.572362,34.6313444 140.788489,34.6313444 C143.768905,32.5601661 146.873176,30.9993353 149.996704,29.4972054 C153.134237,27.9880664 156.344858,26.6313746 159.523531,25.2080967 C159.503836,25.0990181 159.484142,24.9899396 159.46401,24.8812991 C158.570761,25.0425075 157.624993,25.0670393 156.79214,25.3868278 C151.210753,27.5320393 145.800927,30.0798338 141.0327,33.7065861 C139.134599,35.1504532 137.08157,35.0273565 135.00622,35.4023414 C140.456311,30.7881873 146.569008,27.3651359 153.265096,24.9846828 C152.453687,24.5014954 152.35434,24.4208912 150.966105,24.9553323 C145.363712,27.1123716 140.097873,29.889713 135.678017,34.015861 C134.39088,35.2174773 133.123,36.1829758 131.380267,36.566284 C130.291824,36.8054683 129.263778,37.3206344 128.209034,37.7122658 C130.054616,34.9226586 132.545299,32.8878399 135.145832,31.0116012 C137.72492,29.1506948 140.432678,27.4676435 143.083103,25.7061782 C142.051555,25.8739577 141.035763,26.1635196 140.136824,26.6633535 C136.502555,28.6824018 133.204841,31.1863897 130.253748,34.1025982 C129.087404,35.2542749 128.233543,36.724426 127.234382,38.0465106 C127.118404,38.2002719 127.004614,38.3785649 126.847059,38.4758157 C125.198858,39.486435 123.541905,40.4830362 121.887577,41.483142 C122.16111,40.778293 122.523487,40.1347734 122.984335,39.5731722 C126.455797,35.3436405 130.406489,31.6082477 134.688922,28.2110423 C135.592237,27.4948036 136.373885,26.6248036 137.21199,25.8257704 C137.131462,25.7149396 137.050059,25.6041087 136.969531,25.4932779 C132.029744,27.2385347 127.426074,29.6680513 123.049545,32.5912689 C124.787027,29.1949396 127.598509,26.9318882 130.828387,25.1239879 C133.98824,23.3559516 137.15991,21.6006193 140.81256,20.8585347 C140.180152,20.6487009 139.560435,20.5488217 138.983609,20.6649093 C135.982624,21.2698791 133.325196,22.7220695 130.663829,24.1514803 C129.875616,24.5746525 129.107098,25.0341843 128.328951,25.4775075 L128.184088,25.2593504 C130.060306,23.6214199 131.563206,21.4302115 134.135291,20.7717976 C137.20455,19.9854683 140.323264,19.3804985 143.438915,18.7939275 C145.129567,18.4754532 146.858296,18.3571752 148.569956,18.1486556 C148.564267,18.0531571 148.557702,17.9576586 148.551137,17.861722 C146.383443,17.3391087 144.223626,17.9151661 142.083942,18.1867674 C139.888675,18.4653776 137.723169,18.981858 135.544971,19.3940785 C136.712629,18.4977945 138.008956,17.8958912 139.205061,17.136284 C140.893964,16.0630211 142.63801,15.9745317 144.558868,16.3070241 C147.52878,16.8217522 150.529766,17.163006 153.521998,17.5419335 C154.051558,17.6085196 154.602563,17.5025075 155.143939,17.4757855 C155.150942,17.3163293 155.158819,17.1568731 155.166259,16.9974169 C151.645343,16.0310423 147.955929,15.8680815 144.424509,14.9012689 C149.670653,13.6116012 154.560548,15.0248036 159.429435,16.8274471 C156.67266,14.282719 153.018697,14.1850302 149.610257,13.2436254 C150.893455,12.9413595 152.191971,12.6246374 153.446284,12.7512386 C156.819712,13.0938066 159.818071,14.6261631 162.836563,16.0503172 C163.209443,16.2259819 163.578384,16.4099698 163.949514,16.589577 C164.006846,16.4734894 164.064616,16.3578399 164.121949,16.2417522 C161.95688,14.4960574 159.231179,13.7723716 156.79389,12.4546677 C157.347959,12.3758157 157.891523,12.3455891 158.400076,12.4643051 C160.176946,12.8791541 161.938937,13.3553323 163.713181,13.7841994 C164.073369,13.8709365 164.459817,13.8507855 164.83401,13.8796979 C164.863333,13.7311933 164.892218,13.5826888 164.921541,13.4341843 C162.532394,12.3236858 159.979127,11.7239728 157.367215,11.1676284 C158.835103,10.9402719 160.30299,10.7133535 161.770878,10.4855589 C161.755122,10.3440634 161.738929,10.202568 161.722736,10.0610725 C158.028509,9.83152572 154.369731,11.3073716 150.562589,10.2910574 C153.395954,9.04300604 156.22888,7.79539275 159.062682,6.54734139 C159.051741,6.45009063 159.040362,6.35371601 159.029421,6.25646526 C158.567259,6.29589124 158.051267,6.21441087 157.651252,6.39314199 C154.757929,7.68280967 151.907934,9.07148036 149.004108,10.3374924 C146.353682,11.4926737 143.653365,12.5330815 140.975367,13.6243051 L140.834443,13.3237915 C144.618389,9.99492452 148.740203,7.13216012 153.188069,4.63167674 C152.688707,3.80679758 152.098751,3.98728097 151.583196,4.28122356 C149.859281,5.26468278 148.190074,6.34802115 146.446902,7.29512084 C142.113702,9.6484139 139.126722,13.6532175 135.118259,16.4353776 C131.975037,18.6173867 129.201193,21.3303323 126.320125,23.7598489 C126.43479,23.3747885 126.500438,22.7724471 126.776159,22.2914501 C128.179274,19.8470393 129.391135,17.2370393 131.129929,15.0528399 C134.14667,11.2644411 137.506093,7.7489577 140.709274,4.10818731 C141.111915,3.65084592 141.439279,3.12691843 141.801218,2.63409365 C141.683927,2.51143504 141.566198,2.38965257 141.448907,2.26743202 C140.893964,2.58283988 140.244487,2.80055891 139.800707,3.23117825 C137.833457,5.13983384 135.866208,7.05462236 134.008372,9.06885196 C130.622252,12.740287 127.592819,16.675438 125.799318,21.4113746 C125.441318,22.3575982 124.660108,23.3073263 125.466264,24.4270241 C125.551169,24.544426 125.404993,24.894003 125.283763,25.0836858 C124.741949,25.928716 124.170812,26.7549093 123.610616,27.5881118 C123.514333,27.0987915 123.627247,26.7273112 123.745413,26.3567069 C124.842609,22.9117522 125.958186,19.4716163 127.018181,16.0148338 C127.165233,15.535151 127.038313,14.9709214 127.038313,14.4456797 C126.902641,14.4198338 126.767844,14.3935498 126.632609,14.3677039 C126.412907,14.8022658 126.141125,15.2179909 125.982257,15.67358 C123.987435,21.3758912 122.011871,27.0843353 120.025365,32.7883988 C119.745704,33.5918127 119.3028,34.3338973 119.74658,35.2621601 C119.932144,35.6498489 119.777215,36.2000604 119.777215,36.6766767 C119.092726,35.386571 118.620937,34.0916465 118.220047,32.7752568 C118.145208,32.5303776 118.329022,32.1860574 118.441061,31.9074471 C119.032768,30.4346677 119.818792,29.0140181 120.20524,27.4912991 C121.103303,23.9521601 121.912961,20.3827945 122.565939,16.7906495 C123.155457,13.5498338 123.496389,10.2630211 123.928352,6.99416918 C124.01457,6.33882175 124.068401,5.65061933 123.118695,5.22569486 C121.824993,14.1526133 120.592563,22.9989275 117.801651,31.8154532 C117.192,30.5709063 116.82656,29.5396979 116.227413,28.6696979 C115.36655,27.4190181 115.471587,26.4850604 116.377966,25.2225528 C119.055526,21.4915408 120.24244,17.149864 120.937433,12.6723867 C121.315127,10.2406797 121.605729,7.79320242 121.846876,5.34397281 C121.90202,4.78456193 121.589098,4.18835347 121.445986,3.60922961 C121.327819,3.63814199 121.210091,3.66617825 121.092362,3.69465257 C120.428005,11.5202719 119.041521,19.1426284 114.927147,26.2178399 C114.328,25.0508308 113.827325,24.0756948 113.542413,23.5211027 C114.444854,21.6106948 115.419506,20.1125075 115.867663,18.4701964 C116.629179,15.6827794 117.128103,12.8156344 117.601206,9.95900302 C117.891807,8.20191843 117.959206,6.40453172 118.059428,4.62160121 C118.094878,3.98859517 118.038858,3.28506042 117.244081,2.97534743 C116.656313,9.68214502 115.875541,16.2496374 113.134083,22.6686254 C112.317423,21.5287764 111.664445,20.6798036 111.095059,19.7778248 C110.943631,19.5377643 110.927876,19.0769184 111.05392,18.8167069 C112.742384,15.3318882 113.568673,11.6074471 113.956871,7.79977341 C114.17701,5.64273414 114.081164,3.44714501 114.018142,1.27214501 C114.005888,0.840649551 113.498211,0.423610272 113.219426,0 C113.12533,0.060453172 113.03211,0.120468278 112.938453,0.18092145 C113.353347,6.43738671 111.996624,12.3937764 110.075766,18.5052417 C109.364142,17.7662235 108.819702,17.2891692 108.394741,16.7223112 C108.173726,16.4266163 108.00523,15.9355438 108.08357,15.5947281 C109.016646,11.5259667 109.12956,7.4002568 109.003078,3.25746223 C108.985135,2.66782477 108.866968,2.07293051 108.720355,1.49993958 C108.674839,1.32296072 108.380736,1.21037764 108.041118,0.941842901 C108.26257,5.95200906 107.871308,10.6752417 107.17544,15.6118127 C106.647193,15.1426435 106.295758,14.8377492 105.950888,14.5240936 C104.657186,13.346571 103.398059,12.127432 102.059279,11.0042296 C101.494269,10.5311178 100.795775,10.1648942 100.099032,9.91738672 C99.3480198,9.65016616 98.1169024,10.3615861 98.046878,8.80951662 C98.0442521,8.75738671 97.8433694,8.67546828 97.7330809,8.67240181 C96.7085357,8.64261329 96.2332447,7.85935045 95.7076237,7.17509063 C94.9815577,6.22930513 94.3233279,5.22963746 93.5806311,4.29699396 C93.3482374,4.00436556 92.9368438,3.85454683 92.6068535,3.63858006 L92.2597949,4.00261329 C93.0900222,5.36149547 93.919812,6.72037764 94.8712692,8.27770393 C94.2795626,8.04990936 93.8847998,7.9070997 93.497477,7.7463293 C92.5442692,7.35163142 91.601565,6.92802115 90.6396042,6.55741692 C90.0321421,6.32261329 89.4894526,6.35853474 89.2999489,7.08178248 C90.6299758,7.66966767 91.8689709,8.29347432 93.1626726,8.7679003 C94.4292399,9.23181269 95.7518267,9.54371601 97.0499049,9.92220542 L96.9855699,10.2643353 C94.1097533,10.571858 91.2339367,10.8776284 88.2618364,9.78990932 C88.4329587,11.1689426 89.4557533,11.2232628 90.2741641,11.362568 C92.7753499,11.7874924 95.2568413,11.6495015 97.6941298,10.8877039 C97.9733523,10.8009667 98.3755553,10.7470846 98.5904428,10.8837613 C99.4088535,11.4033081 100.173871,12.0074018 100.95902,12.5799547 L100.848731,12.8712689 C96.7312936,13.5726133 92.5683401,12.9295317 88.3988218,13.1218429 C88.7957729,13.4403172 89.2141689,13.6098489 89.6465699,13.6580362 C90.9275797,13.8004078 92.1381274,14.1604985 93.3797484,14.4956193 C96.8516482,15.4326435 100.436025,15.989426 104.000707,16.5264954 C105.064641,16.6872658 105.702301,17.0911631 106.350902,18.0610423 C101.292511,18.329139 96.4704526,18.0531571 91.6623988,16.82 C92.0786066,17.2655136 92.5442692,17.6593353 93.0760174,17.7986405 C97.3440076,18.9135196 101.664516,19.3288066 106.057675,18.6708308 C106.464692,18.6099396 107.038017,18.5380967 107.287042,18.7549396 C108.010482,19.3861933 108.608316,20.1611329 109.442482,21.0880815 C104.501382,21.8923716 99.9029636,21.2002266 95.2739098,21.0026586 C95.6157166,21.3382175 95.9754672,21.5708308 96.3662912,21.6466163 C97.2219024,21.8126435 98.089768,21.9620241 98.9580711,22.007145 C102.084663,22.1709819 105.220883,22.6156193 108.332157,21.8476888 C109.921274,21.4551812 109.949722,21.4621903 110.75369,23.3195921 C106.049797,23.1759063 101.479827,23.0370393 96.9089807,22.8972961 C97.2525381,23.2170846 97.6306702,23.457145 98.0324355,23.5066465 C102.063218,24.00429 106.10144,24.2947281 110.152355,23.7388217 C111.386973,23.5697281 111.526147,23.6595317 111.822876,25.0547734 L99.2276653,25.0547734 C99.2145357,25.157719 99.2009685,25.2597885 99.1878389,25.3622961 C100.022443,25.4761933 100.859235,25.573006 101.6899,25.7088066 C102.472861,25.8371601 103.447514,25.4494713 103.995455,26.2528852 C103.962193,26.3584592 103.929807,26.4635951 103.897421,26.5687311 C103.314905,26.4723565 102.731951,26.3755438 102.148998,26.2787311 C102.121863,26.3790483 102.094729,26.4789275 102.067157,26.5788066 C102.530193,26.7443957 103.001108,26.8898338 103.453203,27.0799547 C103.882541,27.260438 104.462868,27.3756495 104.681695,27.7125226 C105.92813,29.6290634 107.085722,31.6025528 108.273949,33.5567674 C108.205237,33.6329909 108.136088,33.7092145 108.067377,33.785 C107.717255,33.4766012 107.340435,33.191858 107.021387,32.8536707 C106.369284,32.1624018 105.850228,31.2985347 105.096152,30.7575226 C102.137619,28.6329003 99.1130002,26.5993957 96.0988853,24.5523112 C95.7793988,24.3354683 95.3771958,24.2163142 94.9960002,24.1212538 C94.7329709,24.0555438 94.4397435,24.1089879 94.1592081,24.1089879 C98.2967778,25.8910423 101.117888,29.1993202 104.134629,32.2868127 C103.556489,32.1496979 103.043998,31.9083232 102.620788,31.5591843 C99.7830467,29.2172809 96.6984697,27.266571 93.372746,25.7066163 C92.443609,25.2711782 91.4527631,24.9443806 90.4614795,24.6740936 C90.0667166,24.5663293 89.5936139,24.7472507 89.1559611,24.7967522 C89.1739049,24.894003 89.191411,24.9912538 89.2093548,25.0880664 C93.7421249,26.2563897 97.4612985,28.9193957 101.16603,31.636722 C99.9922447,31.3870241 98.9134306,30.9366918 97.8354917,30.4841692 C94.9487337,29.2729154 92.0873597,27.9928852 89.161213,26.884139 C88.0749587,26.4723565 86.8412154,26.416284 85.6652423,26.2927492 C85.2879856,26.2537613 84.8783425,26.5196677 84.4835797,26.6458308 C88.9559538,27.1031722 92.8169269,28.9452417 96.6573303,30.8464501 C95.224455,30.4359819 93.8524134,29.8200604 92.4177875,29.4450755 C90.9652178,29.0652719 89.4566286,28.8795317 87.9620443,28.6916012 C86.4263205,28.4988519 84.8805308,28.3669939 83.3347411,28.282009 C81.9093059,28.2040332 80.4414183,27.8553323 79.0798804,28.4984139 L79.084257,28.8230211 L88.0123743,29.5716767 C88.0145626,29.6601661 88.0167509,29.7490936 88.0185015,29.8375831 C87.6491225,29.8726284 87.2806188,29.9199396 86.9112399,29.9409667 C84.6503254,30.0684441 82.3832839,30.127145 80.1302472,30.337855 C78.8391714,30.4583232 77.4575015,30.5354229 76.523988,31.6060574 C80.2978682,31.2980967 84.0599318,30.9918882 87.8219954,30.6852417 C87.8294355,30.7890634 87.8373132,30.8924471 87.8447533,30.9962689 C86.674032,31.3383988 85.4682985,31.5924773 84.3387166,32.0393051 C81.3849978,33.2063142 78.4422203,34.4092447 75.5410198,35.6993504 C74.3567313,36.2263444 73.2914844,37.0196828 72.1671543,37.6824773 C71.974587,37.7963746 71.7627631,37.8931873 71.5478756,37.9518882 C71.0463254,38.0881269 70.4541812,38.06929 70.0445381,38.3373867 C68.1197411,39.5990181 66.2514012,40.9469486 64.3441103,42.2370544 C64.0228731,42.4543353 63.6766897,43.0614954 63.206213,42.3934441 L70.1762716,36.2061933 C68.9053279,36.9035951 67.6724599,37.6715257 66.4662888,38.4793202 C65.2811249,39.2730967 64.0613866,40.03358 62.9703181,40.9451964 C61.9063841,41.8357855 60.9864379,42.8989728 60.0034697,43.8863746 C59.9172521,43.8053323 59.8310345,43.7238519 59.7443792,43.6432477 C60.3855406,42.6448942 61.1120443,41.6912235 61.645543,40.6385498 C62.3409733,39.2669637 63.1782032,38.1542749 64.7997068,37.884864 C64.8264037,37.8809214 64.8347191,37.7700906 64.8596653,37.680287 C64.37212,37.7236556 63.8950785,37.7665861 63.4184746,37.8090785 C63.3917778,37.6662689 63.3663939,37.5238973 63.3401347,37.3810876 C64.6522178,37.2093655 65.964301,37.0385196 67.2763841,36.8667976 C67.2610663,36.7691087 67.2457484,36.671858 67.2299929,36.5746072 L56.6869367,36.5746072 C56.9123279,35.6130513 57.234878,35.2529607 58.2077802,35.4238066 C61.5291274,36.006435 64.8596653,35.6945317 68.1761983,35.2621601 C68.5350736,35.215287 68.8742545,35.0129003 69.481279,34.7859819 C65.3669049,34.9077643 61.5943377,35.0190332 57.8222081,35.1307402 C58.1325039,34.252855 58.1740809,33.3622658 59.2305748,33.672855 C62.6919709,34.6904834 66.164746,34.1004078 69.6318315,33.7096525 C70.0051494,33.6675982 70.3543963,33.4157099 70.7150222,33.2615106 L70.6362447,33.0052417 C66.7752716,33.3771601 62.9142985,33.9335045 58.9049611,33.2566918 C59.7995235,31.7506193 60.6494452,30.8170997 62.4937142,31.1929607 C65.6242447,31.8316616 68.7486482,31.25429 71.8354134,30.654577 C72.492768,30.5270997 73.101543,30.1464199 73.7317631,29.8827039 C73.6893108,29.771435 73.6459831,29.6601661 73.6030932,29.5488973 C69.6379587,30.5757251 65.6281836,31.0116012 61.4061469,30.6694713 C61.9378951,29.7727492 62.509032,29.3408157 63.4084086,29.3596525 C64.0014281,29.3723565 64.6106408,29.343006 65.1887802,29.2194713 C68.8549978,28.4353323 72.5146506,27.6218429 76.1738658,26.8070393 C76.2880932,26.7820695 76.3760614,26.6401359 76.4771592,26.5525226 C72.9628071,26.3510121 69.4909073,26.8745015 65.7944917,26.2463142 C67.1070125,25.0096525 68.079477,24.3582477 69.7994526,24.8103323 C71.4677851,25.2488368 73.3317484,25.0333081 75.1029293,24.95358 C76.154609,24.9053927 76.367746,24.5834139 76.4605284,23.7624773 C74.0945773,24.6241541 71.7071812,24.3893504 69.2725186,23.9079154 C71.4441518,23.1058157 73.6153474,22.303716 75.7874183,21.5011782 C75.7537191,21.3824622 75.7213328,21.2637462 75.6889465,21.1450302 C74.0210516,20.326722 72.8262594,22.2761178 71.2345161,22.1701057 C71.776768,20.9124169 72.9177289,20.0389124 72.933922,18.5849698 C72.5422227,18.7347885 72.2603743,18.9665257 72.0135381,19.2298036 C70.8533205,20.4704078 70.3806555,22.389139 68.4352888,22.8587462 C68.3731421,22.8736405 68.2891127,22.9678248 68.2856115,23.028716 C68.2374697,23.8535951 67.7267289,23.7616012 67.110076,23.7532779 C66.6325968,23.7467069 66.0745895,23.9534743 65.6855161,24.2434743 C64.699922,24.9767976 63.7786628,25.7986103 62.8525895,26.6085951 C62.1799171,27.1973565 61.5400687,27.8237915 60.8857778,28.433142 C60.7501054,28.3959063 60.6148707,28.3582326 60.4787606,28.3205589 L59.7338756,16.4568429 C59.4283939,16.8173716 59.1850589,17.2405438 59.2016897,17.6532024 C59.3356115,20.9457099 59.2852814,24.2728248 59.7811421,27.5136405 C60.0428584,29.2216616 59.3776262,29.9562991 58.1784575,30.9415106 C56.5998438,25.8538066 55.4755137,20.8423263 55.7766188,15.5360272 C54.9008756,16.0660876 54.664543,16.4879456 54.6908022,17.8963293 C54.7774575,22.4653625 55.4159929,26.9292598 57.3232839,31.142145 C57.4506408,31.4233837 57.5114746,31.8789728 57.3701127,32.1129003 C56.9026995,32.8847734 56.3289367,33.5926888 55.6370076,34.5437311 C53.3205112,29.1419335 52.7034208,23.6166012 51.9799807,18.0579758 C51.7125748,18.5639426 51.4591738,19.1084592 51.5239465,19.6113595 C51.9637875,23.0366012 52.3147851,26.4859365 53.023345,29.8581722 C53.3704037,31.5096828 54.4303988,33.0087462 55.1477117,34.5862235 C55.2496848,34.8100755 55.3450932,35.1351208 55.2566873,35.3287462 C54.9398267,36.0287764 54.5428756,36.6924471 54.077213,37.5510574 C52.4014403,34.4504229 51.0889196,31.4693806 50.4245626,28.2622961 C49.7641445,25.0692296 49.2871029,21.8376133 48.7295333,18.6239577 C48.6398144,18.6112538 48.5492203,18.599426 48.4595015,18.5871601 C48.4039196,19.2924471 48.2699978,20.0021148 48.3115748,20.7017069 C48.3754721,21.7710272 48.5444061,22.8350906 48.6962716,23.8978399 C49.3921396,28.7774622 50.4153719,33.5427492 53.4789416,37.5983686 C53.623367,37.7889275 53.7415333,38.155151 53.6557533,38.3378248 C53.0697362,39.5793051 52.4259489,40.7936254 51.6836897,42.2453776 C49.3247411,34.7947432 48.3347704,27.3480513 46.9509122,19.9456042 C46.652433,20.4607704 46.4891885,20.9798791 46.5574623,21.467009 C47.0730174,25.1266163 47.4962276,28.8085649 48.2240443,32.427432 C48.8249416,35.4163595 49.781213,38.3356344 50.6271958,41.2719939 C50.8670296,42.1034441 51.6920051,42.7530967 51.1335601,43.803142 C50.7326702,44.5574924 50.5506066,45.4279305 50.2705088,46.2466767 C50.0700638,45.3828096 50.2779489,44.5093051 50.0368022,43.7860574 C48.336521,38.6944109 46.547834,33.6321148 44.7740271,28.565438 C44.6545479,28.2233081 44.4282814,27.9184139 44.2519073,27.5968731 C44.1079196,27.62929 43.9643694,27.662145 43.8208193,27.695438 C43.8759636,28.2263746 43.8453279,28.7844713 44.000257,29.2847432 C44.8444892,32.0204683 45.7368633,34.7404229 46.6051665,37.4682628 C46.6865699,37.7258459 46.7110785,38.0018278 46.7618462,38.2686103 C46.6506824,38.3075982 46.5395186,38.3465861 46.4287924,38.3851359 C46.0314037,37.5957402 45.221746,36.7345015 45.3429758,36.0353474 C45.4948413,35.1614048 45.337724,34.4802115 45.0576262,33.7740483 C42.5166139,27.3813444 37.9111934,22.5652417 32.9635284,18.0220544 C32.6295993,17.7149698 32.1197337,17.6001964 31.6921469,17.3960574 L31.468944,17.6851812 C31.7556066,18.0768127 32.0068193,18.5012991 32.3346213,18.8548187 C33.7692472,20.3985649 35.2581421,21.8923716 36.6673841,23.4593353 C39.5208804,26.6318127 42.1726188,29.9554229 43.9503645,33.884003 C44.1543108,34.3352115 44.2921714,34.8162084 44.4602301,35.2845015 C44.1074819,35.2468278 43.9223548,35.1180362 43.7512325,34.9721601 C41.6990785,33.2220846 39.6679318,31.4461631 37.5882056,29.7293806 C36.7763597,29.059577 35.7942667,28.5925982 35.0016775,27.9039577 C34.0462814,27.0733837 33.3154012,25.9576284 32.299609,25.2247432 C29.405411,23.1351661 26.4258707,21.1621148 23.4502692,19.1890634 C23.0808902,18.9446223 22.5294477,18.9757251 22.0629098,18.8797885 C22.013455,19.0261027 21.9644379,19.172855 21.9149831,19.3196072 C25.4971714,21.4849698 29.017213,23.7326888 32.0330785,26.6541541 C31.0387313,26.4140936 30.0881494,26.1297885 29.1795822,25.7456042 C27.6552374,25.1007704 26.1589024,24.3893504 24.6490002,23.7103474 C22.5500174,22.7671903 20.4584746,21.8069486 18.3419856,20.9054078 C17.9358438,20.7328096 17.4299171,20.7976435 16.9695064,20.7529607 L16.9646922,20.9737462 C19.2820638,22.0014501 21.5994355,23.0291541 23.9168071,24.056858 C23.8717289,24.2307704 23.8257753,24.4046828 23.7802594,24.5785951 C20.7788364,24.3512386 17.7769758,24.1234441 14.7755528,23.8965257 C14.7672374,24.0253172 14.7584844,24.1541087 14.7501689,24.2829003 C15.9116995,24.4616314 17.0727924,24.6399245 18.4155112,24.8466918 C16.1261494,25.467432 13.9352594,25.7429758 11.9955822,26.7649849 C12.0301567,26.9051661 12.0647313,27.0449093 12.0993059,27.1850906 C14.2560589,26.6913897 16.412812,26.1972507 18.5691274,25.7026737 L18.6479049,26.0391087 C16.6622741,26.9919033 14.6762056,27.9442598 12.6901372,28.8966163 C12.7544721,29.0293504 12.8192447,29.1629607 12.8835797,29.2961329 C13.1868731,29.1594562 13.4849147,29.0087613 13.7952105,28.8887311 C16.0158609,28.0336254 18.2137533,27.108429 20.4707289,26.3619637 C21.9053548,25.8870997 23.3995015,25.9633232 25.0472643,26.8070393 C24.5535919,26.8788822 24.3264501,26.8924622 24.1089367,26.9467825 C22.0729758,27.4584441 20.0286995,27.939003 18.0128707,28.5185649 C17.5108829,28.6631269 17.1025528,29.131858 16.6504575,29.4516465 C16.7073523,29.5370695 16.7638095,29.6220544 16.8202667,29.7074773 C19.8956531,28.1278096 23.2423841,27.6910574 26.6136237,27.444426 C27.4403499,27.3839728 28.2963988,27.7247885 29.1388804,27.8807402 C29.1235626,27.9955136 29.1082447,28.1098489 29.0929269,28.2241843 C26.1536506,28.7840332 23.1355968,28.9719637 20.2702839,30.0027341 C20.698746,30.2270241 21.1105773,30.2712689 21.5097166,30.2200151 C24.0708609,29.8910272 26.6350687,29.5782477 29.1874599,29.1870544 C31.4798853,28.835287 35.0178707,30.015 36.6551298,31.7808459 C33.0956995,31.1395166 29.5756579,30.2642598 25.9356995,30.5612689 C26.3042032,30.7916918 26.6950271,30.8227945 27.0792863,30.8933232 C30.5901372,31.5385951 34.1119293,32.1334894 37.6061494,32.8611178 C39.8110443,33.3197734 41.1296922,35.0886858 42.5853254,36.6363746 C41.902587,36.414713 41.3143817,36.0226435 40.6767215,35.7457855 C38.4249978,34.7675831 36.1662716,33.8029607 33.8834746,32.8996677 C33.4615773,32.7327643 32.9166995,32.8760121 32.4287166,32.8760121 C32.4374697,32.9715106 32.4453474,33.0674471 32.4536628,33.1633837 C40.0766995,35.4833837 46.6016653,39.8119184 47.0371298,42.8376435 C39.2434086,38.2199849 36.8525112,37.0648036 35.3080345,37.2628096 C39.8526213,41.3933383 44.7661494,45.0380513 48.1133181,50.2265106 C46.3627068,48.9675075 44.3464403,48.2906948 42.946389,46.3347281 C40.1322814,42.4039577 36.1518291,39.6923263 31.8737729,37.4730815 C31.4825112,37.2706948 31.005032,37.2356495 30.5678169,37.1226284 C35.1973083,39.8960272 39.4499807,43.0098036 42.9617068,47.0912689 C41.3275112,46.6825528 39.7646531,46.162568 38.2105479,45.615861 C37.9978487,45.5413897 37.807032,45.3565257 37.6486017,45.1834894 C35.4975381,42.8376435 32.9416457,41.0170393 30.1397924,39.5630967 C27.9585308,38.4306948 25.7103083,37.423142 23.4542081,36.4453776 C22.9863572,36.2425528 22.3561372,36.4160272 21.8003181,36.4160272 C27.7699024,38.6628701 36.028411,43.3917976 37.0932203,45.5851964 C35.5837557,45.1856797 34.1521934,45.0586405 32.9775333,44.4405287 C30.9481372,43.3729607 29.1506971,41.8651359 27.1248022,40.7883686 C24.4284232,39.3550151 21.6191298,38.1293051 18.8299685,36.8768731 C18.117032,36.5566465 17.3082496,36.2228399 16.2907068,36.8002115 C22.0152056,38.7522356 27.1204257,41.5116163 32.0768438,44.6026133 C29.5760956,44.4506042 27.1650663,44.6196979 24.7658535,45.1028852 C24.3614623,45.1843655 23.8957998,45.1116465 23.487032,45.0038822 C20.4602252,44.2061631 17.4693059,43.2389124 14.4087998,42.6111631 C12.0130883,42.1196525 9.536411,41.9991843 7.08818117,41.8051208 C6.55643301,41.7630664 5.99404914,42.1108912 5.44567017,42.2791087 C11.4813401,42.3049547 17.1126188,43.9047734 22.7828487,45.293006 C21.5263474,45.9820846 20.3788218,46.2068127 18.9236262,45.9102417 C14.6525724,45.0384894 10.304054,45.2518278 5.9796066,45.661858 C5.59534743,45.6982175 5.23034499,45.9303927 4.85615183,46.0718882 C4.87584621,46.1800906 4.89554059,46.288293 4.91523496,46.3969335 C9.73423007,46.2510574 14.5545381,46.0460423 19.3625919,46.598006 C18.0544477,47.6914199 16.7629342,48.4116012 14.9453621,48.2280513 C11.4043132,47.869713 7.88777286,48.3844411 4.42418851,49.1672658 C3.8009709,49.3078852 3.00925697,49.3635196 2.81318851,50.4477341 C7.00415183,49.2881722 11.1539758,48.9959819 15.3887044,49.0941087 C14.3217068,49.8243655 13.568944,51.0150302 12.1395699,51.0654078 C8.70749658,51.1867522 5.5130687,52.2648338 2.35890489,53.491858 C1.92650391,53.6605136 1.56762861,54.0197281 1.17417873,54.2908912 C1.22757237,54.4047885 1.28096601,54.5186858 1.33479731,54.6325831 C4.6097533,53.3854078 7.91053081,52.245997 11.4047509,51.8880967 C10.5167533,52.9504078 9.53772396,53.689864 8.1424868,53.9145921 C5.55420807,54.3303172 3.26178264,55.5621601 1.04025697,56.8965106 C0.6328022,57.1409516 0.343513692,57.5825226 -4.37652812e-05,57.9329758 L0.240227628,58.1817976 C2.84688778,56.9403172 5.45398557,55.6992749 8.06064572,54.4577945 C7.41379487,56.1754532 6.77088289,57.6762689 5.20102225,58.58 C4.33403203,59.0798338 3.67273863,59.9585951 2.96986822,60.7138217 C2.71821785,60.9836707 2.61536944,61.3923867 2.44468484,61.7375831 C2.51427164,61.7748187 2.58385844,61.8116163 2.65388289,61.8488519 C4.04649413,60.5491087 5.43866773,59.2493655 6.83171663,57.9491843 C6.91924719,58.0166465 7.0063401,58.0841087 7.09474597,58.1511329 C6.39581443,59.9090936 5.69688289,61.6666163 4.998389,63.424577 L5.34719829,63.5954229 C6.57175086,62.9584743 6.46102469,61.3906344 7.38184621,60.3300755 C7.31882421,61.3696072 7.26543056,62.2545015 7.21247457,63.1398338 L7.67157237,63.2357704 C7.83481687,62.8870695 8.08252836,62.5523867 8.14598802,62.1861631 C8.41164328,60.6586254 8.59545746,59.1170695 8.85979976,57.5890936 C9.20116895,55.6103474 10.0178291,54.6198791 11.9360614,53.8252266 C10.6813108,56.2267069 9.39767506,58.5427643 9.29657726,61.2539577 C9.54691467,61.1063293 9.65195134,60.9074471 9.73685599,60.6993655 C10.6743083,58.3789275 11.5977557,56.0523565 12.5505259,53.7380513 C12.9781127,52.701148 13.7969611,52.0896072 14.9352961,51.6756344 C12.5977924,56.56358 11.8157068,59.8574018 12.7754795,61.0888066 C13.0678315,60.1745619 13.2411421,59.2826586 13.6271518,58.4950151 C14.5243401,56.6625831 15.6512961,54.9961782 17.3887778,53.8112084 C18.717054,52.905287 19.9967509,51.929713 21.2943914,50.9795468 C20.7648315,51.4859516 20.2230174,51.9805287 19.7284697,52.5197885 C19.3958535,52.8820695 19.1568951,53.3306495 18.7520663,53.9211631 C19.1761518,53.8685951 19.276812,53.8878701 19.3214526,53.8458157 C22.3758315,50.987432 25.9221323,48.9136254 29.6885724,47.1420846 C31.2544941,46.4052568 32.7254452,46.6974471 34.269922,46.9598489 C34.0436555,47.1433988 33.8046971,47.2419637 33.5556726,47.2910272 C29.6806946,48.061148 26.1519,49.6653474 22.8533108,51.7965408 C22.3854599,52.0992447 22.0440907,52.5968882 21.644076,53.00429 C21.7176017,53.0713142 21.7920027,53.1392145 21.865966,53.2066767 C23.2975284,52.3414954 24.7290907,51.4767522 26.1610907,50.611571 C26.1912888,50.664139 26.2214868,50.7167069 26.2516848,50.7688368 C26.0831885,51.0439426 25.9142545,51.3190483 25.6118364,51.8127492 C26.1059465,51.633142 26.3571592,51.5520997 26.6009318,51.4509063 C30.5848853,49.8020241 34.7176408,48.6770695 38.9808169,48.0707855 C39.7086335,47.9678399 40.4911567,48.2508308 41.2487337,48.3559667 C41.2277264,48.4519033 41.2067191,48.548716 41.1857117,48.6450906 C35.1907435,49.4594562 29.9056482,51.2717371 29.2329758,52.8295015 C29.4728095,52.773867 29.6561861,52.7488973 29.8268707,52.6884441 C32.6322252,51.7001661 35.4292643,50.6886707 38.2416213,49.7209819 C41.4710614,48.6096072 44.379702,49.2369184 46.746966,51.2450151 C45.3132154,51.0781118 43.6370051,50.6965559 41.9721738,50.7390483 C40.2430076,50.783293 38.5099024,51.1687915 36.8043694,51.5306344 C35.2117509,51.8688217 33.4882741,51.9371601 32.2186433,53.1882779 C36.4555601,52.3765408 40.6110736,51.1153474 44.9823499,51.4141087 C44.9145137,51.6042296 44.8274208,51.6918429 44.7280736,51.7111178 C39.8014159,52.668293 35.7001714,55.3299849 31.6510076,58.0854229 C31.3183914,58.3110272 31.1266995,58.7438368 30.8693597,59.0798338 C30.94201,59.1459819 31.0142227,59.212568 31.0868731,59.278716 C31.2523059,59.2024924 31.4295553,59.1455438 31.5809831,59.0487311 C33.1197704,58.0639577 34.6060394,56.985438 36.2008462,56.1036103 C38.944054,54.5870241 41.6544379,52.9482175 44.799411,52.3577039 C46.4266042,52.0528096 48.0936237,51.6248187 49.5956482,52.8115408 C49.6407264,52.8474622 49.747076,52.8071601 49.9033181,52.7970846 C49.9925993,52.549139 50.0919465,52.2744713 50.2214917,51.9152568 C50.6271958,52.0387915 50.9978878,52.1518127 51.1103645,52.1859819 C50.8512741,53.3753323 50.507279,54.3425831 50.4512594,55.3260423 C50.2372472,59.0991087 50.0766286,62.8769939 49.9672154,66.6553172 C49.7291323,74.9242598 49.136988,83.1967069 50.1125161,91.4599547 C50.1562814,91.830997 50.1545308,92.3378399 49.9444575,92.5862235 C49.0065675,93.6940936 47.894054,94.6004532 46.3885284,94.8015257 C45.16879,94.9644864 44.9635308,94.8028399 45.0256775,93.5661782 C45.4979049,84.271284 45.9268046,74.9733232 46.5136971,65.6858761 C46.7574697,61.8287009 47.3535528,57.9943051 47.789455,54.1489577 C47.6082667,54.2926435 47.5167973,54.4621752 47.4594648,54.6426586 C47.3150394,55.0960574 47.1684257,55.5498942 47.0541983,56.0116163 C45.2882692,63.1442145 44.6541103,70.4441541 43.9884403,77.727009 C43.2129196,86.2127945 42.8641103,94.7292447 43.219922,103.247009 C43.4159905,107.932568 43.8637093,112.612432 44.3656971,117.276964 C44.6711787,120.118263 45.3088389,122.922764 45.7670614,125.749607 C45.862032,126.333988 46.1062423,126.942462 45.2445039,127.346798 C41.0552912,129.31284 36.7689196,130.991511 32.2015748,131.825589 C30.6474697,132.109018 29.0531005,132.167281 27.4819269,132.363097 C27.1900125,132.399456 26.9177924,132.600967 26.637257,132.726692 C26.8110051,133.013625 26.9313597,133.477976 27.1707557,133.551133 C27.7650883,133.732492 28.415878,133.813973 29.0404086,133.797326 C34.0103939,133.66284 38.7037826,132.36923 43.1358927,130.181088 C45.9876384,128.773142 48.8555773,127.463761 51.9130198,126.550393 C54.0680222,125.905997 56.1941396,125.865257 58.3907191,126.188112 C61.6599856,126.668233 64.2784623,128.477447 66.9529587,130.202991 C69.5219807,131.860196 72.0927533,133.516964 74.7011641,135.111088 C75.2631103,135.454532 75.9896139,135.528127 76.7196188,135.749788 C73.6289147,133.47929 70.6751958,131.290272 67.7009073,129.128852 C65.0211592,127.182085 62.2748878,125.364109 58.9434746,124.681163 C58.6751934,124.626405 58.3491421,124.205861 58.2834941,123.904909 C57.0134257,118.075121 55.7455455,112.244894 54.549878,106.400211 C53.9568584,103.498459 53.5100149,100.56648 52.9471934,97.3655287 C53.2828731,97.6804985 53.4111054,97.7672356 53.4951347,97.8850755 C55.5310956,100.746526 57.9110516,103.277674 60.4472496,105.71639 C67.4597606,112.460423 75.9515381,115.894426 85.4516677,116.436314 C96.9339269,117.091224 106.455501,112.946239 113.205858,103.268474 C113.969563,102.173308 114.785785,101.114063 115.577937,100.038172 C115.704418,100.078474 115.830462,100.118338 115.956506,100.15864 C113.962998,109.871012 111.968614,119.583822 109.967665,129.331239 C107.292294,129.702281 104.945599,130.666465 102.789722,132.045498 C100.849169,133.286541 98.9659489,134.621767 97.1024232,135.977145 C94.1500174,138.124109 91.4444477,140.629411 88.0561396,142.134169 C87.9821763,142.166586 87.9537289,142.302387 87.8574452,142.473842 C89.3971078,142.481994 90.6676139,141.88929 91.8343963,141.1529 C94.4878853,139.476858 97.0796653,137.703127 99.7060198,135.983716 C102.398898,134.220498 105.067704,132.437568 108.21968,131.516752 C113.700844,129.914305 118.732976,131.574139 123.527462,133.852085 C128.826125,136.369653 134.098091,138.852175 139.939443,139.765106 C141.890061,140.070438 143.890135,140.07219 145.870514,140.168127 C146.245144,140.186088 146.726125,140.101979 146.983902,139.87068 C147.253497,139.627991 147.313455,139.151375 147.465758,138.777266 C147.158088,138.68352 146.855233,138.531072 146.542311,138.507417 C145.476189,138.425937 144.391685,138.483323 143.340443,138.319924 C137.328844,137.386405 131.616162,135.497462 126.139374,132.854607 C124.605839,132.114713 124.604526,132.178233 124.863179,130.480287 C125.601499,125.649728 126.559521,120.836254 126.978355,115.976782 C127.538113,109.484199 127.859788,102.957009 127.943379,96.4403323 C128.05892,87.4468278 127.43614,78.4752266 126.519695,69.5229003 C125.779624,62.2834139 124.98791,55.0588217 123.307323,47.9643353 C123.140577,47.2608006 122.890678,46.5765408 122.679729,45.8830815 L122.38869,45.9549245 C122.523049,47.0825075 122.667037,48.2096525 122.790455,49.3385498 C123.29288,53.9194109 123.864017,58.494139 124.265783,63.0837613 C124.640851,67.35929 124.868431,71.649713 125.096885,75.9375075 C125.336719,80.4653625 125.492523,84.9980362 125.708724,89.5280815 C125.73936,90.1799245 125.489022,90.5811933 124.870181,90.5514048 C123.540592,90.487009 122.209252,90.374864 120.890167,90.1943806 C120.005233,90.0734743 119.708066,89.504426 119.789907,88.5757251 C120.009609,86.0809365 120.259509,83.5778248 120.267824,81.0769033 C120.283142,76.4640634 120.165413,71.8494713 120.046372,67.2375075 C119.895382,61.3507704 119.772401,55.4605287 119.458604,49.5812386 C119.35313,47.5976737 119.687497,45.4410725 118.061616,43.5503776 C118.714594,43.4557553 119.158812,43.3913595 119.626225,43.3234592 C119.725572,43.7006344 119.808289,44.0125377 119.920766,44.4374622 C120.299773,44.2731873 120.568054,44.1141692 120.85778,44.0388217 C121.714704,43.8145317 122.584758,43.4356042 123.441245,43.4566314 C125.805008,43.5144562 128.085179,44.0957704 130.217861,45.127855 C134.18956,47.0505287 138.149005,49.0012386 141.674736,51.7067371 C141.841044,51.8342145 142.067748,51.8845921 142.366665,52.0146979 C142.430125,50.8047583 141.535125,50.4048036 140.869017,49.979003 C136.08591,46.9199849 131.283545,43.8819939 125.576115,42.7189275 C128.175773,42.017145 130.714597,42.7693051 133.243792,43.2091238 C135.822443,43.6572658 138.365643,44.3126133 140.924162,44.8772809 C140.835318,44.4856495 140.657193,44.1851359 140.412108,44.1119788 C134.827658,42.4482024 129.253274,40.6105136 123.317389,42.6278096 C124.155932,42.0574471 125.043054,41.6233232 125.871093,41.0958912 C127.543802,40.0300755 129.322861,39.8395166 131.246783,40.1711329 C135.540594,40.9110272 139.644027,42.2234743 143.581589,44.0778096 C143.838929,44.198716 144.12603,44.2565408 144.557993,44.3945317 C144.461272,44.0497734 144.462147,43.8710423 144.372866,43.7755438 C144.187301,43.5744713 143.978978,43.3659516 143.736956,43.2485498 C139.432203,41.1598489 134.930069,39.7405136 130.034047,39.3366163 C131.376328,38.5870846 131.886193,38.4964048 133.192587,38.7075528 C138.383587,39.5482024 143.438039,40.8663444 148.256597,43.0150604 C148.339313,43.051858 148.468421,42.9870241 148.763399,42.9383988 C148.394895,42.5134743 148.107795,42.1809819 147.820257,41.8489275 L148.000132,41.634713 C149.734113,42.7044713 151.468093,43.7746677 153.192883,44.837855 C153.253279,44.0265559 153.221768,43.8727945 152.125885,43.1635649 C148.158125,40.5951812 143.930399,38.6282628 139.253641,37.7354834 C138.84181,37.6570695 138.436543,37.541858 138.027775,37.443293 C138.037404,37.3530513 138.046594,37.2632477 138.056223,37.1734441 C139.657157,37.1734441 141.408643,36.7467674 142.829702,37.2522961 C147.313455,38.8486103 151.305286,41.4121752 154.985071,44.4374622 C155.487059,44.8501208 155.931714,45.3319939 156.402629,45.7823263 C156.51992,45.701722 156.638086,45.6206797 156.755377,45.5405136 C156.485345,45.0879909 156.308533,44.5250755 155.927775,44.2022205 C154.566237,43.0474773 153.209951,41.8598791 151.714054,40.8978852 C149.524039,39.4899396 147.216296,38.2664199 144.958445,36.9649245 C145.77423,37.0801359 146.601394,37.2772658 147.326147,37.6653927 C151.661973,39.9875831 155.480932,43.0461631 159.246934,46.1726435 C161.481152,48.027855 162.984052,50.3360272 163.535932,53.2263897 C163.596328,53.5422356 163.780142,53.8339879 163.906624,54.137568 C164.034856,54.111722 164.163964,54.0863142 164.292196,54.0604683 C164.836198,52.1264048 164.173592,50.2444713 163.630465,48.4216767 C163.075083,46.55858 162.23479,44.7809063 161.504785,42.9291994 C162.522766,43.4338519 163.544685,43.9915106 164.033981,45.1712235 C165.204264,47.995438 166.358792,50.8266616 167.521636,53.6539426 C167.628861,53.9154683 167.751404,54.170861 167.866944,54.4288822 C167.98336,54.3837613 168.099775,54.3395166 168.216191,54.2948338 C167.981609,51.0575226 166.337347,48.2863142 164.875149,45.3666012 C167.399093,46.4205891 168.427577,48.3283686 168.70111,50.7876737 C168.87267,52.3261631 169.105501,53.861148 169.399604,55.3808006 C169.482321,55.8070393 169.878396,56.1732628 170.130484,56.5675226 C170.250839,56.0913444 170.477105,55.6129758 170.467915,55.139426 C170.452597,54.3548489 170.285851,53.5733383 170.183003,52.7905136 C170.681489,53.5996223 171.007541,54.4490332 171.37123,55.2822356 C172.09292,56.9372507 172.190516,57.0152266 173.158167,56.8303625 C172.291614,54.7088066 171.430751,52.5995166 170.569012,50.4906646 C170.660482,50.4210121 170.751951,50.3517976 170.843858,50.2830211 C172.549829,51.8762689 174.256675,53.4690785 175.962646,55.0623263 C176.054115,55.0066918 176.145585,54.9514954 176.237054,54.895861 C175.991968,54.4512235 175.837477,53.907145 175.483854,53.5785951 C174.091242,52.2823565 172.63736,51.0513897 171.201421,49.8020241 C170.994849,49.622855 170.659607,49.5220997 170.558509,49.3035045 C170.113854,48.3454532 169.733096,47.3576133 169.217541,46.110438 C172.47499,47.6664501 175.626966,49.1729607 178.827959,50.7022507 C179.0888,49.8287462 178.427069,49.4800453 177.884379,49.1545619 L177.884379,49.1545619 Z" id="Fill-3" fill="#02374E" fill-rule="nonzero" mask="url(#mask-2)"></path>
                    </g>
                    <path d="M145.712521,5.25666616 C139.780575,10.9905181 133.21622,16.1351707 128.629181,23.2152009 C128.822624,22.6772553 128.923722,22.0779804 129.226577,21.6110015 C130.303641,19.9498535 131.245032,18.1327538 132.609196,16.7388263 C136.269724,12.9977387 140.114066,9.43582024 143.910704,5.82921903 C144.336541,5.42400755 144.92212,5.18657553 145.433736,4.87116767 C145.526519,4.99952114 145.619739,5.12831269 145.712521,5.25666616" id="Fill-6" fill="#02374E" fill-rule="nonzero"></path>
                    <path d="M103.529486,14.084713 C103.295779,12.3153625 103.190743,10.703278 102.845872,9.14463746 C102.497063,7.56409365 101.988073,6.00676737 101.40687,4.4936858 C100.843611,3.0279154 100.100039,1.63135951 99.340711,-2.27572681e-15 C102.461176,0.801223565 105.435902,11.1851511 103.529486,14.084713" id="Fill-8" fill="#02374E" fill-rule="nonzero"></path>
                    <path d="M28.2946482,20.223645 C31.1717778,20.7331163 41.5108878,31.7811526 42.3376139,35.1525121 C38.5247826,29.3603973 33.1635357,25.0358051 28.2946482,20.223645" id="Fill-10" fill="#02374E" fill-rule="nonzero"></path>
                    <path d="M67.1021545,15.9760212 C65.2443183,19.5808701 63.874465,23.3131964 63.9015995,27.674148 C61.971113,24.8621994 64.8101667,16.9183021 67.1021545,15.9760212" id="Fill-12" fill="#02374E" fill-rule="nonzero"></path>
                    <path d="M94.2319022,1.51470241 C96.4993814,2.18143957 99.9870367,9.64390181 99.0692787,12.0020136 C97.9475746,8.17068429 96.6836333,4.64775377 94.2319022,1.51470241" id="Fill-14" fill="#02374E" fill-rule="nonzero"></path>
                    <path d="M11.759556,42.2655725 C16.8196978,42.71021 21.5704191,44.3065242 26.216979,46.2756329 C21.3979839,44.9395302 16.5789888,43.6025514 11.759556,42.2655725" id="Fill-16" fill="#02374E" fill-rule="nonzero"></path>
                    <path d="M67.4175709,25.3880544 C66.9457812,23.6156375 69.4552824,18.1560151 71.1148619,17.2448369 C69.9248839,19.8662266 68.6561284,22.6602145 67.4175709,25.3880544" id="Fill-18" fill="#02374E" fill-rule="nonzero"></path>
                </g>
            </g>
        </g>
    </g>
</svg>