<svg width="20" height="20" viewBox="0 0 20 20">
    <g fill="#FFF" fill-rule="evenodd" opacity="0.45">
        <path
            d="M18.227 9.997V5.664c-.002-.457-.046-.908-.2-1.343-.566-1.59-1.935-2.546-3.665-2.549-2.908-.003-5.818-.008-8.726.009-.436.002-.89.062-1.301.2-1.6.536-2.556 1.922-2.558 3.648-.005 2.908-.002 5.816 0 8.723 0 .451.05.895.203 1.324.564 1.574 1.92 2.534 3.63 2.538 2.929.008 5.857.006 8.785 0 1.312-.002 2.369-.527 3.142-1.591.492-.676.691-1.445.69-2.274-.002-1.45 0-2.901 0-4.352M5.119 0h9.765c.203.032.41.054.612.099 2.266.509 3.718 1.88 4.34 4.118.081.292.11.597.164.897v9.76c-.013.07-.02.14-.038.208-.135.52-.2 1.074-.421 1.554-.996 2.156-2.709 3.309-5.086 3.342-2.968.042-5.937.012-8.905.01-1.15-.002-2.215-.312-3.154-.98C.806 17.874.01 16.314.005 14.363-.003 11.45-.001 8.535.007 5.62c.001-.375.021-.76.1-1.124.5-2.264 1.88-3.71 4.113-4.332.292-.081.6-.111.9-.164">
        </path>
        <path
            d="M13.275 9.998a3.279 3.279 0 00-3.277-3.273 3.28 3.28 0 00-3.273 3.277 3.279 3.279 0 003.277 3.273 3.28 3.28 0 003.273-3.277m1.725 0c.003 2.745-2.258 5.005-5.002 5.002C7.248 14.997 4.99 12.735 5 9.992A5.02 5.02 0 019.993 5c2.742-.009 5.004 2.25 5.007 4.998M16.022 4c.55.016.994.477.978 1.014a1.006 1.006 0 01-1.037.985A1.009 1.009 0 0115 4.985c.017-.559.475-1 1.022-.985">
        </path>
    </g>
</svg>