<svg height="145" viewBox="0 0 114 145" class="css-1yl46kj">
    <defs>
        <path id="search-blue_svg__a" d="M0 .193h113.954v129.363H0z"></path>
    </defs>
    <g fill="none" fill-rule="evenodd">
        <path
            d="M10.78 60.779c.066.987.152 1.981.35 2.948 1.635 8.003 4.97 15.14 11.035 20.729 9.312 8.58 19.876 13.549 32.945 11.354 11.298-1.898 19.718-7.644 24.845-18.032.708-1.436 1.39-2.89 1.98-4.377 3.85-9.691 4.808-19.485.48-29.27-7.57-17.121-21.812-23.725-38.943-24.476-6.368-.28-12.248 2.133-17.218 6.087-10.376 8.254-14.489 19.671-15.486 32.492 0 .849-.045 1.7.011 2.545z"
            fill="#E0E9EF"></path>
        <g transform="translate(0 15.251)">
            <mask id="search-blue_svg__b" fill="#fff">
                <use xlink:href="#search-blue_svg__a"></use>
            </mask>
            <path
                d="M67.325 72.303c-2.08 1.448-4.062 2.8-5.995 4.218-.202.149-.286.868-.126 1.035 1.171 1.231 2.42 2.39 3.59 3.52l5.841-4.702-3.31-4.07M2.852 37.153c-.117 11.214 2.346 18.01 6.445 24.11 5.438 8.094 13.222 13.294 22.314 16.468 5.22 1.822 10.62 1.65 16.065.898 7.153-.99 13.184-4.173 18.414-8.998 3.964-3.655 6.39-8.366 8.31-13.31 2.804-7.218 4.267-14.564 2.847-22.439C75.152 22.268 64.974 9.318 53.659 5.67c-2.71-.874-5.456-1.635-8.165-2.514-3.177-1.032-6.475-1.163-9.746-1.21-5.144-.074-9.858 1.698-14.289 4.156-5.156 2.86-8.998 7.108-11.906 12.196-3.988 6.979-6.62 14.39-6.7 18.856M75.426 74.41c-4.1 3.415-8.07 6.733-12.057 10.03-1.22 1.008-1.314 1.157-.28 2.346 1.663 1.91 3.437 3.72 5.109 5.622 7.536 8.576 15.03 17.188 22.588 25.745 2.683 3.039 5.508 5.952 8.25 8.939.648.707 1.324.835 2.25.572 2.962-.841 5.714-2.132 8.2-3.917.793-.568 1.524-1.51 1.813-2.43.4-1.272.484-2.69.454-4.039-.018-.77-.359-1.676-.854-2.27-2.265-2.714-4.637-5.34-6.97-7.998-7.585-8.642-15.174-17.28-22.752-25.928-1.93-2.201-3.824-4.434-5.75-6.672m-11.705 7.883c-1.22-1.53-2.376-3.016-3.59-4.455-.149-.177-.673-.242-.897-.122-7.357 3.944-15.255 4.788-23.38 3.936-2.439-.255-4.91-.907-7.196-1.814-8.006-3.179-15.056-7.823-20.328-14.777C3.097 58.153-.157 50.39.006 41.59.259 27.874 5.359 16.242 15.889 7.332 20.813 3.167 26.753 1.226 33.175.785 34.046.725 34.9.358 35.769.33c2.03-.066 4.116-.3 6.088.053 3.744.67 7.459 1.574 11.122 2.61 7.875 2.227 13.965 7.022 18.879 13.496 5.655 7.45 8.594 15.837 8.365 25.183-.137 5.59-1.608 10.981-3.781 16.148-2.088 4.962-4.582 9.674-8.456 13.547 1.163 1.198 2.22 2.351 3.365 3.408.215.199.887.163 1.169-.03.722-.494 1.3-1.201 2.017-1.707.797-.562 1.297-.296 1.58.629.109.355.322.712.577.983 8.556 9.125 17.136 18.227 25.681 27.362 3.297 3.523 6.515 7.122 9.778 10.677 2.075 2.262 2.308 5.84.949 8.617-1.987 4.056-5.61 5.771-9.464 7.268-.672.261-1.375.443-2.048.7-1.529.581-2.84.262-3.936-.932-3.64-3.967-7.373-7.853-10.885-11.931-6.667-7.742-13.203-15.597-19.798-23.401-1.35-1.598-2.724-3.175-4.074-4.772a9.708 9.708 0 01-.771-1.08c-1.236-1.948-1.201-2.137.489-3.678.38-.346.705-.753 1.108-1.188"
                fill="#02374E" mask="url(#search-blue_svg__b)"></path>
        </g>
        <path
            d="M74.505 97.727c1.772 1.858 3.563 3.697 5.311 5.578 7.173 7.719 14.361 15.423 21.478 23.195 2.087 2.28 3.963 4.757 5.91 7.164.333.412.536.93.8 1.4-.11.134-.218.268-.326.403-.483-.275-1.07-.45-1.432-.838-2.417-2.583-4.78-5.216-7.171-7.825-3.723-4.061-7.547-8.034-11.156-12.196-4.531-5.228-8.888-10.608-13.316-15.925-.172-.207-.307-.443-.46-.665l.362-.291zM69.254 101.449c.34.356.69.703 1.018 1.072 6.626 7.458 13.207 14.957 19.894 22.36 2.773 3.07 5.787 5.923 8.662 8.903a33.81 33.81 0 012.671 3.1c.24.317.118.907.163 1.372-.41-.144-.927-.175-1.213-.45-9.072-8.697-17.407-18.072-25.235-27.904-1.903-2.39-3.702-4.864-5.541-7.306-.23-.305-.413-.647-.617-.973l.198-.174M8.269 56.38c0 .726-.039 1.453.01 2.175.056.843.13 1.692.298 2.518 1.398 6.837 4.248 12.935 9.428 17.708 7.955 7.33 16.98 11.575 28.144 9.7 9.651-1.621 16.845-6.53 21.225-15.404.605-1.227 1.187-2.47 1.692-3.74 3.288-8.279 4.106-16.645.41-25.004-6.468-14.626-18.634-20.268-33.27-20.91-5.44-.238-10.462 1.823-14.708 5.2-8.863 7.051-12.377 16.805-13.23 27.758m32.108 35.09c-4.476-.033-8.688-1.005-12.689-2.99-4.968-2.467-9.59-5.396-13.24-9.679C5.906 68.783 3.54 57.522 7.836 45.001c1.71-4.985 4.127-9.62 7.683-13.576 4.967-5.527 11.15-8.539 18.55-9.052.752-.053 1.493-.274 2.236-.425 2.842-.578 5.586.072 8.32.705 4.654 1.077 9.337 2.125 13.395 4.84 8.402 5.619 13.756 13.377 15.41 23.395 1.8 10.902-1.603 20.633-8.05 29.202-4.706 6.255-11.367 9.694-19.152 10.75-1.943.264-3.9.424-5.852.632"
            fill="#02374E"></path>
        <path
            d="M21.073 71.944c-.773-2.654-1.685-5.338-2.323-8.087-.81-3.496-1.192-7.046-.388-10.627.316-1.41.598-2.831.799-4.26.177-1.267-.703-2.631-1.718-2.862-1.006-.228-1.982.463-2.493 1.783a4.714 4.714 0 00-.264.922c-1.018 6.149-.3 12.096 2.16 17.81.936 2.176 2.445 3.94 4.227 5.321m-8.55-19.07c.306-1.717.539-3.764 1.057-5.737.554-2.109 2.44-3.257 4.236-2.854 1.945.436 3.388 2.625 3.068 4.721-.127.833-.264 1.683-.549 2.47-1.276 3.53-1.455 7.104-.862 10.81.46 2.873.97 5.7 2.162 8.37.678 1.519 1.383 2.992 2.887 3.908.272.167.371.619.55.94-.362.092-.75.315-1.079.248a5.455 5.455 0 01-1.67-.64c-3.844-2.275-6.571-5.452-7.913-9.793-.983-3.178-1.53-6.407-1.586-9.73-.013-.797-.172-1.59-.301-2.712"
            fill="#02374E"></path>
    </g>
</svg>