<?xml version="1.0" encoding="UTF-8"?>
<svg width="213px" height="26px" viewBox="0 0 213 26" version="1.1" xmlns="http://www.w3.org/2000/svg" xmlns:xlink="http://www.w3.org/1999/xlink">
    <title>OkayHumans_Horizontal_White</title>
    <defs>
        <polygon id="path-1" points="1.38777878e-16 4.4408921e-16 17.9764832 4.4408921e-16 17.9764832 13.9533333 1.38777878e-16 13.9533333"></polygon>
        <polygon id="path-3" points="-6.66133815e-16 -6.10622664e-16 35.117799 -6.10622664e-16 35.117799 18.8045268 -6.66133815e-16 18.8045268"></polygon>
        <polygon id="path-5" points="-6.66133815e-16 -6.10622664e-16 35.117799 -6.10622664e-16 35.117799 18.8045268 -6.66133815e-16 18.8045268"></polygon>
    </defs>
    <g id="Test" stroke="none" stroke-width="1" fill="none" fill-rule="evenodd">
        <g id="Franchise---1" transform="translate(-614.000000, -13.000000)">
            <g id="OkayHumans_Horizontal_White" transform="translate(614.034561, 13.943677)">
                <g id="Fill-1-Clipped" transform="translate(-0.000000, 6.162103)">
                    <mask id="mask-2" fill="white">
                        <use xlink:href="#path-1"></use>
                    </mask>
                    <g id="path-1"></g>
                    <path d="M8.97038491,11.6360317 C5.56379297,11.6360317 3.00222476,10.0987302 3.00222476,6.99988095 C3.00222476,3.85511904 5.56379297,2.31730158 8.97038491,2.31730158 C12.4040499,2.31730158 14.9656181,3.85511904 14.9656181,6.99988095 C14.9656181,10.0987302 12.4040499,11.6360317 8.97038491,11.6360317 Z M8.97038491,4.4408921e-16 C3.37203065,4.4408921e-16 -0.0345612981,2.69595238 -0.0345612981,6.99988095 C-0.0345612981,11.2811111 3.37203065,13.9533333 8.97038491,13.9533333 C14.5958122,13.9533333 17.9764832,11.2811111 17.9764832,6.99988095 C17.9764832,2.69595238 14.5958122,4.4408921e-16 8.97038491,4.4408921e-16 L8.97038491,4.4408921e-16 Z" id="Fill-1" fill="#FFFFFE" fill-rule="nonzero" mask="url(#mask-2)"></path>
                </g>
                <polyline id="Fill-4" fill="#FFFFFE" fill-rule="nonzero" points="23.5531856 15.7654522 27.4566014 12.8943089 33.2726272 19.2592592 36.8308233 19.2592592 29.7144312 11.3389541 36.4062494 6.14626117 32.5821878 6.14626117 23.5531856 13.0618488 23.5531856 5.55111512e-16 20.4462079 5.55111512e-16 20.4462079 19.2592592 23.5531856 19.2592592 23.5531856 15.7654522"></polyline>
                <g id="Group-8" transform="translate(38.357761, 6.200411)">
                    <g id="Fill-5-Clipped">
                        <mask id="mask-4" fill="white">
                            <use xlink:href="#path-3"></use>
                        </mask>
                        <g id="path-3"></g>
                        <path d="M2.95243089,9.71255145 C2.95243089,7.55444444 5.75085599,7.08847736 7.62524639,7.08847736 C9.73036541,7.08847736 12.1188552,7.65234567 13.2484176,9.51674897 L13.2484176,9.93349795 C12.1188552,11.7727572 9.73036541,12.3617696 7.62524639,12.3617696 C5.75085599,12.3617696 2.95243089,11.8958025 2.95243089,9.71255145 Z M13.1963356,12.0183128 L13.1963356,12.0429219 C13.1963356,12.6806173 13.3761024,13.3423869 13.7361959,13.9313992 L16.8426326,13.9313992 C16.3806152,13.1465844 16.2008485,12.3371605 16.2008485,11.3313992 L16.2008485,6.45078189 C16.2008485,2.23193415 13.1963356,-6.10622664e-16 8.29279146,-6.10622664e-16 C5.75085599,-6.10622664e-16 3.05547476,0.662304525 1.30932917,1.66806584 L2.38736966,3.60522633 C4.00471041,2.69790123 5.64837214,2.2565432 7.72773024,2.2565432 C11.3482662,2.2565432 13.1963356,3.5565432 13.1963356,6.45078189 L13.1963356,7.43193416 C12.0930942,6.13139917 9.93589321,5.02773662 7.06018517,5.02773662 C4.03047138,5.02773662 -6.66133815e-16,6.20576131 -6.66133815e-16,9.71255145 C-6.66133815e-16,13.2444856 4.03047138,14.4219754 7.06018517,14.4219754 C9.93589321,14.4219754 12.0930942,13.3183128 13.1963356,12.0183128 L13.1963356,12.0183128 Z" id="Fill-5" fill="#FFFFFE" fill-rule="nonzero" mask="url(#mask-4)"></path>
                    </g>
                    <g id="Fill-7-Clipped">
                        <mask id="mask-6" fill="white">
                            <use xlink:href="#path-5"></use>
                        </mask>
                        <g id="path-3"></g>
                        <polyline id="Fill-7" fill="#FFFFFE" fill-rule="nonzero" mask="url(#mask-6)" points="21.3569621 18.8366256 24.4891598 18.8366256 35.117799 0.490576132 31.9604004 0.490576132 26.4139521 10.3015638 20.7661399 0.490576132 17.5308984 0.490576132 24.8738942 13.0481482 21.3569621 18.8366256"></polyline>
                    </g>
                </g>
                <path d="M93.6820995,5.66765031 C90.7083442,5.66765031 88.3184505,6.81642076 87.0435702,8.6823246 L87.0435702,5.55111512e-16 L83.9365925,5.55111512e-16 L83.9365925,19.2592592 L87.0435702,19.2592592 L87.0435702,11.1949011 C88.291806,9.04141323 90.3891897,7.98867811 92.8856613,7.98867811 C95.7806416,7.98867811 97.2408748,9.37649303 97.2408748,11.9605741 L97.2408748,19.2592592 L100.321208,19.2592592 L100.321208,11.7695473 C100.321208,8.22772258 98.1172463,5.66765031 93.6820995,5.66765031" id="Fill-9" fill="#FFFFFE" fill-rule="nonzero"></path>
                <path d="M117.69511,14.7392388 C116.446918,16.8752779 114.349029,17.9194831 111.853225,17.9194831 C108.958347,17.9194831 107.498166,16.5429131 107.498166,13.9797698 L107.498166,6.74074074 L104.417362,6.74074074 L104.417362,14.1697665 C104.417362,17.6823755 106.621825,20.2222222 111.056236,20.2222222 C114.030465,20.2222222 116.420274,19.0827598 117.69511,17.2314569 L117.69511,19.7474893 L120.801977,19.7474893 L120.801977,6.74074074 L117.69511,6.74074074 L117.69511,14.7392388" id="Fill-10" fill="#FFFFFE" fill-rule="nonzero"></path>
                <path d="M146.400023,5.77777778 C143.365247,5.77777778 140.906731,7.20197637 139.860335,9.38512631 C139.127744,7.24908727 137.296837,5.77777778 134.079483,5.77777778 C131.333408,5.77777778 129.083144,6.94053679 127.958582,8.76802535 L127.958582,6.25251064 L124.898131,6.25251064 L124.898131,19.2592592 L127.958582,19.2592592 L127.958582,11.1893183 C129.031223,9.19564732 130.757719,8.07999921 133.163745,8.07999921 C135.962882,8.07999921 137.218671,9.55130872 137.218671,11.9487873 L137.218671,19.2592592 L140.252876,19.2592592 L140.22663,17.3126992 L140.22663,11.2840577 C141.299272,9.21946162 143.077688,8.07999921 145.484284,8.07999921 C148.283421,8.07999921 149.538639,9.55130872 149.538639,11.9487873 L149.538639,19.2592592 L152.54717,19.2592592 L152.54717,11.7826049 C152.54717,8.41236398 150.715692,5.77777778 146.400023,5.77777778" id="Fill-11" fill="#FFFFFE" fill-rule="nonzero"></path>
                <path d="M169.31339,15.7267519 C168.14525,17.5688767 165.676988,18.1588067 163.501051,18.1588067 C161.563605,18.1588067 158.671038,17.6915778 158.671038,15.5054612 C158.671038,13.3434561 161.563605,12.876763 163.501051,12.876763 C165.676988,12.876763 168.14525,13.4420456 169.31339,15.3088178 L169.31339,15.7267519 Z M172.365144,12.238074 C172.365144,8.01318924 169.260135,5.77777778 164.191053,5.77777778 C161.563605,5.77777778 158.777549,6.44057835 156.972661,7.44844243 L158.086968,9.38862098 C159.758717,8.47988229 161.457673,8.03783664 163.606983,8.03783664 C167.349316,8.03783664 169.260135,9.33986201 169.260135,12.238074 L169.260135,13.2212907 C168.118622,11.9187295 165.88943,10.8133475 162.91756,10.8133475 C159.785345,10.8133475 155.619285,11.9926717 155.619285,15.5054612 C155.619285,19.042898 159.785345,20.2222222 162.91756,20.2222222 C165.88943,20.2222222 168.118622,19.1163044 169.260135,17.814279 L169.260135,17.8389264 C169.260135,18.4776154 169.445371,19.1409518 169.817578,19.7308818 L173.027939,19.7308818 C172.550958,18.9443084 172.365144,18.1341593 172.365144,17.126831 L172.365144,12.238074 L172.365144,12.238074 Z" id="Fill-12" fill="#FFFFFE" fill-rule="nonzero"></path>
                <path d="M186.870179,5.77777778 C183.895844,5.77777778 181.505951,6.91724019 180.231071,8.76802535 L180.231071,6.25251064 L177.124093,6.25251064 L177.124093,19.2592592 L180.231071,19.2592592 L180.231071,11.2602434 C181.479306,9.12420443 183.577269,8.07999921 186.073741,8.07999921 C188.968142,8.07999921 190.428375,9.4565692 190.428375,12.0197125 L190.428375,19.2592592 L193.508708,19.2592592 L193.508708,11.8302335 C193.508708,8.31710679 191.304747,5.77777778 186.870179,5.77777778" id="Fill-13" fill="#FFFFFE" fill-rule="nonzero"></path>
                <path d="M205.285975,11.6289286 C202.340278,11.4575112 200.052559,11.2129345 200.052559,9.84213012 C200.052559,8.37306781 202.761338,8.00566873 204.707161,8.00566873 C207.337351,8.0302332 209.256786,8.76449735 210.651331,9.76843672 L212.255259,7.90794484 C210.572168,6.75715266 207.810613,5.77777778 204.864915,5.77777778 C200.025597,5.77777778 197.132676,7.39369293 197.132676,10.0130134 C197.132676,12.8774446 200.867143,13.7345311 204.786325,14.0042063 C208.178896,14.2487831 210.04613,14.6647771 210.04613,16.011017 C210.04613,17.357791 207.994754,17.9943313 205.338751,17.9943313 C202.261688,17.9943313 199.920619,17.1132143 198.237527,15.7664403 L196.580824,17.4560489 C198.658013,19.1451234 201.73565,20.2222222 205.259587,20.2222222 C210.335824,20.2222222 212.965439,18.2640065 212.965439,15.7664403 C212.965439,13.0488619 209.704234,11.9226342 205.285975,11.6289286" id="Fill-14" fill="#FFFFFE" fill-rule="nonzero"></path>
            </g>
        </g>
    </g>
</svg>