<svg height="130" viewBox="0 0 75 145" class="css-7jmnh7">
    <defs>
        <path id="phone_svg__a" d="M0 .18h74.809v129.407H0z"></path>
    </defs>
    <g fill="none" fill-rule="evenodd">
        <path
            d="M16.534 81.455c0-11.978-.018-23.957.012-35.936.007-2.75.172-5.5.27-8.25.025-.71.1-1.134 1.046-1.422 4.008-1.221 8.138-1.442 12.248-1.83 9.73-.915 19.488-.744 29.241-.644 1.71.018 3.42.362 5.124.603.72.102 1.331.41 1.4 1.299.361 4.63.966 9.254 1.05 13.888.181 10.15.142 20.305.114 30.458-.026 9.858-.246 19.716-.185 29.572.024 3.78.568 7.558.923 11.332.155 1.651.022 1.875-1.555 1.816-7.694-.288-15.388-.623-23.084-.862-6.727-.21-13.4.473-20.054 1.424-1.3.186-2.633.109-3.95.19-.496.03-1 .12-1.477.266-.785.24-1.214-.04-1.318-.832-.052-.403-.03-.817-.03-1.226l-.001-39.846h.226"
            fill="#E7E1D9"></path>
        <g transform="translate(0 15)">
            <mask id="phone_svg__b" fill="#fff">
                <use xlink:href="#phone_svg__a"></use>
            </mask>
            <path
                d="M14.21 126.392l-.027.12c.305.098.603.246.916.286 3.532.452 7.057 1.075 10.604 1.279 3.853.22 7.73-.035 11.593.066 9.73.254 19.433-.22 29.13-.934.467-.035 1.03-.085 1.366-.357 1.67-1.354 3.14-2.85 3.898-4.988.836-2.36.992-4.79 1.032-7.23.063-3.86-.024-7.72-.003-11.58.073-13.138.168-26.275.245-39.412.006-.927-.06-1.854-.087-2.78-.158-5.265-.467-10.53-.436-15.793.046-7.64.385-15.278.505-22.918.055-3.52-.034-7.048-.203-10.565-.138-2.875-1.46-4.946-3.546-5.903.152.378.263.68.395.974 1.47 3.271 2.004 6.694 1.887 10.282-.272 8.343-.555 16.689-.636 25.035-.112 11.429.042 22.86-.073 34.289-.123 12.28-.403 24.56-.68 36.838-.037 1.655-.31 3.337-.72 4.943-.893 3.495-2.638 6.225-6.667 6.535a385.43 385.43 0 00-5.688.472c-3.698.341-7.39.773-11.095 1.03-3.672.255-7.366.225-11.033.531-4.856.405-9.704.613-14.567.25-2.037-.153-4.074-.313-6.11-.47M3.034 90.531c0 2.579-.07 7.59.022 12.597.076 4.147.276 8.293.545 12.432.19 2.93 1.603 5.3 4.167 6.68 1.762.947 3.713 1.8 5.664 2.071 3.819.531 7.695.817 11.55.848 3.784.03 7.568-.408 11.353-.592 6.58-.319 13.16-.595 19.74-.9 3.158-.146 6.183-.8 8.991-2.35.998-.55 1.73-1.257 1.944-2.4.312-1.673.749-3.344.848-5.033.203-3.44.238-6.893.303-10.34.168-9.013.365-18.024.456-27.037.114-11.39.123-22.781.204-34.172.017-2.485.169-4.969.223-7.453.168-7.673.396-15.346.446-23.02.033-5.085-2.99-8.634-7.973-9.57-1.91-.358-3.874-.574-5.814-.575-7.182-.004-14.367.076-21.549.185-7.947.12-15.907-.131-23.832.785-2.158.25-4.365.35-5.648 2.42-.704 1.139-1.4 2.446-1.549 3.74-.56 4.854-1.274 9.737-1.238 14.603.102 13.908-.15 27.82.67 41.725.448 7.624.31 15.282.477 25.356m-1.96-1.206c-.15-8.213-.052-15.014-.443-21.787C-.16 53.82.02 40.096.014 26.373.013 20.697.231 15.027 1.36 9.436c.58-2.876 1.71-5.371 4.56-6.679.907-.416 1.778-.83 2.84-.391.397.163.942-.007 1.415-.065 3.5-.42 6.99-1.106 10.5-1.232C32.12.658 43.574.422 55.026.188c2.015-.041 4.07.065 6.05.423 4.061.737 7.646 2.622 10.773 5.311 1.592 1.37 2.311 3.338 2.382 5.357.233 6.631.37 13.268.404 19.903.023 4.338-.317 8.677-.278 13.015.07 7.677.396 15.352.444 23.03.047 7.493-.137 14.988-.189 22.482-.055 8.015-.05 16.03-.12 24.045-.027 3.112.038 6.285-1.342 9.169-.737 1.541-1.715 3.005-2.793 4.331-1.02 1.254-2.64 1.405-4.154 1.5-4.811.306-9.624.69-14.441.799-4.97.112-9.945-.082-14.918-.11-3.94-.022-7.882.024-11.822.005-4.077-.018-8.076-.605-11.938-1.938-3.982-1.375-7.167-4.02-9.787-7.182-1.083-1.306-1.471-3.397-1.68-5.19-.377-3.23-.48-6.503-.521-9.76-.076-5.825-.022-11.65-.022-16.053"
                fill="#02374E" mask="url(#phone_svg__b)"></path>
        </g>
        <path
            d="M13.44 31.511v86.088c15.984-3.556 31.817-3.052 47.714-2.12-.027-.31-.04-.602-.08-.89-.775-5.61-.997-11.25-.902-16.908.223-13.274.533-26.547.633-39.822.053-6.947-.251-13.897-.419-20.845-.048-1.994-.182-3.985-.29-6.265C44.4 29.36 28.788 29.42 13.44 31.51m-1.472 45.371c0-11.979-.017-23.957.013-35.936.007-2.75.172-5.5.27-8.25.025-.71.1-1.134 1.045-1.422 4.009-1.22 8.139-1.443 12.248-1.829 9.73-.915 19.49-.745 29.242-.645 1.71.018 3.42.362 5.123.603.72.101 1.331.41 1.4 1.3.362 4.629.967 9.253 1.05 13.887.182 10.15.142 20.306.115 30.459-.027 9.857-.246 19.715-.185 29.571.024 3.78.567 7.558.922 11.332.156 1.651.023 1.875-1.554 1.816-7.695-.289-15.388-.623-23.084-.862-6.728-.21-13.4.473-20.055 1.424-1.299.186-2.633.109-3.948.19a6.475 6.475 0 00-1.478.266c-.785.24-1.215-.04-1.318-.832-.052-.403-.03-.817-.03-1.226-.002-13.282-.001-26.564-.001-39.846h.225M31.941 128.325c.047.238.068.583.181.889.541 1.462 2.108 2.523 3.48 2.384 1.694-.17 3.247-1.446 3.569-2.997.087-.424.127-.936-.012-1.323-.376-1.042-.762-2.107-1.324-3.035-.81-1.338-1.91-1.61-3.271-.934-1.933.963-2.415 2.857-2.623 5.016m4.177-6.19c1.695.144 3.146 2.012 4.367 4.108.984 1.689.685 3.452-.342 4.991-1.272 1.906-3.087 2.843-5.264 2.631-2.164-.21-3.696-1.522-4.538-3.674-1.352-3.453 1.47-8.058 5.777-8.055M30.27 22.475c2.442 2.139 11.898 1.931 13.658-.306-.405-.137-.76-.323-1.134-.372-2.725-.36-5.446-.8-8.183-.988-1.596-.109-3.057.594-4.34 1.666m7.8-2.902c1.957.303 3.92.57 5.866.927.844.155 1.764.613 1.713 1.554-.037.68-.559 1.493-1.107 1.951-1.464 1.223-3.32 1.53-5.134 1.43-2.487-.137-4.958-.546-7.435-.85a3.033 3.033 0 01-.733-.205c-.836-.332-1.833-.56-1.89-1.696-.06-1.167.906-1.457 1.755-1.79a15.122 15.122 0 016.928-1.017l.037-.304"
            fill="#02374E"></path>
    </g>
</svg>