<?xml version="1.0" encoding="UTF-8"?>
<svg width="280px" height="252px" viewBox="0 0 280 252" version="1.1" xmlns="http://www.w3.org/2000/svg" xmlns:xlink="http://www.w3.org/1999/xlink">
    <title>Path-2</title>
    <g id="Test" stroke="none" stroke-width="1" fill="none" fill-rule="evenodd">
        <g id="Franchise---1" transform="translate(-787.000000, -1863.000000)" fill="#FFFFFF" fill-rule="nonzero">
            <g id="Our-Story" transform="translate(0.000000, 1471.000000)">
                <g id="Image" transform="translate(777.000000, 384.000000)">
                    <path d="M14.868754,8 C20.6214301,63.9808415 22.4695889,98.4304501 20.4132303,111.348826 C17.3286924,130.726389 11.3986489,176.029946 14.868754,185.457829 C18.3388592,194.885711 4.35800571,251.625118 12.6979178,255.578218 C21.0378298,259.531317 289.479544,263.145657 289.479544,255.578218 C289.479544,248.010778 284.61079,202.294699 284.61079,185.457829 C284.61079,168.620958 289.479544,31.7950904 289.479544,23.0939006 C289.479544,14.3927109 294.270647,8 274.77976,8 C255.288872,8 107.191563,8 95.0950863,8 C87.0307687,8 60.288658,8 14.868754,8 Z" id="Path-2"></path>
                </g>
            </g>
        </g>
    </g>
</svg>