<?xml version="1.0" encoding="UTF-8"?>
<svg width="280px" height="247px" viewBox="0 0 280 247" version="1.1" xmlns="http://www.w3.org/2000/svg" xmlns:xlink="http://www.w3.org/1999/xlink">
    <title>Path-2</title>
    <g id="Test" stroke="none" stroke-width="1" fill="none" fill-rule="evenodd">
        <g id="Franchise---1" transform="translate(-787.000000, -1581.000000)" fill="#CADBE4" fill-rule="nonzero">
            <g id="Our-Story" transform="translate(0.000000, 1471.000000)">
                <g id="Image" transform="translate(777.000000, 102.000000)">
                    <path d="M14.868754,8.3224907 C20.6214301,62.970455 22.4695889,96.5998348 20.4132303,109.21063 C17.3286924,128.126823 11.3986489,172.351724 14.868754,181.555133 C18.3388592,190.758542 4.35800571,246.147011 12.6979178,250.005989 C21.0378298,253.864967 289.479544,257.393251 289.479544,250.005989 C289.479544,242.618726 284.61079,197.991126 284.61079,181.555133 C284.61079,165.11914 289.479544,31.5510314 289.479544,23.0570128 C289.479544,14.5629942 294.270647,8.3224907 274.77976,8.3224907 C255.288872,8.3224907 107.191563,8.3224907 95.0950863,8.3224907 C87.0307687,8.3224907 60.288658,8.3224907 14.868754,8.3224907 Z" id="Path-2"></path>
                </g>
            </g>
        </g>
    </g>
</svg>