<?xml version="1.0" encoding="UTF-8"?>
<svg width="127px" height="110px" viewBox="0 0 127 110" version="1.1" xmlns="http://www.w3.org/2000/svg"
    xmlns:xlink="http://www.w3.org/1999/xlink">
    <title>Group-13</title>
    <defs>
        <path id="training-support_svg__a" d="M0 .048h78.79v76.838H0z"></path>
        <path id="training-support_svg__c" d="M.321.24h63.5v62.666H.32z"></path>
    </defs>
    <g fill="none" fill-rule="evenodd">
        <path
            d="M51.856 84.733c-2.813 2.14-5.99 3.546-9.59 3.83-5.294.42-12.425-2.572-15.302-7.936-2.95-5.5-3.283-10.981-.38-16.496 2.799-5.317 7.492-7.972 13.222-8.733 3.312.393 6.277 1.019 8.883 2.79.76.515 1.584.94 2.323 1.482 1.341.982 2.362 2.233 3.148 3.698 1.405 2.617 2.852 5.25 3.172 8.223.57 5.298-1.11 9.82-5.476 13.142m28.035-16.15c-.145-.389-.138-.83-.24-1.24-.527-2.104-1.046-4.21-1.628-6.3-.082-.295-.469-.674-.762-.72-2.502-.386-5.013-.715-7.525-1.04-1.857-.24-1.85-.229-2.352-1.965-.442-1.53-1.14-2.88-2.58-3.776-.207-.128-.316-.708-.21-.982 1.046-2.695 2.095-5.391 3.262-8.036.366-.828.365-1.21-.505-1.632a270.735 270.735 0 01-8.355-4.232c-.726-.384-1.146-.31-1.695.268-1.258 1.326-2.584 2.59-3.9 3.86-.493.478-1.216.814-1.515 1.379-.543 1.022-1.202.799-2.05.566-2.042-.56-3.98-1.625-6.23-1.279-.229.035-.651-.3-.77-.558a309.01 309.01 0 01-3.263-7.303c-.247-.574-.536-.678-1.133-.536-2.594.616-5.191 1.23-7.81 1.736-.824.16-.985.49-.968 1.218.059 2.566.06 5.132.093 7.698.008.59-.113 1.004-.747 1.315-2.056 1.007-4.099 2.05-6.076 3.196-.669.388-1.12.527-1.859.184-2.467-1.146-4.97-2.215-7.485-3.258-.29-.12-.93-.013-1.07.201-1.645 2.502-3.221 5.046-4.823 7.575-.424.67-.15 1 .433 1.484 2.235 1.86 4.383 3.82 6.556 5.75.472.42.63.912.208 1.463-1.468 1.914-1.867 4.125-1.755 6.441.044.905-.214 1.283-1.141 1.563-2.76.833-5.472 1.82-7.996 2.677.86 3.368 1.722 6.586 2.48 9.827.172.73.414.971 1.149.916 2.366-.18 4.738-.286 7.102-.487.772-.066 1.269.106 1.568.83.885 2.138 2.17 3.989 4.164 5.397-.343.935-.66 1.85-1.012 2.751-.764 1.968-1.545 3.929-2.32 5.892-.256.649-.085 1.102.57 1.422 1.117.546 2.264 1.058 3.305 1.724 1.758 1.123 3.445 2.355 5.341 3.666 1.885-1.85 3.816-3.655 5.629-5.568.822-.868 1.601-1.009 2.717-.705 1.612.438 3.279.976 4.916.956 1.788-.02 1.955.124 2.627 1.893.794 2.087 1.684 4.137 2.525 6.186l10.15-1.857c-.045-.684-.053-1.298-.133-1.903a482.835 482.835 0 00-.894-6.458c-.144-.988.266-1.401 1.248-1.701 1.205-.368 2.332-1.01 3.45-1.612.72-.386 1.384-.883 2.035-1.38.838-.637 1.738-.727 2.706-.405 2.465.82 4.94 1.617 7.385 2.493.765.274 1.187.1 1.507-.572.322-.675.64-1.353.996-2.011 1.095-2.028 2.206-4.048 3.297-6.045-1.955-1.819-3.827-3.75-5.918-5.415-.895-.712-.928-1.287-.725-2.192.482-2.142 1.022-4.282 1.312-6.452.167-1.246.623-2.01 1.842-2.293a264.73 264.73 0 015.972-1.336c.764-.159 1.233-.387.9-1.277"
            fill="#E0E9EF"></path>
        <g transform="translate(0 33)">
            <mask id="training-support_svg__b" fill="#fff">
                <use xlink:href="#training-support_svg__a"></use>
            </mask>
            <path
                d="M73.765 53.746c-1.967-1.819-3.85-3.75-5.955-5.415-.9-.712-.933-1.287-.729-2.193.485-2.142 1.028-4.282 1.32-6.451.168-1.246.627-2.01 1.853-2.294 2-.46 4-.92 6.01-1.336.768-.159 1.24-.387.905-1.277-.147-.39-.14-.832-.242-1.24-.53-2.105-1.052-4.212-1.638-6.301-.083-.295-.471-.675-.766-.72-2.518-.386-5.045-.716-7.571-1.04-1.87-.24-1.862-.229-2.367-1.966-.444-1.529-1.147-2.88-2.596-3.775-.209-.13-.318-.709-.212-.982 1.053-2.695 2.108-5.392 3.283-8.037.368-.828.367-1.21-.508-1.632a273.112 273.112 0 01-8.407-4.232c-.73-.384-1.152-.31-1.705.268-1.266 1.325-2.6 2.589-3.923 3.86-.497.478-1.224.814-1.525 1.379-.547 1.022-1.21.798-2.063.566-2.054-.56-4.004-1.625-6.268-1.28-.23.036-.655-.298-.776-.557a309.76 309.76 0 01-3.282-7.304c-.249-.573-.539-.677-1.14-.536-2.61.617-5.223 1.232-7.857 1.737-.83.16-.992.49-.975 1.218.06 2.565.06 5.132.095 7.698.007.59-.115 1.005-.752 1.315-2.069 1.007-4.124 2.05-6.114 3.196-.673.388-1.126.528-1.87.184-2.482-1.146-5.002-2.215-7.53-3.258-.292-.12-.936-.013-1.078.202-1.654 2.501-3.241 5.046-4.852 7.575-.427.67-.151.998.435 1.483 2.249 1.86 4.41 3.821 6.597 5.751.475.42.633.912.209 1.462-1.477 1.915-1.878 4.126-1.765 6.442.044.905-.216 1.283-1.149 1.563-2.777.833-5.505 1.82-8.045 2.677.866 3.368 1.733 6.586 2.496 9.827.172.73.416.972 1.156.916 2.38-.18 4.767-.285 7.145-.487.777-.066 1.276.107 1.578.83.89 2.138 2.184 3.99 4.19 5.398-.345.935-.666 1.85-1.018 2.751-.77 1.968-1.555 3.93-2.336 5.892-.257.65-.084 1.102.575 1.422 1.124.546 2.276 1.058 3.325 1.724 1.769 1.123 3.466 2.356 5.374 3.666 1.896-1.85 3.839-3.654 5.663-5.567.827-.868 1.61-1.01 2.733-.706 1.622.44 3.3.976 4.946.957 1.799-.021 1.967.123 2.644 1.893.798 2.086 1.694 4.137 2.54 6.186l10.213-1.857c-.046-.685-.055-1.299-.135-1.904a486.882 486.882 0 00-.899-6.458c-.145-.988.268-1.4 1.256-1.701 1.212-.368 2.346-1.01 3.471-1.612.724-.386 1.392-.883 2.047-1.379.844-.638 1.748-.728 2.723-.405 2.48.82 4.97 1.616 7.43 2.492.77.274 1.194.101 1.517-.572.323-.675.644-1.353 1.001-2.011 1.102-2.029 2.22-4.048 3.318-6.045m-21.394 11.41c.276 1.606.63 3.517.925 5.436.144.928.222 1.87.252 2.809.026.834-.308 1.329-1.297 1.498-3.266.561-6.514 1.232-9.765 1.876-1.41.28-1.722.086-2.202-1.239a258.075 258.075 0 00-2.525-6.654c-.089-.226-.427-.457-.684-.503-1.98-.357-3.966-.694-5.96-.975-.382-.054-.93.034-1.188.275-1.938 1.815-3.829 3.68-5.721 5.54-.879.865-1.173.759-2.167.078-2.213-1.517-4.524-2.897-6.804-4.319-.725-.452-1.574-.76-2.181-1.324-.34-.316-.518-1.077-.392-1.54.346-1.28.854-2.521 1.366-3.75.539-1.292 1.182-2.54 1.717-3.832.1-.241.018-.72-.168-.883-1.618-1.42-2.755-3.143-3.605-5.083-.116-.265-.568-.55-.867-.551-1.758-.01-3.517.07-5.276.099-.992.016-1.99.044-2.974-.045-.253-.023-.611-.438-.674-.724-.673-3.072-1.277-6.158-1.943-9.23-.419-1.928-.463-1.946 1.385-2.704 2.14-.876 4.288-1.735 6.46-2.53.57-.207.696-.491.66-.998-.13-1.846.196-3.628.903-5.334.267-.646.662-1.24.996-1.853-2.13-1.878-4.333-3.797-6.505-5.75-.622-.559-.745-1.357-.418-2.07a94.938 94.938 0 012.762-5.58c.51-.942 1.23-1.772 1.84-2.663.489-.72 1.113-.997 1.958-.64 2.457 1.039 4.91 2.09 7.373 3.115.827.344 1.566.495 2.456-.157 1.5-1.1 3.181-1.961 4.752-2.974.256-.165.471-.592.474-.9.019-2.37-.027-4.742-.038-7.114-.007-1.645.129-1.615 1.772-1.888 2.546-.423 5.062-1.023 7.578-1.601 2.764-.636 2.336-.89 3.62 1.667 1.081 2.153 2.038 4.367 3.108 6.681 2.269-.475 4.411.348 6.608 1.052 1.67-1.747 3.362-3.48 5.008-5.25 1.575-1.694 2.102-1.794 4.21-.761 2.135 1.047 4.298 2.04 6.437 3.08.92.447 1.815.944 2.713 1.435.698.383.852.993.564 1.672-1.286 3.024-2.598 6.036-3.837 8.91.823.924 1.705 1.686 2.282 2.627.564.922.817 2.026 1.229 3.109 2.536.187 5.234.427 7.938.566.992.05 1.712.35 1.965 1.296.777 2.911 1.554 5.824 2.232 8.758.249 1.079-.19 1.637-1.423 1.968-1.373.37-2.791.573-4.182.884-.872.195-1.727.462-2.595.68-.525.131-.77.404-.738.966.132 2.436-.485 4.752-1.181 7.061-.08.266.207.765.473.982 1.855 1.515 3.747 2.988 5.635 4.464 1.042.815 1.056 1.178.44 2.296a287.75 287.75 0 00-4.111 7.77c-.832 1.63-2.069 2.046-3.794 1.404-2.48-.921-5.007-1.719-7.53-2.52-.325-.104-.78.009-1.115.155-.479.21-.898.55-1.35.82-1.539.922-3.08 1.838-4.881 2.91"
                fill="#02374E" mask="url(#training-support_svg__b)"></path>
        </g>
        <g transform="translate(63)">
            <mask id="training-support_svg__d" fill="#fff">
                <use xlink:href="#training-support_svg__c"></use>
            </mask>
            <path
                d="M7.07 48.287c1.813 1.865 3.538 3.573 5.172 5.362.537.587.905.554 1.485.159 1.444-.985 2.947-1.889 4.365-2.908.664-.478 1.109-.36 1.773.007 1.26.696 2.576 1.33 3.939 1.787.656.22 1.016.446 1.124 1.096.064.385.21.757.267 1.142.248 1.68.483 3.362.711 5.045.09.663.427.965 1.13.917.954-.065 1.916-.145 2.869-.097 1.644.082 3.283.256 5.084.405.568-2.048 1.172-4.046 1.658-6.072.206-.857.647-1.254 1.471-1.488 1.364-.388 2.777-.734 4.014-1.382.907-.475 1.454-.443 2.196.17 1.464 1.21 2.993 2.344 4.462 3.483 1.715-1.44 3.367-2.848 5.044-4.229 1.112-.914 1.387-.667.26-2.085-1.022-1.286-2.09-2.544-3.014-3.895-.296-.434-.479-1.434-.233-1.653 1.447-1.29 1.956-3.088 2.905-4.642.337-.554.993-1.114 1.61-1.273 1.984-.512 4.013-.866 6.036-1.22.649-.114.94-.358.906-1.016a303.015 303.015 0 01-.263-6.07c-.015-.46-.106-.69-.623-.795-1.785-.363-3.54-.926-5.339-1.138-1.129-.133-1.395-.743-1.675-1.568a255.487 255.487 0 00-1.939-5.53c-.254-.695-.161-1.297.337-1.808a72.787 72.787 0 012.472-2.412c.547-.512 1.136-.979 1.853-1.592-1.563-1.576-3.025-3.078-4.532-4.536-.202-.196-.686-.315-.942-.219-2.013.752-4.02 1.525-5.988 2.38-.75.325-1.227.202-1.73-.371-.824-.941-1.853-1.674-3.107-1.793-.846-.08-1.085-.492-1.19-1.135-.34-2.061-.728-4.12-.94-6.196-.09-.88-.363-1.098-1.2-1.046-2.418.148-4.841.214-7.259.37-.304.02-.762.334-.848.604-.611 1.928-1.246 3.86-1.656 5.835-.184.889-.558 1.157-1.351 1.335-1.6.358-3.296.45-4.681 1.507-.157.12-.628.003-.848-.15a194.635 194.635 0 01-4.902-3.522c-.497-.37-.854-.465-1.349.017-1.036 1.012-2.124 1.972-3.198 2.945-1.851 1.677-1.847 1.671-.555 3.784.753 1.232 1.535 2.451 2.19 3.733.192.377.156 1.039-.058 1.414-.887 1.558-1.922 3.035-2.816 4.59-.295.512-.562.764-1.177.815-2.112.177-4.22.404-6.322.671-.31.04-.81.381-.826.61-.152 2.18-.22 4.365-.307 6.55-.023.58.302.715.855.814 2.18.391 4.345.871 6.518 1.305.791.158 1.212.737 1.134 1.4-.23 1.948.473 3.58 1.467 5.17.376.603.33 1.136-.254 1.739-1.46 1.508-2.807 3.124-4.185 4.68m14.3-38.193c1.602-.533 2.978-1.067 4.399-1.433.7-.18.92-.477 1.055-1.139.366-1.792.839-3.563 1.27-5.341.2-.821.698-1.33 1.577-1.394 2.582-.185 5.164-.385 7.75-.527 2.005-.11 2.268.21 2.477 2.16.212 1.98.534 3.95.856 5.916.045.274.34.693.567.725 1.694.242 2.894 1.21 3.91 2.444 1.999-.955 3.94-1.939 5.938-2.796.445-.19 1.29-.148 1.603.147 1.816 1.708 3.587 3.473 5.25 5.325.853.95.671 1.7-.344 2.654a138.363 138.363 0 01-3.379 3.04c-.53.467-.516.855-.205 1.514.654 1.384 1.154 2.845 1.616 4.306.169.533.399.736.925.81 1.77.246 3.535.533 5.303.8 1.119.168 1.53.623 1.576 1.75.099 2.446.195 4.891.303 7.336.06 1.374-.606 2.1-1.939 2.317-2.06.337-4.114.732-6.148 1.197-.398.09-.798.554-1.021.943-.81 1.409-1.546 2.859-2.37 4.406 1.032 1.303 2.212 2.79 3.383 4.283.181.231.335.487.473.747.45.842.438 1.483-.45 2.181-1.916 1.507-3.716 3.157-5.546 4.768-.946.833-1.222.83-2.184.02a163.198 163.198 0 00-4.295-3.486c-.18-.142-.551-.19-.773-.114-1.464.505-2.925 1.023-4.354 1.614-.352.146-.736.531-.844.884a126.694 126.694 0 00-1.6 5.752c-.22.857-.575 1.084-1.542.98-2.127-.231-4.28-.222-6.423-.309-.099-.003-.198.018-.298.024-2.073.14-2.542-.147-2.921-2.146-.31-1.635-.481-3.298-.65-4.954-.064-.614-.308-.83-.899-1.058-1.314-.509-2.582-1.154-3.811-1.843-.471-.265-.777-.324-1.237-.049-1.671 1.001-3.383 1.937-5.04 2.962-.63.39-.945.253-1.398-.264-1.774-2.025-3.6-4.006-5.415-5.998-.529-.58-.65-1.146-.12-1.81a155.798 155.798 0 003.552-4.6c.194-.264.25-.751.156-1.074-.446-1.526-1.011-3.018-1.434-4.55-.131-.472-.255-.718-.758-.82-1.754-.357-3.49-.801-5.25-1.12-1.016-.184-1.582-.712-1.87-1.647-.675-2.181-.464-4.406-.328-6.62.144-2.318.175-2.347 2.516-2.638 1.672-.208 3.358-.296 5.032-.486.695-.08 1.248-.325 1.57-1.11.519-1.261 1.27-2.428 1.86-3.664.133-.28.13-.745-.02-1.01-.824-1.456-1.726-2.868-2.575-4.31-.875-1.488-.78-1.6.513-2.704 1.654-1.41 3.247-2.895 4.809-4.405.654-.633 1.176-.791 1.966-.219 1.788 1.298 3.628 2.524 5.237 3.633"
                fill="#02374E" mask="url(#training-support_svg__d)"></path>
        </g>
        <path
            d="M38.944 83.945c3.055-.001 6.919-1.356 9.725-3.5 3.956-3.02 5.646-7.051 4.964-11.846-.267-1.87-1.192-3.678-1.984-5.443-.553-1.23-1.214-2.496-2.132-3.473-3.084-3.286-6.877-5.247-11.563-5.263a3.727 3.727 0 00-.887.086c-2.333.57-4.487 1.494-6.48 2.843-4.718 3.192-7.324 9.22-6.105 14.667 1.71 7.644 6.932 11.439 14.462 11.93M37.295 53c3.326.391 6.303 1.013 8.92 2.772.762.513 1.59.936 2.332 1.474 1.347.976 2.371 2.219 3.16 3.675 1.41 2.601 2.863 5.218 3.185 8.172.573 5.266-1.114 9.76-5.498 13.061-2.824 2.126-6.015 3.524-9.629 3.807-5.314.417-12.474-2.556-15.362-7.887-2.961-5.466-3.297-10.914-.383-16.394 2.811-5.284 7.523-7.924 13.275-8.68M95.329 43.62c5.244-.198 8.565-2.28 11.056-7.384 1.771-3.628 1.664-7.364-.961-10.418-2.51-2.92-5.587-5.158-9.783-5.373-3.374-.172-6.27.592-8.46 3.186-2.339 2.77-3.599 5.932-3.18 9.745.663 6.023 6.52 10.437 11.328 10.244m-.091-24.613c4.637-.163 8.202 2.526 10.976 6.012 3.46 4.347 3.53 9.205 1.13 13.699-3.03 5.67-8.363 8.108-14.365 7.035-3.87-.691-6.885-3.06-8.796-6.424-2.526-4.447-3.049-9.148-.563-13.96 2.28-4.415 5.866-6.453 11.618-6.362"
            fill="#02374E"></path>
    </g>
</svg>