<?xml version="1.0" encoding="UTF-8"?>
<svg width="78px" height="50px" viewBox="0 0 78 50" version="1.1" xmlns="http://www.w3.org/2000/svg" xmlns:xlink="http://www.w3.org/1999/xlink">
    <title>Smiley_DarkBlue</title>
    <g id="Test" stroke="none" stroke-width="1" fill="none" fill-rule="evenodd">
        <g id="Franchise---1" transform="translate(-294.000000, -6005.000000)" fill="#FFFFFF" fill-rule="nonzero">
            <g id="Footer" transform="translate(0.000000, 5959.000000)">
                <g id="Group" transform="translate(294.000000, 46.000000)">
                    <path d="M7.51029883,16.7010011 C5.4211077,16.7010011 3.9106127,15.5944759 3.9106127,13.4889399 C3.9106127,11.3617981 5.4211077,10.2773931 7.51029883,10.2773931 C9.59998038,10.2773931 11.109985,11.3617981 11.109985,13.4889399 C11.109985,15.5944759 9.59998038,16.7010011 7.51029883,16.7010011 Z M7.51029883,7 C2.8964232,7 0,9.45225753 0,13.4889399 C0,17.5040165 2.8964232,20 7.51029883,20 C12.1035768,20 15,17.5040165 15,13.4889399 C15,9.45225753 12.1035768,7 7.51029883,7 L7.51029883,7 Z" id="Fill-1"></path>
                    <polygon id="Fill-2" points="21 14 57 14 57 10 21 10"></polygon>
                    <path d="M72.4718769,6.8489654 C70.2656993,6.8489654 68.437784,7.74181285 67.3901666,9.32276109 L67.3901666,0 L63,0 L63,20 L67.3901666,20 L67.3901666,12.4846576 C68.3263128,10.9270624 69.5746839,10.2166947 71.0227521,10.2166947 C72.6948191,10.2166947 73.6087768,11.1785152 73.6087768,12.8289795 L73.6087768,20 L78,20 L78,12.5308206 C78,9.20816814 76.0606135,6.8489654 72.4718769,6.8489654" id="Fill-3"></path>
                    <path d="M39.5005201,46.0201694 C35.9016806,46.0201694 33.5977993,43.869295 32.7641375,41 L30,42.2953507 C30.8560245,46.5532265 34.5635572,50 39.5005201,50 C44.4364428,50 48.1450156,46.5532265 49,42.2953507 L46.2358625,41 C45.4022007,43.869295 43.1206821,46.0201694 39.5005201,46.0201694" id="Fill-4"></path>
                </g>
            </g>
        </g>
    </g>
</svg>