<svg height="145" viewBox="0 0 180 145" class="css-17cl404"><defs><path id="trees_svg__a" d="M0 .336h178.887V142.81H0z"></path></defs><g fill="none" fill-rule="evenodd"><path d="M110.354 114.935c-7.333 6.805-15.72 9.049-24.88 6.957-5.918-1.351-11.46-3.721-16.269-8.201-4.265-3.973-8.272-8.276-11.456-13.58a21.12 21.12 0 01-.604-1.083c-.033-.063-.005-.171-.005-.456.925.646 1.768 1.25 2.624 1.828 3.756 2.538 7.603 4.906 11.888 5.742 3.553.694 7.158 1.17 10.753 1.333 5.733.26 11.48.177 17.156-1.089 8.33-1.857 15.734-5.943 21.764-13.286.198-.24.397-.48.605-.707.052-.057.141-.065.515-.224-.287 1.979-.2 4-.869 5.544-2.845 6.558-6.339 12.69-11.222 17.222" fill="#E8D0CD"></path><g transform="translate(1 2.053)"><mask id="trees_svg__b" fill="#fff"><use xlink:href="#trees_svg__a"></use></mask><path d="M161.906 47.334l-5.34-7.086c3.353 1.23 4.39 4.123 5.34 7.086zm-12.518-9.46c3.947-.074 6.283 2.347 8.233 5.562-2.816-1.903-5.538-3.74-8.233-5.562zm-2.328 3.789l-12.641-3.448c.57-.042 1.168-.191 1.732-.11 3.836.55 7.447 1.806 10.909 3.558zm-26.453.09c-.138-2.716-.008-5.297 2.438-7.215 2.704-2.12 5.645-3.8 8.744-5.272-3.922 3.971-8.432 7.408-11.182 12.487zm-1.303 1.417c-.533-.052-1.067-.154-1.6-.147-1.935.026-3.87.088-5.805.137-.428.01-.936.175-1.274.004-2.154-1.087-4.447-1.372-7.076-1.25 1.951-1.738 3.654-3.273 5.378-4.781.486-.426 1.093-.22 2.365.75l-3.666 2.526.333.492c1.175-.737 2.365-1.454 3.519-2.223.5-.333.923-.653 1.41.07l-2.545 2.207.301.388c.398-.248.815-.47 1.19-.748 2.135-1.586 2.132-1.59 4.42.071l-1.066 1.335.204.21 1.53-1.358 2.512 2.034-.13.283zm-1.02 2.396c.025.44.07.88.07 1.32-.006 10.706.01 21.412-.047 32.118-.012 2.261-.282 4.523-.48 6.78-.032.36-.239.77-.492 1.037-5.702 5.99-12.477 10.177-20.563 12.104-3.994.953-8.06 1.337-12.162 1.452-5.928.165-11.878.314-17.681-1.022-3.223-.742-6.315-2.084-9.425-3.262-1.48-.561-2.846-1.415-4.3-2.052-.674-.297-.964-.705-1.022-1.42-.284-3.527-.809-7.048-.861-10.578-.133-8.912-.06-17.829-.065-26.744 0-.38.04-.761.06-1.142 2.23 4.45 4.19 8.911 6.683 13.096l.401-.193-6.819-14.44h2.424c.022 3.434 4.805 11.11 7.575 12.014-2.83-3.58-5.552-7.222-7.2-11.927 1.134.24 1.963.392 2.773.61.169.044.362.32.391.513.484 3.187 2.263 5.836 3.6 8.664.764 1.616 1.66 3.17 2.535 4.73.22.393.59.7 1.02 1.195l.158-.857.674.184c-.109-.321-.174-.571-.276-.805-1.363-3.133-2.76-6.253-4.081-9.403-.343-.817-.462-1.73-.698-2.657 1.795.13 2.747 1.128 3.144 2.543.793 2.828 1.75 5.612 2.668 8.404.286.867.579 1.75 1.013 2.547a92.6 92.6 0 003.546 5.949c-.7-4.348-1.613-8.662-1.608-13.086 1.463-.03 2.166.726 1.973 2.034-.479 3.246-.022 6.423.674 9.582.086.39.34.744.686 1.075-.435-3.59-1.017-7.14-.889-10.84 1.557.954 1.76 1.49 1.487 3.063-.598 3.43-.183 6.83.408 10.216.047.277.25.526.381.788l.29-.066c-.15-1.507-.25-3.022-.465-4.52-.17-1.191.082-2.107 1.352-2.722.046 3.624-.075 7.214 1.006 10.718-.176-1.677.694-2.909 1.604-4.345l.987 6.304h.486c-.084-1.48-.666-3.132 1-3.834 1.067 1.249 1.228 3.118 2.69 4.107l.355-.195-1.479-3.483c.995 1.118 1.273 2.684 2.623 3.516-.58-2.085-2.964-3.754-1.161-6.552 1.124 1.822 2.174 3.524 3.226 5.226l.23-.02c0-.302.117-.68-.019-.897-1.046-1.67-.358-3.388-.219-5.096.21-2.572.393-5.147.577-7.722.017-.25-.044-.507-.313-.773l-.962 7.656c-1.64-1.224-1.64-1.224-1.17-2.694l.768.2c-1.002-1.074-.889-2.084-.255-3.126 1.228-2.018 2.444-4.041 3.802-6.018.44 4.786-.162 9.509-.384 14.238l.337.145c.194-.348.52-.682.56-1.046.479-4.389.961-8.78.282-13.193-.21-1.36.582-2.875 2.197-3.832.09 4.757-.387 9.342-.837 13.927l.35.127c.215-.555.524-1.093.623-1.668.21-1.212.43-2.442.43-3.665 0-2.854-.003-5.718-.253-8.555-.139-1.578 1.018-2.067 1.758-2.983.347 4.404-.36 8.69-1.173 12.968l.4.147c.247-.482.62-.94.72-1.45.729-3.749 1.404-7.504.777-11.352-.24-1.485.353-2.175 2.3-2.63.052 5.378-1.022 10.555-2.118 16.03.412-.352.633-.46.731-.636 2.53-4.523 5.123-9.019 6.483-14.08.585-2.177 1.105-4.371 1.687-6.55.084-.311.29-.675.55-.838.864-.546 1.78-1.012 2.987-1.682-.132.928-.098 1.612-.331 2.186-1.678 4.117-3.409 8.212-5.13 12.311-.164.391-.382.759-.716 1.416l1.163-.559v.878l.23.135c.365-.432.828-.814 1.078-1.306 2.228-4.394 4.43-8.8 6.607-13.22.294-.597.568-1.29.557-1.932-.021-1.243.722-1.512 1.68-1.666.578-.093 1.153-.2 2.063-.36-.301.95-.439 1.717-.772 2.387-1.883 3.787-4.075 7.378-6.899 10.551-.323.363-.622.747-.931 1.122l.264.3c.528-.356 1.137-.633 1.572-1.079 2.86-2.931 5.09-6.311 6.759-10.04.434-.97.475-2.118.73-3.346l2.685-.17c-2.666 6.018-5.47 11.678-8.168 17.385l.312.221c.372-.5.832-.956 1.1-1.507 2.227-4.573 4.42-9.163 6.62-13.75.099-.206.176-.424.493-.633zm1.413 45.864c1.836 1.29 3.783 1.62 5.98 1.293.496 13.174-1.143 26.13-2.23 39.222-3.922-1.404-7.597-2.988-11.907-2.375 4.319-12.487 5.91-25.282 8.157-38.14zm-14.161 16.963c-7.263 5.598-15.57 7.443-24.643 5.722-5.861-1.11-11.352-3.061-16.115-6.746-4.224-3.268-8.193-6.809-11.347-11.171-.21-.29-.407-.59-.598-.891-.033-.052-.005-.141-.005-.375.916.53 1.752 1.028 2.6 1.504 3.72 2.087 7.53 4.035 11.774 4.723 3.519.57 7.09.963 10.65 1.097 5.68.213 11.372.145 16.993-.896 8.251-1.528 15.585-4.889 21.558-10.93.196-.198.393-.394.599-.581.052-.048.14-.054.51-.185-.284 1.628-.197 3.291-.86 4.561-2.819 5.395-6.28 10.439-11.116 14.168zm-48.574 16.385c-3.61-.35-6.706.879-10.047 2.123-.774-10.13-2.102-20.12-1.905-30.206 2.902-.306 2.902-.306 5.467-1.787 1.738 10.053 3.09 20.058 6.485 29.87zm-6.731-72.965l2.199-1.878 1.2 1.087.14-.115-.677-1c1.768-2.45 3.142-.323 4.625.497l.228-.338-2.016-1.84c.595-.453.585-.44 2.012.51.64.426 1.326.784 1.992 1.174l.246-.394-2.975-2.042c1.441-1.084 1.526-1.06 2.67-.024 1.195 1.083 2.432 2.119 3.598 3.438-.41 0-.827-.044-1.23.01-1.058.138-2.195.125-3.144.535-1.163.503-2.253.491-3.454.409-1.687-.116-3.388-.03-5.414-.03zm2.837-3.913l-2.383 1.737c.034-1.543.084-1.581 2.383-1.737zm-.296-4.334c.984-1.903 2.104-3.735 3.142-5.61.292-.53.609-.64 1.237-.559 1.372.177 2.767.178 4.153.237.5.022 1.003.004 1.555.004-.38.95-.38.949-2.96 1.64-1.11.298-2.216.608-3.292 1.097l2.902-.494-.11.818c-.478.567-1.112.976-1.263 1.847-.064.371-.76.749-1.24.909-1.152.383-2.345.639-3.47 1.18l3.739-.758.248.308c-.36.509-.609 1.242-1.1 1.484-1.544.76-3.18 1.334-4.78 1.98l-.33-.338c.516-1.25.949-2.546 1.569-3.745zm4.592 1.656c-.041-1.256.774-1.663 1.717-1.98-.922-.573-.661-1.15.717-1.904l-.375-.666-.01.01c.57-.916 1.315-1.519 2.823-1.356-1.931 1.86-1.86 4.986-4.872 5.896zm5.012 1.35c1.107 1.08 2.288 2.084 3.463 3.09.308.263.717.408 1.078.607l.187-.252-4.897-4.34c1.464-.962 1.592-.9 2.72.106 1.687 1.506 3.437 2.944 5.174 4.392.29.24.655.39.986.582.065-.085.13-.168.197-.252l-6.53-5.581c1.753-.826 1.939-.717 3.044.504 1.624 1.795 3.347 3.501 5.025 5.248.267.278.518.57.892.985-3.108-.263-5.987-.501-8.866-.755-.225-.02-.493-.086-.653-.229-1.536-1.368-3.053-2.758-4.585-4.15 1.334-1.05 1.7-.993 2.765.045zm2.159-6.11l.161.156-1.509 2.116-1.69.97-.23-.295c1.088-.983 2.178-1.965 3.268-2.948zm13.597-4.701c-1.327 1.11-2.453 2.427-3.877 3.166-2.685 1.39-5.542 2.448-8.362 3.557 1.305-1.69 9.274-6.009 12.239-6.723zm-2.384 4.12c1.094-.802 2.19-1.605 3.283-2.408-.73 2.31-.956 2.478-3.283 2.409zm7.684-4.642c-1.226 2.203-3.668 4.838-4.637 4.838 1.26-1.934 1.76-4.382 4.637-4.838zm1.087-.128c.434-.537 1.255-.76 1.9-1.126l.379.393c-.271.637-.489 1.303-.823 1.904-.789 1.416-1.654 2.79-2.444 4.205-.374.668-.78.997-1.597.733-.471-.153-1.014-.082-1.787-.126.424-.545.761-.947 1.064-1.373 1.097-1.542 2.12-3.144 3.308-4.61zm3.693-1.307c.653-.126 1.336-.097 2.13-.14-.567 1.667-5.067 7.504-6.53 8.324.324-.613.495-.97.693-1.31 1.155-1.986 2.52-3.868 2.868-6.238.038-.256.52-.574.84-.636zm20.082 12.093c.566-.312 1.203-.494 1.812-.729l.327.267-3.75 8.08-.31-.194c.286-.77.675-1.519.835-2.314.286-1.416.416-2.863.652-4.29.049-.297.205-.693.434-.82zm-7.805 2.101c-.546.31-1.122.642-1.725.765-4.043.82-7.81 2.384-11.487 4.19-1.817.89-3.638 1.787-5.385 2.805-1.017.593-1.85.482-2.92-.238 7.382-4.265 14.596-8.566 23.312-9.472-2.11-.815-4.876-.208-13.525 2.914l-.923-1.195 2.233-.242c.091-.092.284-.448.564-.545 5.511-1.89 11.161-3.07 17.003-3.222.181-.005.364.036.86.092-1.566.7-2.88 1.216-4.124 1.868-1.327.696-2.578 1.538-3.883 2.28zm-1.148 10.248c.463-2.243 1.149-4.47.647-6.815-.05-.236.13-.635.333-.793a17.024 17.024 0 012.743-1.761c-1.076 4.764-2.883 9.244-4.77 13.71.352-1.446.746-2.884 1.047-4.341zm-1.907-5.057c-.014-.198.059-.483.198-.598.538-.443 1.118-.833 1.954-1.438-.034 3.918-1.14 7.285-2.225 10.608.146-1.378.401-2.754.407-4.132.007-1.48-.23-2.959-.334-4.44zm-15.892 6.74l-2.073-1.596c1.99-1.647 15.912-8.684 18.261-8.748-1.706 1.591-3.497 3.266-5.296 4.931-.141.132-.33.219-.507.305-3.486 1.717-6.974 3.43-10.385 5.108zm6.013-.542c-1.72.68-3.318 1.698-4.91 2.67-.681.416-1.138.386-1.807-.371l9.613-5.385.18.31c-.714 1.269-1.626 2.202-3.076 2.776zm-5.726 6.591l-1.469-.909 7.213-4.798.337.44c-1.653 2.131-4.25 3.21-6.081 5.267zm1.62.959c-.08.053-.398-.251-.717-.464l2.942-2.588c-.312 1.375-1.139 2.326-2.225 3.052zm.445 7.257c1.76 1.305 1.84 1.487 1.387 3.106-1.45-1.18-1.834-2.004-1.387-3.106zm-2.456-5.714a.525.525 0 01-.516-.515c-.012-.28.246-.516.516-.516h1.907c.29 0 .504.236.516.516.012.278-.246.515-.516.515h-1.907zm-2.15 5.247c1.005 1.738.844 4.004-.316 5.16-.831-2.171-.748-3.901.317-5.16zm-1.667-6.15c.883-.86 1.286.021 2.024.292-1.07 1.061-1.382-.013-2.024-.293zm-.037 4.28c.455 1.806-.33 3.275-1.287 4.743-.516-2.47-.58-3.677 1.287-4.743zm-13.266-15.12c.773.544 1.551 1.08 2.312 1.642.102.076.173.29.154.424-.479 3.216.647 6.193 1.357 9.232.013.056-.04.129-.173.516l-4.03-11.531.38-.284zm-4.39-4.081c5.772-.152 11.218 1.15 16.575 3.114-.292.808-.737.828-1.475.596a142.332 142.332 0 00-7.536-2.157c-.75-.19-1.588-.029-2.39.068 3.225.404 6.264 1.39 9.206 2.692.43.19.753.625.975 1.127h1.873c-1.196 1.31-1.176 1.254-2.454.812-2.248-.777-4.526-1.464-6.782-2.218-.596-.2-1.17-.478-1.731-.767-1.932-.994-3.854-2.009-5.78-3.016-.16-.085-.32-.168-.48-.251zm.13 3.017c.139 1.285.583 2.539.912 3.802.094.362.254.708.384 1.062l-.262.108-3.252-6.942c2.03.285 2.052.444 2.217 1.97zm16.986 1.436c.908-.98 1.08-.994 2.337-.177-1.143.991-1.257 1-2.337.177zm-.081 2.878c1.024-1.45 1.425-1.283 3.993.454-1.595 1.732-2.642-.254-3.993-.454zM76.02 71.57v-2.797c1.524 1.082 1.518 1.44 0 2.797zm.596-6.376c.598-1.118 1.179-.551 1.81-.152-.538.982-1.13.621-1.81.152zm4.381 1.325c-.723 1.209-1.22.053-2.048.042.942-1.2 1.435-.38 2.048-.042zm-2.757-2.661c1.047-1.42 1.687-1.62 2.839-.844-1.687 1.638-1.687 1.638-2.84.844zm1.432-14.032l-.24.233c-.257-.242-.542-.462-.765-.732-.582-.702-1.138-1.426-1.702-2.143-.95-1.207-.949-1.207.288-2.292l2.42 4.934zm.135-4.59c.156.23-.381.933-.604 1.421l-.441-.066-.866-2.07.345-.343c.544.338 1.237.574 1.566 1.058zm.615-2.247c-.424-.167-.846-.34-1.316-.53.727-.705 1.557-.789 3.21-.375-.637 1.397-.637 1.398-1.894.905zm1.932 5.773l-1.774.763-1.309-2.098 1.255-1.012 1.828 2.347zm-1.196-3.252c1.714.144 2.12 1.41 2.716 2.556-.907.273-2.247-1.007-2.716-2.556zm-7.06 5.496c-1.734-1.808-3.516-3.569-5.272-5.355-.379-.385-.721-.804-1.288-1.44l3.517-.275c.406 2.893 2.275 4.74 3.955 6.688.16.186.589.141.941.077-1.468-2.187-3.457-3.932-4.18-6.495 1.414-.701 2.362-.578 2.598.417.218.92.154 1.907.223 3.013L75.655 47l2.86 3.43c-.914.734-2.514.97-2.954 2.573l8.715-3.871 1.466.96-.371-1.214c1.016-.817 1.472.053 2.23.678-.794.415-1.455.738-2.096 1.098-2.355 1.323-4.719 2.631-7.041 4.008-.606.359-1.103.445-1.77.218-3.576-1.214-7.167-2.43-10.962-2.7-2.122-.15-4.263-.027-6.555-.027 1.711-1.146 9.766-.915 15.842.417-.386-.672-.569-1.2-.92-1.566zm-5.356 16.323c-.73-1.46-1.823-7.002-1.571-8.36 1.388.422 1.617.819 1.585 2.125-.053 2.166-.014 4.333-.014 6.235zm4.906 1.969v-3.8c2.165 1.26 2.173 2.282 0 3.8zm-2.058-9.308c-.863-.952-1.948-1.703-2.933-2.543l.114-.24 6.19 2.525-.632 1.465c.953.11 1.36-1.254 2.345-.582.646.44 1.399.726 2.113 1.086-1.155 1.54-1.546 1.6-3.202.963-1.548-.596-2.867-1.43-3.995-2.674zm10.482 10.24a.54.54 0 01-.112.17.533.533 0 01-.365.15h-1.113a.536.536 0 01-.364-.15.521.521 0 01-.151-.366.528.528 0 01.151-.365.534.534 0 01.364-.15h.298a4.13 4.13 0 00-.337-.116 6.172 6.172 0 00-.574-.144c-.283-.058-.419-.378-.36-.635.064-.285.37-.414.634-.36.824.167 1.685.486 2.294 1.087.206.203.188.525 0 .73a.479.479 0 01-.365.148zm-1.215 2.87c-.018 0-.037-.003-.056-.003a.52.52 0 01-.364-.881.53.53 0 01.364-.152c.437.004.831.197 1.214.389.12.06.197.185.237.308a.522.522 0 01-.052.398.526.526 0 01-.308.237.547.547 0 01-.397-.052 8.447 8.447 0 00-.312-.148 1.804 1.804 0 00-.326-.096zm.428 1.686a.859.859 0 00-.054-.09.54.54 0 01-.151-.365.52.52 0 01.515-.517.53.53 0 01.365.152c.155.157.274.358.333.572a1.455 1.455 0 01.041.366 1.441 1.441 0 01-.038.247 1.47 1.47 0 01-.096.236.518.518 0 01-.942-.124.392.392 0 01-.01-.205.372.372 0 01.036-.138c.007-.02.01-.039.016-.058v-.023a.728.728 0 00-.015-.053zm12.847-40.864c-.403.86-.655 1.814-1.217 2.52-1.753 2.2-3.62 4.309-5.45 6.448-.416.488-.858.955-1.417 1.574 2.638-.016 8.307-7.112 8.76-10.762l3.953.268.193.273c-1.542 1.554-3.098 3.095-4.623 4.665-1.517 1.56-3.004 3.15-4.434 4.871 6.321-.687 12.567-1.732 18.876-.862.01.103.022.206.033.308-.122.036-.248.115-.364.103-6.342-.65-12.387.734-18.335 2.717-.969.323-1.788.36-2.717-.122-1.12-.583-2.324-1.008-3.643-1.566.81-.99 1.581-1.91 2.325-2.851a214.215 214.215 0 003.511-4.519c.426-.568.783-1.2 1.09-1.842.827-1.73 1.344-1.953 3.459-1.223zm6.076.315c.657.062 1.304.242 1.954.375l.142.294-7.782 6.625.193.292c.417-.223.884-.385 1.242-.68 2.025-1.665 4.145-3.241 5.985-5.094 1.112-1.12 2.038-1.295 3.542-.401l-5.993 5.293.166.294c.449-.219.967-.357 1.335-.67 1.45-1.237 2.96-2.432 4.232-3.837.755-.833 1.36-1.067 2.31-.57.273.143.573.238 1.122.461-1.651 1.448-3.22 2.676-4.602 4.085-.936.956-1.953 1.285-3.226 1.372-3 .206-5.993.523-9.143.81l1.076-1.152c2.218-2.383 4.43-4.77 6.663-7.138.187-.198.532-.382.784-.359zm2.617-4.41l3.856 3.436c-1.52-.094-2.814-1.225-3.856-3.437zm4.393 1.33c-.21-.35-.356-.663.234-.756-.987-.394-1.527-1.165-1.85-2.15 1.868-.053 2.517.415 2.984 2.213l-1.17-.086c1.98.975 1.98.975 2.386 2.112l-.897.156c1.092.514 2.132 1.077 2.34 2.569-1.106-.29-2.1-.577-2.653-1.693-.405-.815-.908-1.582-1.374-2.365zm-2.784-4.48l.157-.397c.975 0 1.95.04 2.923-.01 1.383-.073 2.762-.232 4.145-.31.294-.016.76.065.874.26 2.17 3.692 4.524 7.294 5.777 11.449.01.035-.007.078-.03.287-2.25-.502-4.44-1.108-6.331-2.434-.447-.314-.575-1.082-.986-1.92l5.072 1.036.082-.277c-.553-.174-1.1-.369-1.66-.518-.958-.255-1.915-.542-2.89-.704-.932-.155-1.341-.713-1.666-1.796l3.662.8.037-.13c-1.001-.282-1.992-.618-3.009-.83-1.22-.255-1.682-1.146-2.253-2.324l4.256.821.047-.269c-2.252-.617-4.511-1.207-6.748-1.872-.526-.156-.975-.568-1.46-.862zm14.68 13.868l-2.935-2.137c2.533.06 2.723.198 2.935 2.137zM49.299 50.635c-2.308-4.142-5.967-7.001-9.249-10.202.065-.054.135-.14.16-.129 2.882 1.363 5.716 2.866 7.93 5.183 1.299 1.36 1.413 3.275 1.159 5.148zm-21.781-.16c3.189-1.504 6.4-2.916 10.043-2.671l-10.043 2.67zm-3.297-.944c-.697.393-1.386.805-2.075 1.214 1.894-1.23 3.787-2.464 5.692-3.675.204-.13.516-.088.816.006-1.478.817-2.961 1.626-4.433 2.455zm-5.715 2.307c.696-2.422 3.507-4.31 6.57-4.396l-6.57 4.396zm-4.033 3.616c.759-2.442 1.57-4.846 4.46-5.967l-4.46 5.967zM65.11 27.198a.896.896 0 01.644-.19c1.578.22 3.152.475 4.727.719l.055.144-7.074 1.414-.179-.327c.606-.59 1.198-1.196 1.827-1.76zm30.002-12.58l.021-.175 4.058-.329c.119-.01.238-.017.354-.038.726-.126 1.653-.598 2.132-.313.944.561 1.638 1.543 2.361 2.596l-8.926-1.742zm82.772 34.873c-2.736-1.64-5.558-3.167-8.746-3.634-1.703-.25-2.644-1.377-3.785-2.378 4.26.467 8.268 1.842 12.325 3.195-.248-.447-.539-.833-.925-1-3.735-1.607-7.565-2.938-11.673-3.069-1.996-.063-3.034-1.524-4.448-2.486 5.104.024 10.136.32 15.206 1.74-.254-1.09-.971-1.293-1.633-1.453-4.23-1.025-8.535-1.652-12.865-1.204-2.235.231-3.74-.767-5.359-1.943 5.774-.685 11.557-.47 17.379-.411-.488-.383-1.008-.665-1.541-.692-2.736-.142-5.477-.346-8.21-.282-2.569.06-5.176.208-7.676.74-1.635.347-2.728-.42-4.048-.834.385-.23.756-.368 1.139-.451 2.751-.603 5.486-1.306 8.262-1.764 3.722-.615 7.415-1.743 11.34-1.123-.36-.351-.767-.684-1.226-.786-.612-.137-1.268-.157-1.898-.117-5.77.372-11.464 1.282-16.877 3.319-1.983.746-3.715.522-5.61.068 5.885-2.547 12.03-4.211 18.305-5.512-.551-.129-1.1-.212-1.614-.117-5.873 1.09-11.628 2.56-16.98 5.32-.31.16-.663.327-1 .334-1.576.036-3.154.016-4.938.016 2.98-2.07 6.085-3.632 9.209-5.134 3.137-1.509 6.348-2.866 9.527-4.289l-.06-.327c-.893.162-1.839.186-2.672.506-5.581 2.145-10.991 4.693-15.76 8.32-1.897 1.443-3.95 1.32-6.026 1.695 5.45-4.614 11.563-8.037 18.26-10.417-.812-.484-.912-.564-2.3-.03-5.602 2.157-10.868 4.935-15.288 9.06-1.287 1.202-2.555 2.168-4.298 2.551-1.088.24-2.116.755-3.171 1.146 1.846-2.79 4.336-4.824 6.937-6.7 2.579-1.861 5.287-3.544 7.937-5.306-1.031.168-2.047.458-2.946.957-3.634 2.02-6.932 4.523-9.883 7.44-1.167 1.151-2.02 2.621-3.02 3.944-.116.153-.23.332-.387.429-1.648 1.01-3.305 2.007-4.96 3.007a6.96 6.96 0 011.097-1.91c3.472-4.23 7.422-7.965 11.705-11.362.903-.716 1.685-1.586 2.523-2.385l-.242-.333c-4.94 1.746-9.544 4.175-13.92 7.098 1.737-3.396 4.549-5.66 7.778-7.467 3.16-1.768 6.332-3.523 9.985-4.265-.633-.21-1.253-.31-1.83-.194-3 .605-5.658 2.057-8.32 3.486-.787.424-1.556.883-2.334 1.327l-.145-.219c1.876-1.638 3.38-3.829 5.951-4.487 3.07-.787 6.188-1.392 9.304-1.978 1.69-.319 3.42-.437 5.131-.645l-.019-.287c-2.168-.523-4.327.053-6.467.325-2.195.278-4.36.795-6.539 1.207 1.168-.896 2.464-1.498 3.66-2.258 1.689-1.073 3.433-1.161 5.354-.829 2.97.515 5.97.856 8.963 1.235.53.067 1.08-.04 1.622-.066l.022-.479c-3.52-.966-7.21-1.129-10.741-2.096 5.246-1.29 10.136.124 15.004 1.926-2.756-2.544-6.41-2.642-9.819-3.583 1.283-.303 2.582-.62 3.836-.493 3.374.343 6.372 1.875 9.39 3.3.373.175.742.359 1.114.539l.172-.348c-2.165-1.746-4.89-2.47-7.328-3.787.554-.08 1.098-.11 1.606.01 1.777.414 3.539.89 5.313 1.32.36.086.747.066 1.121.095l.088-.446c-2.39-1.11-4.943-1.71-7.555-2.266l4.404-.682-.048-.425c-3.694-.23-7.353 1.246-11.16.23l8.5-3.744-.034-.29c-.462.039-.978-.043-1.378.136-2.893 1.29-5.743 2.678-8.647 3.944-2.65 1.156-5.35 2.196-8.029 3.287l-.14-.3c3.783-3.33 7.905-6.192 12.353-8.692-.5-.825-1.09-.645-1.605-.35-1.724.983-3.393 2.066-5.136 3.013-4.333 2.353-7.32 6.358-11.329 9.14-3.143 2.182-5.917 4.895-8.798 7.325.115-.385.18-.988.456-1.469 1.403-2.444 2.615-5.054 4.354-7.238 3.017-3.789 6.376-7.304 9.58-10.945.402-.457.73-.981 1.091-1.474l-.352-.367c-.555.316-1.205.534-1.648.964-1.968 1.909-3.935 3.824-5.793 5.838-3.386 3.671-6.415 7.606-8.209 12.342-.358.947-1.139 1.896-.333 3.016.085.117-.061.467-.182.657-.542.845-1.113 1.67-1.673 2.504-.097-.49.016-.86.134-1.231 1.098-3.445 2.213-6.885 3.273-10.342.147-.48.02-1.044.02-1.57l-.405-.077c-.22.434-.492.85-.65 1.306-1.996 5.702-3.971 11.41-5.958 17.114-.28.804-.722 1.546-.278 2.474.185.388.03.938.03 1.415-.684-1.29-1.156-2.585-1.557-3.902-.075-.245.109-.589.221-.868.592-1.472 1.378-2.893 1.764-4.416.898-3.539 1.708-7.108 2.36-10.7.59-3.241.931-6.528 1.363-9.797.087-.655.14-1.343-.81-1.768-1.293 8.927-2.525 17.773-5.316 26.59-.61-1.245-.975-2.276-1.575-3.146-.86-1.251-.755-2.185.151-3.447 2.678-3.731 3.864-8.073 4.56-12.55.377-2.432.668-4.88.909-7.329.055-.56-.258-1.156-.401-1.735-.118.03-.236.057-.354.086-.664 7.825-2.05 15.448-6.165 22.523l-1.385-2.697c.903-1.91 1.878-3.408 2.326-5.05.761-2.788 1.26-5.655 1.733-8.512.29-1.757.358-3.554.458-5.337.036-.633-.02-1.337-.815-1.647-.588 6.707-1.368 13.275-4.11 19.694-.817-1.14-1.47-1.99-2.039-2.891-.151-.24-.167-.701-.041-.961 1.688-3.485 2.515-7.21 2.903-11.017.22-2.157.124-4.353.061-6.528-.012-.431-.52-.848-.799-1.272l-.28.18c.414 6.257-.942 12.214-2.863 18.325-.712-.739-1.256-1.216-1.681-1.783-.221-.295-.39-.786-.311-1.127.933-4.069 1.046-8.195.92-12.338-.019-.59-.137-1.184-.284-1.757-.045-.177-.34-.29-.679-.558.222 5.01-.17 9.733-.866 14.67-.528-.47-.88-.774-1.224-1.088-1.294-1.177-2.553-2.397-3.892-3.52-.565-.473-1.263-.84-1.96-1.087-.751-.267-1.982.445-2.052-1.107-.003-.053-.204-.135-.314-.138-1.024-.03-1.5-.813-2.025-1.497-.726-.946-1.385-1.945-2.127-2.878-.233-.293-.644-.442-.974-.658l-.347.364 2.611 4.275c-.591-.228-.986-.37-1.374-.532-.953-.394-1.895-.818-2.857-1.189-.608-.234-1.15-.198-1.34.525 1.33.588 2.569 1.211 3.863 1.686 1.266.464 2.589.776 3.887 1.154l-.064.342c-2.876.308-5.752.614-8.724-.474.171 1.379 1.194 1.433 2.012 1.573 2.501.424 4.983.286 7.42-.475.28-.087.682-.14.896-.004.819.52 1.584 1.123 2.369 1.696l-.11.291c-4.118.702-8.28.059-12.45.25.397.32.815.489 1.248.537 1.28.142 2.491.502 3.733.838 3.472.937 7.056 1.493 10.62 2.03 1.065.161 1.702.565 2.35 1.535-5.057.268-9.88-.008-14.688-1.241.417.446.882.84 1.414.979 4.268 1.115 8.589 1.53 12.982.872.407-.061.98-.133 1.229.084.723.631 1.321 1.406 2.155 2.333-4.94.804-9.539.112-14.168-.085.342.335.701.568 1.092.644.856.166 1.724.315 2.592.36 3.127.164 6.263.609 9.374-.16 1.59-.392 1.618-.385 2.422 1.473l-13.845-.423c.344.32.722.56 1.123.61 4.031.497 8.07.788 12.12.232 1.235-.17 1.374-.08 1.67 1.316H99.229l-.04.307c.834.114 1.671.211 2.502.347.783.128 1.758-.26 2.305.544l-.098.316-1.748-.29-.082.3c.463.165.934.31 1.386.501.43.18 1.01.296 1.229.633 1.246 1.916 2.404 3.89 3.592 5.844l-.207.228c-.35-.308-.727-.593-1.046-.931-.652-.692-1.17-1.555-1.925-2.096-2.958-2.125-5.983-4.159-8.997-6.206-.32-.217-.722-.336-1.103-.43-.263-.066-.556-.013-.837-.013 4.138 1.782 6.959 5.09 9.976 8.178a3.689 3.689 0 01-1.514-.728 43.49 43.49 0 00-9.248-5.852c-.93-.436-1.92-.763-2.912-1.033-.394-.108-.867.073-1.305.123l.053.291c4.533 1.168 8.252 3.831 11.957 6.549-1.174-.25-2.253-.7-3.33-1.153-2.887-1.211-5.749-2.491-8.675-3.6-1.086-.412-2.32-.468-3.496-.591-.377-.04-.787.227-1.181.353 4.472.457 8.333 2.3 12.173 4.2-1.433-.41-2.805-1.026-4.24-1.4-1.452-.38-2.96-.566-4.455-.754a66.481 66.481 0 00-4.627-.41c-1.426-.078-2.894-.427-4.255.216l.004.325 8.928.749.007.266c-.37.035-.738.082-1.108.103-2.26.127-4.528.186-6.78.397-1.292.12-2.673.197-3.607 1.268l11.298-.92.023.31c-1.171.342-2.377.596-3.506 1.043-2.954 1.167-5.897 2.37-8.798 3.66-1.184.527-2.25 1.32-3.374 1.983-.192.114-.404.211-.62.27-.5.136-1.093.117-1.502.385-1.925 1.262-3.794 2.61-5.7 3.9-.322.217-.668.824-1.139.156l6.97-6.187a49.336 49.336 0 00-3.71 2.273c-1.185.794-2.405 1.555-3.496 2.466-1.064.89-1.984 1.954-2.967 2.941l-.259-.243c.642-.998 1.368-1.952 1.902-3.004.695-1.372 1.532-2.485 3.154-2.754.026-.004.035-.115.06-.205l-1.442.13-.078-.429 3.936-.514-.046-.292H56.687c.225-.962.548-1.322 1.52-1.151 3.322.582 6.653.27 9.97-.162.358-.047.697-.25 1.304-.476l-11.659.345c.31-.878.352-1.769 1.409-1.458 3.461 1.017 6.934.427 10.4.037.374-.042.723-.294 1.084-.448l-.079-.257c-3.86.372-7.722.929-11.731.252.895-1.506 1.744-2.44 3.589-2.064 3.13.639 6.255.061 9.341-.538.658-.128 1.267-.509 1.897-.772l-.129-.334c-3.965 1.027-7.975 1.463-12.197 1.12.532-.896 1.103-1.328 2.002-1.31.593.013 1.203-.016 1.78-.14a1340.55 1340.55 0 0010.986-2.412c.114-.025.202-.167.303-.254-3.514-.202-6.986.321-10.683-.307 1.313-1.236 2.285-1.888 4.005-1.436 1.669.439 3.533.223 5.304.144 1.052-.049 1.265-.37 1.358-1.192-2.366.862-4.754.627-7.188.146l6.514-2.407-.098-.356c-1.668-.818-2.863 1.131-4.454 1.025.542-1.258 1.683-2.131 1.699-3.585-.392.15-.674.382-.92.645-1.16 1.24-1.633 3.16-3.579 3.629-.062.015-.146.109-.15.17-.048.825-.558.733-1.175.724-.477-.006-1.035.2-1.424.49-.986.734-1.907 1.556-2.833 2.366-.673.588-1.313 1.215-1.967 1.824l-.407-.112-.745-11.864c-.306.36-.549.784-.532 1.196.134 3.293.083 6.62.58 9.86.26 1.709-.404 2.443-1.604 3.429-1.578-5.088-2.702-10.1-2.401-15.406-.876.53-1.112.952-1.086 2.36.086 4.57.725 9.033 2.632 13.246.128.281.188.737.047.97-.467.773-1.041 1.48-1.733 2.432-2.316-5.402-2.934-10.927-3.657-16.486-.267.506-.52 1.05-.456 1.553.44 3.426.79 6.875 1.5 10.247.346 1.652 1.406 3.15 2.124 4.728.102.224.197.55.109.743-.317.7-.714 1.363-1.18 2.222-1.676-3.1-2.988-6.082-3.652-9.289-.66-3.193-1.138-6.424-1.695-9.638l-.27-.037c-.056.705-.19 1.415-.148 2.115.063 1.069.232 2.133.384 3.196.696 4.88 1.72 9.645 4.783 13.7.144.19.263.557.177.74-.586 1.241-1.23 2.456-1.972 3.907-2.36-7.45-3.35-14.897-4.733-22.3-.299.516-.462 1.035-.394 1.522.516 3.66.94 7.342 1.667 10.96.6 2.99 1.557 5.909 2.403 8.845.24.831 1.065 1.481.507 2.531-.401.754-.583 1.625-.863 2.444-.2-.864.007-1.738-.234-2.46-1.7-5.093-3.49-10.155-5.263-15.222-.12-.342-.346-.647-.522-.968a68.5 68.5 0 00-.431.098c.055.531.024 1.09.18 1.59.843 2.735 1.736 5.455 2.604 8.183.082.258.106.534.157.8l-.333.117c-.398-.79-1.207-1.65-1.086-2.35.152-.874-.005-1.555-.285-2.261-2.541-6.393-7.147-11.209-12.094-15.752-.334-.307-.844-.422-1.272-.626l-.223.29c.287.39.538.815.866 1.169 1.434 1.544 2.923 3.037 4.332 4.604 2.854 3.173 5.506 6.496 7.283 10.425.204.451.342.932.51 1.4a1.178 1.178 0 01-.709-.312c-2.052-1.75-4.083-3.526-6.163-5.243-.812-.67-1.794-1.136-2.586-1.825-.956-.83-1.687-1.946-2.702-2.68-2.895-2.089-5.874-4.062-8.85-6.035-.37-.244-.92-.213-1.387-.31l-.148.44c3.582 2.166 7.102 4.414 10.118 7.335-.994-.24-1.945-.524-2.853-.908-1.525-.645-3.021-1.357-4.531-2.036-2.099-.943-4.19-1.903-6.307-2.805-.406-.172-.912-.107-1.372-.152l-.005.22 6.952 3.084-.137.522c-3.001-.228-6.003-.456-9.004-.682l-.026.386 3.666.564c-2.29.62-4.48.896-6.42 1.918l.103.42 6.47-1.482.079.336-5.958 2.858.194.4c.303-.138.6-.288.911-.408 2.22-.855 4.419-1.78 6.676-2.527 1.434-.475 2.929-.399 4.576.445-.493.072-.72.085-.938.14-2.036.511-4.08.992-6.096 1.572-.502.144-.91.613-1.363.933l.17.255c3.076-1.58 6.422-2.016 9.794-2.263.826-.06 1.682.28 2.525.437l-.046.343c-2.94.56-5.957.748-8.823 1.779.429.224.84.268 1.24.217 2.56-.329 5.125-.642 7.677-1.033 2.293-.352 5.83.828 7.468 2.594-3.56-.641-7.08-1.517-10.72-1.22.37.23.76.262 1.144.332 3.511.646 7.033 1.24 10.527 1.968 2.205.459 3.524 2.228 4.98 3.775-.683-.221-1.272-.613-1.91-.89a222.99 222.99 0 00-6.793-2.846c-.421-.167-.966-.024-1.454-.024l.025.287c7.623 2.32 14.148 6.649 14.583 9.675-7.794-4.618-10.184-5.773-11.729-5.575 4.545 4.13 9.458 7.775 12.805 12.964-1.75-1.26-3.767-1.936-5.167-3.892-2.814-3.931-6.794-6.643-11.072-8.862-.391-.202-.869-.237-1.306-.35 4.63 2.773 8.882 5.887 12.394 9.968-1.634-.408-3.197-.928-4.751-1.475-.213-.075-.404-.26-.562-.433-2.151-2.345-4.707-4.166-7.51-5.62-2.18-1.132-4.429-2.14-6.685-3.118-.468-.202-1.098-.029-1.654-.029 5.97 2.247 14.228 6.976 15.293 9.17-1.51-.4-2.94-.527-4.115-1.145-2.03-1.068-3.827-2.576-5.853-3.653-2.697-1.433-5.506-2.659-8.295-3.911-.713-.32-1.522-.654-2.54-.077 5.725 1.952 10.83 4.712 15.787 7.803a28.06 28.06 0 00-7.311.5c-.405.081-.87.009-1.279-.1-3.027-.797-6.018-1.764-9.078-2.392-2.396-.491-4.873-.612-7.32-.806-.533-.042-1.095.306-1.643.474 6.035.026 11.667 1.626 17.337 3.014-1.257.69-2.404.914-3.86.617-4.27-.872-8.619-.658-12.943-.248-.385.036-.75.268-1.124.41l.06.325c4.818-.146 9.639-.351 14.447.201-1.309 1.093-2.6 1.814-4.418 1.63-3.54-.358-7.057.156-10.52.94-.624.14-1.416.196-1.612 1.28 4.191-1.16 8.341-1.452 12.576-1.354-1.067.73-1.82 1.921-3.25 1.971-3.432.122-6.626 1.2-9.78 2.427-.432.169-.791.528-1.185.799l.16.342c3.276-1.248 6.577-2.387 10.07-2.745-.887 1.062-1.866 1.802-3.262 2.027-2.588.415-4.88 1.647-7.102 2.982-.407.244-.696.686-1.04 1.036l.24.249 7.82-3.724c-.646 1.717-1.29 3.218-2.859 4.122-.867.5-1.528 1.379-2.231 2.134-.252.27-.355.678-.525 1.024l.209.11 4.178-3.899c.087.068.174.135.263.202l-2.097 5.274.35.17c1.224-.637 1.113-2.204 2.034-3.265l-.17 2.81.46.096c.163-.349.41-.684.474-1.05.266-1.527.45-3.069.714-4.597.341-1.979 1.158-2.97 3.076-3.764-1.255 2.402-2.538 4.718-2.64 7.429.25-.148.356-.347.44-.555.938-2.32 1.862-4.647 2.815-6.961.427-1.037 1.246-1.648 2.384-2.062-2.337 4.888-3.12 8.181-2.16 9.413.293-.914.466-1.806.852-2.594.897-1.832 2.024-3.499 3.762-4.684 1.328-.906 2.608-1.881 3.905-2.831-.53.506-1.071 1-1.566 1.54-.332.362-.571.81-.976 1.401.424-.052.525-.033.57-.075 3.054-2.859 6.6-4.932 10.367-6.704 1.565-.737 3.036-.445 4.58-.182a1.593 1.593 0 01-.713.331c-3.875.77-7.404 2.374-10.703 4.506-.468.302-.809.8-1.209 1.207l.222.203 4.295-2.595.09.157-.64 1.044c.495-.18.746-.26.99-.362a51.063 51.063 0 0112.38-3.38c.728-.103 1.51.18 2.268.285l-.063.29c-5.995.813-11.28 2.626-11.953 4.183.24-.055.423-.08.594-.14 2.805-.989 5.602-2 8.415-2.968 3.23-1.111 6.138-.484 8.505 1.524-1.434-.167-3.11-.548-4.775-.506-1.729.044-3.462.43-5.168.792-1.592.338-3.316.406-4.585 1.657 4.237-.811 8.392-2.073 12.763-1.774-.067.19-.155.278-.254.297-4.927.957-9.028 3.619-13.077 6.374-.333.226-.524.659-.782.995l.218.199c.165-.077.343-.133.494-.23 1.539-.985 3.025-2.064 4.62-2.945 2.743-1.517 5.453-3.156 8.598-3.746 1.628-.305 3.295-.733 4.797.454.045.035.151-.005.307-.015l.318-.882.89.271c-.26 1.19-.604 2.157-.66 3.14a409.292 409.292 0 00-.484 11.33c-.238 8.268-.83 16.54.146 24.804.043.371.042.878-.169 1.126-.937 1.108-2.05 2.014-3.555 2.216-1.22.162-1.425 0-1.363-1.236.472-9.295.9-18.593 1.488-27.88.243-3.857.84-7.692 1.275-11.537a.973.973 0 00-.33.494c-.144.453-.29.907-.405 1.369-1.766 7.132-2.4 14.432-3.066 21.715-.775 8.486-1.124 17.002-.768 25.52.196 4.686.644 9.365 1.146 14.03.305 2.841.943 5.646 1.401 8.473.095.584.34 1.192-.522 1.597-4.19 1.966-8.476 3.645-13.043 4.479-1.555.283-3.149.341-4.72.537-.292.036-.564.238-.845.364.174.287.294.751.534.824a5.957 5.957 0 001.87.246c4.97-.134 9.663-1.428 14.095-3.616 2.852-1.408 5.72-2.717 8.777-3.63 2.155-.645 4.281-.686 6.478-.363 3.269.48 5.887 2.29 8.562 4.015 2.569 1.657 5.14 3.314 7.748 4.908.562.344 1.289.417 2.019.639-3.091-2.27-6.045-4.46-9.02-6.621-2.679-1.947-5.425-3.765-8.757-4.448-.268-.055-.594-.475-.66-.776-1.27-5.83-2.537-11.66-3.733-17.505-.593-2.902-1.04-5.834-1.603-9.034.336.314.464.401.548.52 2.036 2.86 4.416 5.392 6.952 7.83 7.013 6.744 15.505 10.178 25.005 10.72 11.482.655 21.004-3.49 27.754-13.168.764-1.095 1.58-2.154 2.372-3.23l.379.12-5.99 29.173c-2.675.371-5.021 1.335-7.177 2.714-1.94 1.242-3.824 2.577-5.688 3.932-2.952 2.147-5.658 4.652-9.046 6.157-.074.033-.102.168-.199.34 1.54.008 2.81-.585 3.977-1.321 2.654-1.676 5.246-3.45 7.872-5.17 2.693-1.763 5.362-3.545 8.514-4.466 5.48-1.603 10.513.057 15.307 2.335 5.3 2.518 10.571 5 16.412 5.913 1.951.305 3.951.307 5.932.403.374.018.855-.066 1.113-.297.27-.243.33-.72.482-1.094-.308-.093-.61-.246-.924-.27-1.066-.081-2.15-.024-3.202-.187-6.011-.934-11.724-2.823-17.2-5.465-1.534-.74-1.535-.677-1.277-2.375.738-4.83 1.697-9.644 2.115-14.503.56-6.493.882-13.02.965-19.537.116-8.993-.507-17.965-1.423-26.917-.74-7.24-1.532-14.464-3.213-21.559-.166-.703-.416-1.387-.627-2.08l-.291.07c.134 1.129.278 2.256.401 3.385.503 4.58 1.074 9.155 1.476 13.745.375 4.275.602 8.566.83 12.854.24 4.527.397 9.06.613 13.59.03.652-.22 1.053-.839 1.023a45.686 45.686 0 01-3.98-.357c-.885-.12-1.182-.69-1.1-1.618.22-2.495.47-4.998.478-7.5.015-4.612-.103-9.227-.222-13.838-.15-5.887-.274-11.777-.587-17.657-.106-1.983.228-4.14-1.397-6.03l1.564-.228.295 1.114c.379-.164.647-.323.937-.398.857-.224 1.727-.603 2.583-.582 2.364.057 4.644.639 6.777 1.67 3.972 1.924 7.931 3.874 11.457 6.58.166.127.393.178.692.308.063-1.21-.832-1.61-1.498-2.036-4.783-3.059-9.585-6.097-15.293-7.26 2.6-.702 5.139.05 7.668.49 2.578.448 5.122 1.104 7.68 1.668-.089-.391-.267-.692-.512-.765-5.584-1.664-11.159-3.501-17.095-1.484.839-.57 1.726-1.005 2.554-1.532 1.673-1.066 3.452-1.256 5.376-.925a47.915 47.915 0 0112.335 3.907c.257.12.544.179.976.317-.097-.345-.096-.524-.185-.62-.186-.2-.394-.41-.636-.526-4.305-2.09-8.807-3.508-13.703-3.912 1.342-.75 1.852-.84 3.159-.63 5.19.841 10.245 2.16 15.064 4.308.082.037.211-.028.506-.077l-.943-1.09.18-.213 5.193 3.203c.06-.811.029-.965-1.067-1.674-3.968-2.569-8.196-4.536-12.872-5.429-.412-.078-.817-.193-1.226-.292l.028-.27c1.601 0 3.353-.426 4.774.08 4.483 1.596 8.475 4.16 12.155 7.184.502.413.947.895 1.418 1.345l.352-.241c-.27-.453-.446-1.016-.827-1.339-1.362-1.155-2.718-2.342-4.214-3.304-2.19-1.408-4.498-2.632-6.756-3.933.816.115 1.643.312 2.368.7 4.336 2.323 8.155 5.381 11.92 8.508 2.235 1.855 3.738 4.163 4.29 7.053.06.316.244.608.37.912l.386-.078c.544-1.934-.118-3.816-.662-5.638-.555-1.863-1.395-3.641-2.125-5.493 1.018.505 2.04 1.063 2.529 2.242 1.17 2.824 2.325 5.656 3.488 8.483.107.261.23.517.345.775l.35-.134c-.235-3.237-1.88-6.009-3.342-8.928 2.524 1.054 3.553 2.961 3.826 5.42.172 1.54.405 3.074.699 4.594.082.426.478.792.73 1.187.12-.477.347-.955.338-1.429-.015-.784-.182-1.566-.285-2.348.498.809.825 1.658 1.188 2.491.722 1.655.82 1.733 1.787 1.548l-2.589-6.34.275-.207 5.119 4.78.274-.167c-.245-.445-.4-.989-.753-1.317-1.393-1.297-2.847-2.528-4.283-3.777-.206-.18-.541-.28-.642-.498-.445-.959-.826-1.946-1.341-3.194l9.61 4.592c.26-.873-.4-1.222-.944-1.547z" fill="#02374E" mask="url(#trees_svg__b)"></path></g><path d="M146.713 5.257c-5.932 5.734-12.497 10.878-17.084 17.958.194-.538.295-1.137.598-1.604 1.077-1.661 2.018-3.478 3.382-4.872 3.66-3.741 7.505-7.303 11.302-10.91.426-.405 1.011-.642 1.523-.958l.279.386M104.53 14.085c-.234-1.77-.34-3.382-.684-4.94-.349-1.58-.858-3.138-1.44-4.651-.562-1.466-1.306-2.863-2.065-4.494 3.12.801 6.095 11.185 4.188 14.085M29.295 20.224c2.877.51 13.216 11.557 14.043 14.929-3.813-5.793-9.174-10.117-14.043-14.93M68.102 15.976c-1.858 3.605-3.228 7.337-3.2 11.698-1.93-2.812.908-10.756 3.2-11.698M95.232 1.515c2.267.666 5.755 8.129 4.837 10.487-1.121-3.831-2.385-7.354-4.837-10.487M12.76 42.266c5.06.444 9.81 2.04 14.457 4.01l-14.457-4.01M68.418 25.388c-.472-1.772 2.037-7.232 3.697-8.143l-3.697 8.143" fill="#02374E"></path></g></svg>